<?xml version="1.0" encoding="UTF-8" standalone="no"?>
<!-- Generator: Gravit.io -->

<svg
   xmlns:dc="http://purl.org/dc/elements/1.1/"
   xmlns:cc="http://creativecommons.org/ns#"
   xmlns:rdf="http://www.w3.org/1999/02/22-rdf-syntax-ns#"
   xmlns:svg="http://www.w3.org/2000/svg"
   xmlns="http://www.w3.org/2000/svg"
   xmlns:sodipodi="http://sodipodi.sourceforge.net/DTD/sodipodi-0.dtd"
   xmlns:inkscape="http://www.inkscape.org/namespaces/inkscape"
   style="isolation:isolate"
   viewBox="0 0 1440 263"
   width="1440"
   height="263"
   id="svg9880"
   version="1.1"
   inkscape:version="0.91 r13725"
   sodipodi:docname="cta-illustration-dark.svg">
  <metadata
     id="metadata11336">
    <rdf:RDF>
      <cc:Work
         rdf:about="">
        <dc:format>image/svg+xml</dc:format>
        <dc:type
           rdf:resource="http://purl.org/dc/dcmitype/StillImage" />
        <dc:title></dc:title>
      </cc:Work>
    </rdf:RDF>
  </metadata>
  <sodipodi:namedview
     pagecolor="#ffffff"
     bordercolor="#666666"
     borderopacity="1"
     objecttolerance="10"
     gridtolerance="10"
     guidetolerance="10"
     inkscape:pageopacity="0"
     inkscape:pageshadow="2"
     inkscape:window-width="1366"
     inkscape:window-height="723"
     id="namedview11334"
     showgrid="false"
     inkscape:zoom="0.84"
     inkscape:cx="720"
     inkscape:cy="131.5"
     inkscape:window-x="0"
     inkscape:window-y="19"
     inkscape:window-maximized="1"
     inkscape:current-layer="svg9880" />
  <defs
     id="defs9882">
    <clipPath
       id="_clipPath_SOqLgmHZ61AJbC3hH9pxfqnK44wdWtBr">
      <rect
         width="1440"
         height="263"
         id="rect9885" />
    </clipPath>
  </defs>
  <path
     d="m 1026.3814,162.97153 234.8367,0 0,-150.172552 -234.8367,0 0,150.172552 z m 238.8664,4.03223 -242.8961,0 0,-158.2370082 242.8961,0 0,158.2370082"
     style="fill:#a0c2ff;fill-opacity:1;fill-rule:nonzero;stroke:none"
     id="path5378"
     inkscape:connector-curvature="0" />
  <path
     d="m 1173.8692,133.99371 0,19.65456 -136.3991,0 0,-131.526036 212.6593,0 0,111.871476 -76.2602,0 z m 76.2602,19.65456 -74.2441,0 0,-17.63845 74.2441,0 0,17.63845 z m -214.6755,-133.542149 0,135.558269 216.6917,0 0,-135.558269 -216.6917,0"
     style="fill:#a0c2ff;fill-opacity:1;fill-rule:nonzero;stroke:none"
     id="path5380"
     inkscape:connector-curvature="0" />
  <path
     d="m 1181.3992,36.361664 c 2.3252,-0.0025 4.2121,1.757767 4.2121,3.928381 0,2.173147 -1.8844,3.93598 -4.2095,3.93598 -2.3251,0 -4.2095,-1.7603 -4.2095,-3.933447 0,-2.170614 1.8818,-3.930914 4.2069,-3.930914 z m 3.5105,16.812761 -0,-4.070218 1.4259,0 0,4.067686 7.0159,0 -0,-8.408914 1.426,0 0,8.406381 6.4055,0 0,-4.067685 1.4259,-0.0025 0,4.067685 7.0159,0 -0,-8.406381 1.4259,0 0,8.403848 6.4054,0 -0,-4.067685 1.4234,-0.0025 0,4.070218 7.0158,-0.0025 0,-8.40638 1.4209,0 0,8.40638 6.408,-0.0025 0,-4.067685 1.4234,0 0,4.067685 7.0184,-0.0025 -0,-8.406381 1.4234,0 0,8.406381 6.4055,-0.0025 -0,-4.067685 1.4259,0 0,4.067685 7.0158,-0.0025 -0,-8.40638 1.4235,0 0,8.40638 6.4054,-0.0025 0,-4.067685 1.426,0 0,4.067685 7.0159,0 -0,-8.408913 1.4259,0 0,8.40638 6.4054,-0.0025 -0,-4.065153 1.426,-0.0025 0,4.067685 7.0133,-0.0025 0,-8.406381 1.4235,0 0,8.406381 6.4055,0 0,-4.067685 1.4234,-0.0025 0,4.070218 7.0184,-0.0025 -0,-8.408913 1.4234,0 0,8.408913 6.408,-0.0025 -0,-4.067685 1.4234,0 0,4.067685 43.9416,-0.0051 -0.01,-25.761162 -190.201,0.04306 0.01,25.763694 14.6624,-0.0025"
     style="fill:#a0c2ff;fill-opacity:1;fill-rule:nonzero;stroke:none"
     id="path5382"
     inkscape:connector-curvature="0" />
  <path
     d="m 1307.2366,44.904816 -0.023,8.406381 1.426,0.0051 0.02,-8.40638 -1.4234,-0.0051"
     style="fill:#77a7fb;fill-opacity:1;fill-rule:nonzero;stroke:none"
     id="path5384"
     inkscape:connector-curvature="0" />
  <path
     d="m 1323.1122,44.904816 -0.023,8.406381 1.4209,0.0051 0.023,-8.40638 -1.4209,-0.0051"
     style="fill:#77a7fb;fill-opacity:1;fill-rule:nonzero;stroke:none"
     id="path5386"
     inkscape:connector-curvature="0" />
  <path
     d="m 1315.0554,49.263774 -0.01,4.067685 1.4235,0.0051 0.01,-4.067685 -1.4234,-0.0051"
     style="fill:#77a7fb;fill-opacity:1;fill-rule:nonzero;stroke:none"
     id="path5388"
     inkscape:connector-curvature="0" />
  <path
     d="m 1331.8099,49.263774 -0.01,4.067685 1.426,0.0051 0.01,-4.067685 -1.426,-0.0051"
     style="fill:#77a7fb;fill-opacity:1;fill-rule:nonzero;stroke:none"
     id="path5390"
     inkscape:connector-curvature="0" />
  <path
     d="m 1341.1255,44.904816 -0.023,8.406381 1.426,0.0051 0.02,-8.40638 -1.4235,-0.0051"
     style="fill:#77a7fb;fill-opacity:1;fill-rule:nonzero;stroke:none"
     id="path5392"
     inkscape:connector-curvature="0" />
  <path
     d="m 1349.8283,49.263774 -0.01,4.067685 1.4209,0.0051 0.013,-4.067685 -1.4234,-0.0051"
     style="fill:#77a7fb;fill-opacity:1;fill-rule:nonzero;stroke:none"
     id="path5394"
     inkscape:connector-curvature="0" />
  <path
     d="m 1298.7846,49.223249 -0.013,4.067685 1.4259,0.0025 0.01,-4.067685 -1.4235,-0.0025"
     style="fill:#77a7fb;fill-opacity:1;fill-rule:nonzero;stroke:none"
     id="path5396"
     inkscape:connector-curvature="0" />
  <path
     d="m 1282.5114,49.177659 -0.01,4.070218 1.4235,0.0051 0.013,-4.070218 -1.4259,-0.0051"
     style="fill:#77a7fb;fill-opacity:1;fill-rule:nonzero;stroke:none"
     id="path5398"
     inkscape:connector-curvature="0" />
  <path
     d="m 1266.2432,49.137134 -0.013,4.067685 1.4234,0.0051 0.01,-4.067686 -1.4209,-0.0051"
     style="fill:#77a7fb;fill-opacity:1;fill-rule:nonzero;stroke:none"
     id="path5400"
     inkscape:connector-curvature="0" />
  <path
     d="m 1249.9699,49.094076 -0.01,4.070218 1.421,0.0025 0.013,-4.067685 -1.4234,-0.0051"
     style="fill:#77a7fb;fill-opacity:1;fill-rule:nonzero;stroke:none"
     id="path5402"
     inkscape:connector-curvature="0" />
  <path
     d="m 1233.6991,49.053551 -0.013,4.067685 1.4259,0.0051 0.01,-4.070218 -1.4209,-0.0025"
     style="fill:#77a7fb;fill-opacity:1;fill-rule:nonzero;stroke:none"
     id="path5404"
     inkscape:connector-curvature="0" />
  <path
     d="m 1217.4259,49.010494 -0.01,4.070218 1.4235,0 0.013,-4.065153 -1.4259,-0.0051"
     style="fill:#77a7fb;fill-opacity:1;fill-rule:nonzero;stroke:none"
     id="path5406"
     inkscape:connector-curvature="0" />
  <path
     d="m 1201.1551,48.969969 -0.013,4.067685 1.4259,0.0025 0.01,-4.067686 -1.4235,-0.0025"
     style="fill:#77a7fb;fill-opacity:1;fill-rule:nonzero;stroke:none"
     id="path5408"
     inkscape:connector-curvature="0" />
  <path
     d="m 1184.8819,48.926911 -0.01,4.067685 1.4234,0.0025 0.01,-4.067685 -1.4259,-0.0025"
     style="fill:#77a7fb;fill-opacity:1;fill-rule:nonzero;stroke:none"
     id="path5410"
     inkscape:connector-curvature="0" />
  <path
     d="m 1290.9633,44.864291 -0.023,8.406381 1.426,0.0025 0.023,-8.406381 -1.426,-0.0025"
     style="fill:#77a7fb;fill-opacity:1;fill-rule:nonzero;stroke:none"
     id="path5412"
     inkscape:connector-curvature="0" />
  <path
     d="m 1274.6926,44.821234 -0.02,8.40638 1.4235,0.0025 0.02,-8.40638 -1.4234,-0.0025"
     style="fill:#77a7fb;fill-opacity:1;fill-rule:nonzero;stroke:none"
     id="path5414"
     inkscape:connector-curvature="0" />
  <path
     d="m 1258.4219,44.778176 -0.023,8.406381 1.4234,0.0051 0.023,-8.40638 -1.4234,-0.0051"
     style="fill:#77a7fb;fill-opacity:1;fill-rule:nonzero;stroke:none"
     id="path5416"
     inkscape:connector-curvature="0" />
  <path
     d="m 1242.1511,44.735118 -0.023,8.406381 1.426,0.0051 0.018,-8.40638 -1.4209,-0.0051"
     style="fill:#77a7fb;fill-opacity:1;fill-rule:nonzero;stroke:none"
     id="path5418"
     inkscape:connector-curvature="0" />
  <path
     d="m 1225.8778,44.694594 -0.02,8.40638 1.4234,0.0025 0.023,-8.406381 -1.426,-0.0025"
     style="fill:#77a7fb;fill-opacity:1;fill-rule:nonzero;stroke:none"
     id="path5420"
     inkscape:connector-curvature="0" />
  <path
     d="m 1209.6071,44.651536 -0.023,8.40638 1.426,0.0051 0.023,-8.406381 -1.426,-0.0051"
     style="fill:#77a7fb;fill-opacity:1;fill-rule:nonzero;stroke:none"
     id="path5422"
     inkscape:connector-curvature="0" />
  <path
     d="m 1193.3338,44.611011 -0.018,8.40638 1.4209,0.0025 0.023,-8.40638 -1.426,-0.0025"
     style="fill:#77a7fb;fill-opacity:1;fill-rule:nonzero;stroke:none"
     id="path5424"
     inkscape:connector-curvature="0" />
  <path
     d="m 1329.5,300.50539 -52.4088,0.50149 52.5785,-53.2497 -0.1697,52.74821 z m 12.8489,-78.36246 0,-1.76537 7.8112,0 0,-20.49293 -120.944,120.94398 120.944,0 0,-7.97833 -7.8112,0 0,-1.76283 7.8112,0 0,-8.3152 -7.8112,0 0,-1.76537 7.8112,0 0,-8.31267 -7.8112,0 0,-1.76536 7.8112,0 0,-8.3152 -7.8112,0 0,-1.76283 7.8112,0 0,-8.3152 -7.8112,0 0,-1.76283 7.8112,0 0,-8.3152 -7.8112,0 0,-1.76537 7.8112,0 0,-8.31267 -7.8112,0 0,-1.76536 7.8112,0 0,-8.3152 -7.8112,0 0,-1.76283 7.8112,0 0,-8.3152 -7.8112,0 0,-1.76283 7.8112,0 0,-8.3152 -7.8112,0"
     style="fill:#a0c2ff;fill-opacity:1;fill-rule:nonzero;stroke:none"
     id="path5426"
     inkscape:connector-curvature="0" />
  <path
     d="m 1342.3489,312.85028 7.8112,0 0,-1.76283 -7.8112,0 0,1.76283"
     style="fill:#77a7fb;fill-opacity:1;fill-rule:nonzero;stroke:none"
     id="path5428"
     inkscape:connector-curvature="0" />
  <path
     d="m 1342.3489,302.77225 7.8112,0 0,-1.76537 -7.8112,0 0,1.76537"
     style="fill:#77a7fb;fill-opacity:1;fill-rule:nonzero;stroke:none"
     id="path5430"
     inkscape:connector-curvature="0" />
  <path
     d="m 1342.3489,292.69421 7.8112,0 0,-1.76536 -7.8112,0 0,1.76536"
     style="fill:#77a7fb;fill-opacity:1;fill-rule:nonzero;stroke:none"
     id="path5432"
     inkscape:connector-curvature="0" />
  <path
     d="m 1342.3489,282.61365 7.8112,0 0,-1.76283 -7.8112,0 0,1.76283"
     style="fill:#77a7fb;fill-opacity:1;fill-rule:nonzero;stroke:none"
     id="path5434"
     inkscape:connector-curvature="0" />
  <path
     d="m 1342.3489,272.53562 7.8112,0 0,-1.76283 -7.8112,0 0,1.76283"
     style="fill:#77a7fb;fill-opacity:1;fill-rule:nonzero;stroke:none"
     id="path5436"
     inkscape:connector-curvature="0" />
  <path
     d="m 1342.3489,262.45759 7.8112,0 0,-1.76537 -7.8112,0 0,1.76537"
     style="fill:#77a7fb;fill-opacity:1;fill-rule:nonzero;stroke:none"
     id="path5438"
     inkscape:connector-curvature="0" />
  <path
     d="m 1342.3489,252.37955 7.8112,0 0,-1.76536 -7.8112,0 0,1.76536"
     style="fill:#77a7fb;fill-opacity:1;fill-rule:nonzero;stroke:none"
     id="path5440"
     inkscape:connector-curvature="0" />
  <path
     d="m 1342.3489,242.29899 7.8112,0 0,-1.76283 -7.8112,0 0,1.76283"
     style="fill:#77a7fb;fill-opacity:1;fill-rule:nonzero;stroke:none"
     id="path5442"
     inkscape:connector-curvature="0" />
  <path
     d="m 1342.3489,232.22096 7.8112,0 0,-1.76283 -7.8112,0 0,1.76283"
     style="fill:#77a7fb;fill-opacity:1;fill-rule:nonzero;stroke:none"
     id="path5444"
     inkscape:connector-curvature="0" />
  <path
     d="m 1342.3489,222.14293 7.8112,0 0,-1.76537 -7.8112,0 0,1.76537"
     style="fill:#77a7fb;fill-opacity:1;fill-rule:nonzero;stroke:none"
     id="path5446"
     inkscape:connector-curvature="0" />
  <path
     d="m 1194.7446,184.81698 -7.5984,0 c -0.6991,0 -1.2664,-0.56735 -1.2664,-1.26641 0,-0.70158 0.5673,-1.2664 1.2664,-1.2664 l 7.5984,0 c 0.699,0 1.2664,0.56482 1.2664,1.2664 0,0.69906 -0.5674,1.26641 -1.2664,1.26641 z m 15.1968,0 -7.5984,0 c -0.699,0 -1.2664,-0.56735 -1.2664,-1.26641 0,-0.70158 0.5674,-1.2664 1.2664,-1.2664 l 7.5984,0 c 0.6991,0 1.2664,0.56482 1.2664,1.2664 0,0.69906 -0.5673,1.26641 -1.2664,1.26641 z m 15.1969,0 -7.5985,0 c -0.699,0 -1.2664,-0.56735 -1.2664,-1.26641 0,-0.70158 0.5674,-1.2664 1.2664,-1.2664 l 7.5985,0 c 0.699,0 1.2664,0.56482 1.2664,1.2664 0,0.69906 -0.5674,1.26641 -1.2664,1.26641 z m 15.1968,0 -7.5984,0 c -0.6991,0 -1.2664,-0.56735 -1.2664,-1.26641 0,-0.70158 0.5673,-1.2664 1.2664,-1.2664 l 7.5984,0 c 0.699,0 1.2664,0.56482 1.2664,1.2664 0,0.69906 -0.5674,1.26641 -1.2664,1.26641 z m 15.1968,0 -7.5984,0 c -0.6991,0 -1.2664,-0.56735 -1.2664,-1.26641 0,-0.70158 0.5673,-1.2664 1.2664,-1.2664 l 7.5984,0 c 0.6991,0 1.2664,0.56482 1.2664,1.2664 0,0.69906 -0.5673,1.26641 -1.2664,1.26641 z m 15.1969,0 -7.5985,0 c -0.699,0 -1.2664,-0.56735 -1.2664,-1.26641 0,-0.70158 0.5674,-1.2664 1.2664,-1.2664 l 7.5985,0 c 0.699,0 1.2664,0.56482 1.2664,1.2664 0,0.69906 -0.5674,1.26641 -1.2664,1.26641 z m 15.1968,0 -7.5984,0 c -0.6991,0 -1.2664,-0.56735 -1.2664,-1.26641 0,-0.70158 0.5673,-1.2664 1.2664,-1.2664 l 7.5984,0 c 0.699,0 1.2664,0.56482 1.2664,1.2664 0,0.69906 -0.5674,1.26641 -1.2664,1.26641 z m 15.1968,0 -7.5984,0 c -0.6991,0 -1.2664,-0.56735 -1.2664,-1.26641 0,-0.70158 0.5673,-1.2664 1.2664,-1.2664 l 7.5984,0 c 0.6991,0 1.2664,0.56482 1.2664,1.2664 0,0.69906 -0.5673,1.26641 -1.2664,1.26641 z m 15.1968,0 -7.5984,0 c -0.699,0 -1.2664,-0.56735 -1.2664,-1.26641 0,-0.70158 0.5674,-1.2664 1.2664,-1.2664 l 7.5984,0 c 0.6991,0 1.2664,0.56482 1.2664,1.2664 0,0.69906 -0.5673,1.26641 -1.2664,1.26641 z m 15.1969,0 -7.5984,0 c -0.6991,0 -1.2664,-0.56735 -1.2664,-1.26641 0,-0.70158 0.5673,-1.2664 1.2664,-1.2664 l 7.5984,0 c 0.699,0 1.2664,0.56482 1.2664,1.2664 0,0.69906 -0.5674,1.26641 -1.2664,1.26641 z m 15.1968,0 -7.5984,0 c -0.6991,0 -1.2664,-0.56735 -1.2664,-1.26641 0,-0.70158 0.5673,-1.2664 1.2664,-1.2664 l 7.5984,0 c 0.6991,0 1.2664,0.56482 1.2664,1.2664 0,0.69906 -0.5673,1.26641 -1.2664,1.26641 z m 15.1968,0 -7.5984,0 c -0.699,0 -1.2664,-0.56735 -1.2664,-1.26641 0,-0.70158 0.5674,-1.2664 1.2664,-1.2664 l 7.5984,0 c 0.6991,0 1.2664,0.56482 1.2664,1.2664 0,0.69906 -0.5673,1.26641 -1.2664,1.26641 z m 15.1969,0 -7.5984,0 c -0.6991,0 -1.2664,-0.56735 -1.2664,-1.26641 0,-0.70158 0.5673,-1.2664 1.2664,-1.2664 l 7.5984,0 c 0.699,0 1.2664,0.56482 1.2664,1.2664 0,0.69906 -0.5674,1.26641 -1.2664,1.26641 z m 14.67,0 -7.0716,0 c -0.6991,0 -1.2664,-0.56735 -1.2664,-1.26641 0,-0.70158 0.5673,-1.2664 1.2664,-1.2664 l 7.0716,0 c 0.699,0 1.2664,0.56482 1.2664,1.2664 0,0.69906 -0.5674,1.26641 -1.2664,1.26641"
     style="fill:#a0c2ff;fill-opacity:1;fill-rule:nonzero;stroke:none"
     id="path5448"
     inkscape:connector-curvature="0" />
  <path
     d="m 1288.4153,11.177982 c -5.1213,0 -9.2776,-4.1538002 -9.2776,-9.2776651 0,-5.1213322 4.1563,-9.2751327 9.2776,-9.2751327 5.1239,0 9.2777,4.1538005 9.2777,9.2751327 0,5.1238649 -4.1538,9.2776651 -9.2777,9.2776651 z m 9.84,1.284133 c 0.9093,-0.909278 2.5024,-0.86622 4.0727,-0.06839 0.076,0.03799 0.152,0.09371 0.228,0.136771 1.5045,-1.99585 2.6138,-4.3108342 3.1635,-6.8411066 -0.1875,-0.048123 -0.3825,-0.078517 -0.5598,-0.1367714 -1.6716,-0.5445532 -2.8291,-1.6463234 -2.8291,-2.9279229 0,-1.2841322 1.1575,-2.38590246 2.8291,-2.93045558 0.2533,-0.0810498 0.5319,-0.13930428 0.8029,-0.195026 -0.3571,-2.64678142 -1.3297,-5.08840562 -2.7228,-7.22862602 -0.1393,0.096247 -0.276,0.1975588 -0.4204,0.2836742 -0.1646,0.1013122 -0.3267,0.2152884 -0.4914,0.298871 -1.5703,0.7978336 -3.1634,0.8383585 -4.0727,-0.068386 -0.9068,-0.9067442 -0.8688,-2.5049443 -0.071,-4.0727509 0.1215,-0.238084 0.276,-0.473634 0.4305,-0.706652 0.081,-0.121575 0.1951,-0.233019 0.2812,-0.357126 -2.1073,-1.55261 -4.5616,-2.669577 -7.2413,-3.166007 -0.2812,2.403633 -1.621,4.227252 -3.2395,4.227252 -1.6159,0 -2.9583,-1.823619 -3.2369,-4.227252 -2.6696,0.493898 -5.1087,1.603266 -7.2134,3.148277 0.091,0.121575 0.1773,0.245682 0.2609,0.36979 0.1089,0.164632 0.1646,0.331797 0.2608,0.498963 0.9118,1.6361917 1.041,3.335704 0.091,4.2855059 -0.9219,0.9194083 -2.548,0.8358258 -4.1361,0.00507 -0.1494,-0.078517 -0.2963,-0.1215746 -0.4432,-0.2127556 -0.1418,-0.088648 -0.2761,-0.1924932 -0.4154,-0.2912726 -1.3854,2.1351548 -2.3555,4.5666478 -2.7126,7.203298 2.0972,0.41791286 3.6295,1.6539218 3.6295,3.1356128 0,1.4209038 -1.4082,2.626519 -3.3838,3.0900224 0.5572,2.5277396 1.6691,4.8427235 3.1761,6.8411065 1.6362,-0.914342 3.3357,-1.043515 4.2855,-0.09371 0.9194,0.919408 0.8384,2.548002 0.01,4.13607 2.044,1.370248 4.3741,2.347911 6.9044,2.770889 0.5446,-1.674184 1.6463,-2.831676 2.9279,-2.831676 1.2842,0 2.3859,1.157492 2.9305,2.831676 2.5201,-0.420445 4.8452,-1.395575 6.8841,-2.760757 -0.013,-0.02533 -0.03,-0.04812 -0.045,-0.07345 -0.7979,-1.567806 -0.8359,-3.166006 0.071,-4.07275"
     style="fill:#ffffff;fill-opacity:1;fill-rule:nonzero;stroke:none"
     id="path5450"
     inkscape:connector-curvature="0" />
  <path
     d="m 1043.0118,310.88735 c -5.1238,0 -9.2751,-4.1538 -9.2751,-9.27513 0,-5.12386 4.1513,-9.27766 9.2751,-9.27766 5.1214,0 9.2752,4.1538 9.2752,9.27766 0,5.12133 -4.1538,9.27513 -9.2752,9.27513 z m 9.84,1.28414 c 0.9067,-0.90675 2.5024,-0.86876 4.0702,-0.0709 0.076,0.0405 0.1545,0.0937 0.228,0.1393 1.507,-1.99838 2.6138,-4.31336 3.166,-6.8411 -0.1875,-0.0456 -0.385,-0.0811 -0.5623,-0.13678 -1.6717,-0.54708 -2.8292,-1.64632 -2.8292,-2.93045 0,-1.28413 1.1575,-2.38337 2.8292,-2.92792 0.2558,-0.0836 0.5319,-0.13931 0.8054,-0.19756 -0.3597,-2.64425 -1.3322,-5.08588 -2.7253,-7.2261 -0.1368,0.0962 -0.2761,0.19756 -0.4204,0.28368 -0.1621,0.0988 -0.3268,0.21529 -0.4914,0.29887 -1.5678,0.79783 -3.1635,0.83836 -4.0702,-0.0684 -0.9093,-0.90674 -0.8688,-2.50494 -0.073,-4.07275 0.1216,-0.23808 0.2786,-0.4711 0.4306,-0.70665 0.081,-0.12411 0.195,-0.23302 0.2811,-0.35459 -2.1072,-1.55515 -4.559,-2.67211 -7.2412,-3.16854 -0.2786,2.40363 -1.621,4.22725 -3.237,4.22725 -1.6184,0 -2.9583,-1.82362 -3.2394,-4.22725 -2.6671,0.49389 -5.1087,1.60326 -7.2109,3.14574 0.089,0.12411 0.1747,0.24822 0.2583,0.37232 0.1089,0.16464 0.1672,0.3318 0.2609,0.49897 0.9118,1.63619 1.041,3.3357 0.091,4.2855 -0.9194,0.91941 -2.548,0.83836 -4.1361,0.003 -0.1469,-0.076 -0.2963,-0.11905 -0.4432,-0.21276 -0.1393,-0.0861 -0.2761,-0.18996 -0.4154,-0.28874 -1.3855,2.13516 -2.353,4.56412 -2.7126,7.2033 2.0997,0.41791 3.632,1.65392 3.632,3.13308 0,1.42343 -1.4108,2.62905 -3.3838,3.09002 0.5547,2.53027 1.6666,4.84526 3.1761,6.84111 1.6337,-0.91435 3.3332,-1.04099 4.283,-0.0912 0.9194,0.9194 0.8383,2.54547 0.01,4.13607 2.0465,1.37025 4.3766,2.34791 6.9069,2.76835 0.542,-1.67165 1.6438,-2.82914 2.9279,-2.82914 1.2842,0 2.3834,1.15749 2.928,2.82914 2.5201,-0.41791 4.8452,-1.39304 6.8867,-2.75822 -0.015,-0.0253 -0.033,-0.0481 -0.048,-0.076 -0.7953,-1.56527 -0.8358,-3.16347 0.073,-4.07021"
     style="fill:#ffffff;fill-opacity:1;fill-rule:nonzero;stroke:none"
     id="path5452"
     inkscape:connector-curvature="0" />
  <path
     d="m 1012.912,269.98508 c -6.6993,0 -12.1271,-5.4278 -12.1271,-12.12454 0,-6.69926 5.4278,-12.12707 12.1271,-12.12707 6.6992,0 12.127,5.42781 12.127,12.12707 0,6.69674 -5.4278,12.12454 -12.127,12.12454 z m 12.8616,1.67925 c 1.1878,-1.18535 3.2749,-1.13216 5.3239,-0.0912 0.1013,0.0507 0.2001,0.12411 0.2989,0.18236 1.968,-2.61132 3.4142,-5.63802 4.1386,-8.94586 -0.2457,-0.0608 -0.504,-0.10385 -0.732,-0.17983 -2.1883,-0.71172 -3.7004,-2.15035 -3.7004,-3.82707 0,-1.67672 1.5121,-3.11535 3.7004,-3.82707 0.3293,-0.10891 0.6915,-0.18236 1.0511,-0.25835 -0.4711,-3.45981 -1.7425,-6.65114 -3.5636,-9.44736 -0.1824,0.12411 -0.3622,0.25835 -0.5471,0.36979 -0.2153,0.13171 -0.4281,0.28114 -0.6459,0.39258 -2.049,1.04099 -4.1361,1.09418 -5.3239,-0.0912 -1.1854,-1.18788 -1.1322,-3.27491 -0.091,-5.32395 0.157,-0.31154 0.3622,-0.61801 0.5648,-0.92448 0.1038,-0.15956 0.2533,-0.30647 0.3673,-0.4635 -2.7583,-2.03384 -5.9648,-3.49274 -9.4677,-4.14114 -0.3698,3.14068 -2.1199,5.52658 -4.2348,5.52658 -2.1149,0 -3.8651,-2.3859 -4.2323,-5.52658 -3.4877,0.64587 -6.6816,2.09717 -9.42967,4.11328 0.1165,0.15957 0.23048,0.32167 0.33939,0.48376 0.14437,0.21529 0.21782,0.43565 0.3394,0.65347 1.19548,2.13769 1.36268,4.35896 0.12158,5.60256 -1.20309,1.20309 -3.33065,1.09418 -5.40755,0.005 -0.19249,-0.10131 -0.38498,-0.15957 -0.57748,-0.27861 -0.18489,-0.11398 -0.36219,-0.25075 -0.54202,-0.37992 -1.81349,2.79115 -3.07736,5.96982 -3.55099,9.4195 2.74556,0.54202 4.74901,2.16049 4.74901,4.09555 0,1.86161 -1.84388,3.43701 -4.42481,4.03982 0.72691,3.30785 2.18074,6.33202 4.15127,8.94334 2.14022,-1.19549 4.36149,-1.36265 5.60257,-0.12158 1.2031,1.20309 1.0942,3.33064 0.01,5.40754 2.6696,1.7907 5.7191,3.06976 9.0244,3.61938 0.7142,-2.18581 2.1529,-3.70043 3.8296,-3.70043 1.6792,0 3.1153,1.51462 3.8296,3.70043 3.2952,-0.54709 6.3345,-1.82109 8.999,-3.60418 -0.015,-0.0329 -0.041,-0.0658 -0.058,-0.0988 -1.041,-2.04904 -1.0942,-4.13607 0.091,-5.32396"
     style="fill:#ffffff;fill-opacity:1;fill-rule:nonzero;stroke:none"
     id="path5454"
     inkscape:connector-curvature="0" />
  <path
     d="m 1361.4361,233.4443 -125.2143,0 0,-162.190711 125.2143,0 0,162.190711"
     style="fill:#e6e6e6;fill-opacity:1;fill-rule:nonzero;stroke:none"
     id="path5456"
     inkscape:connector-curvature="0" />
  <path
     d="m 1237.4831,232.18297 122.6891,0 0,-159.665511 -122.6891,0 0,159.665511 z m 125.2118,2.52267 -127.7319,0 0,-164.710855 127.7319,0 0,164.710855"
     style="fill:#808080;fill-opacity:1;fill-rule:nonzero;stroke:none"
     id="path5458"
     inkscape:connector-curvature="0" />
  <path
     d="m 1251.5579,219.36697 96.2213,0 0,-102.94333 -96.2213,0 0,102.94333 z m 97.4827,1.26134 -98.7415,0 0,-105.46348 98.7415,0 0,105.46348"
     style="fill:#808080;fill-opacity:1;fill-rule:nonzero;stroke:none"
     id="path5460"
     inkscape:connector-curvature="0" />
  <path
     d="m 1270.1487,203.32165 63.9736,0 0,-68.06914 -63.9736,0 0,68.06914 z m 66.4938,2.52267 -69.0139,0 0,-73.11195 69.0139,0 0,73.11195"
     style="fill:#808080;fill-opacity:1;fill-rule:nonzero;stroke:none"
     id="path5470"
     inkscape:connector-curvature="0" />
  <path
     d="m 1292.5235,175.2759 42.2295,0 0,-40.65406 -42.2295,0 0,40.65406 z m 43.4908,1.26134 -44.7496,0 0,-43.1742 44.7496,0 0,43.1742"
     style="fill:#808080;fill-opacity:1;fill-rule:nonzero;stroke:none"
     id="path5472"
     inkscape:connector-curvature="0" />
  <path
     d="m 1335.8041,194.15796 -67.2308,0 0,-1.26134 67.2308,0 0,1.26134"
     style="fill:#808080;fill-opacity:1;fill-rule:nonzero;stroke:none"
     id="path5474"
     inkscape:connector-curvature="0" />
  <path
     d="m 1198.2804,190.80199 -1.4285,-17.87653 -17.1015,1.4133 -17.8183,-1.65139 -1.431,17.87654 c 0,0 6.4409,8.28734 19.072,8.44691 l 0,0.0152 c 0.061,0 0.1165,-0.008 0.1773,-0.008 0.063,0 0.1165,0.008 0.1773,0.008 l 0,-0.0152 c 12.6311,-0.15957 18.3527,-8.20883 18.3527,-8.20883"
     style="fill:#f4b073;fill-opacity:1;fill-rule:nonzero;stroke:none"
     id="path5476"
     inkscape:connector-curvature="0" />
  <path
     d="m 1152.2998,130.85556 c -4.3513,-1.21828 -8.1834,-3.88279 -9.9513,-5.24291 0,0.0583 0,0.10891 0,0.16717 -1.5349,-0.57495 -3.4877,-0.51669 -4.9997,2.21367 -2.4999,4.52866 0,13.34788 3.3382,16.09091 1.545,1.26894 2.9735,2.16555 4.0778,2.77849 1.6717,8.19109 4.3843,15.87562 8.7737,20.57904 11.238,12.04096 21.4832,14.61176 24.4517,15.12845 0.5546,0.0962 1.274,0.10638 1.274,0.10638 0,0 1.8742,-0.83836 2.087,-0.86622 l 1.1271,-48.293 c -0.079,0.005 -24.2238,-0.99539 -30.1835,-2.66198"
     style="fill:#fbd099;fill-opacity:1;fill-rule:nonzero;stroke:none"
     id="path5478"
     inkscape:connector-curvature="0" />
  <path
     d="m 1221.4302,128.35315 c -1.7603,-3.18627 -4.1259,-2.7405 -5.7292,-1.88947 0,-0.0101 0,-0.0203 0,-0.0304 0.1443,-2.94312 0.2026,-5.60003 0.2228,-7.88715 -8.0289,0.65093 -26.3791,2.09463 -36.6902,2.58346 -3.708,0.17476 -6.3801,0.22542 -7.1501,0.0709 -3.1711,-0.6332 -24.8696,-3.41929 -29.9099,-4.20952 -0.01,2.35804 0.03,5.29609 0.1723,8.62166 1.7679,1.36012 6.5194,5.15426 10.7998,6.60049 10.1642,3.42942 18.839,4.60464 26.0879,4.59958 l 0,45.84124 c 2.0187,-0.26341 13.2061,-2.26433 25.2876,-15.21203 4.2247,-4.52612 6.9069,-11.85099 8.5988,-19.74575 1.1449,-0.56988 2.9659,-1.6058 4.9719,-3.25465 3.3357,-2.74303 5.8381,-11.55973 3.3357,-16.08838"
     style="fill:#f9c38a;fill-opacity:1;fill-rule:nonzero;stroke:none"
     id="path5480"
     inkscape:connector-curvature="0" />
  <path
     d="m 1142.8221,131.314 1.0739,8.70018 c 0,0 -3.0394,-1.60833 -3.5763,-5.66082 -0.3217,-2.43402 0.5369,-3.9917 2.5024,-3.03936"
     style="fill:#f4b073;fill-opacity:1;fill-rule:nonzero;stroke:none"
     id="path5482"
     inkscape:connector-curvature="0" />
  <path
     d="m 1216.1468,131.08858 -1.0739,8.69765 c 0,0 3.0419,-1.60833 3.5763,-5.66082 0.3217,-2.43402 -0.5344,-3.9917 -2.5024,-3.03683"
     style="fill:#f4b073;fill-opacity:1;fill-rule:nonzero;stroke:none"
     id="path5484"
     inkscape:connector-curvature="0" />
  <path
     d="m 1143.159,133.73536 c 2.13,0.076 5.8558,-4.71862 5.7038,-10.27052 -0.1519,-5.53418 2.4594,-4.43748 2.4594,-4.43748 l -10.5492,-0.40525 c 0,0 0.025,11.91685 2.386,15.11325"
     style="fill:#666666;fill-opacity:1;fill-rule:nonzero;stroke:none"
     id="path5486"
     inkscape:connector-curvature="0" />
  <path
     d="m 1215.7314,134.14061 c -2.1301,0.076 -6.6157,-4.92124 -6.4662,-10.47315 0.1519,-5.53418 -2.4569,-4.43748 -2.4569,-4.43748 l 10.5492,-0.40524 c 0,0 0.504,13.59103 -1.6261,15.31587"
     style="fill:#666666;fill-opacity:1;fill-rule:nonzero;stroke:none"
     id="path5488"
     inkscape:connector-curvature="0" />
  <path
     d="m 1199.6177,107.97167 c -6.061,-3.92079 -11.8839,-5.24291 -12.626,-36.315365 -0.8966,-0.05066 -1.8262,-0.09118 -2.8038,-0.116509 -1.3222,-0.03546 -7.9961,-0.03039 -9.5639,0.0228 -1.236,0.03799 -2.3884,0.108911 -3.5029,0.192493 -0.7522,30.973676 -6.5701,32.298336 -12.6235,36.216586 -7.1754,4.64263 -15.9693,-0.11905 -15.9693,-0.11905 l -0.3318,-0.27101 c 0.1216,2.84434 0.4255,4.68063 0.4255,4.68063 0,0 1.6083,3.39649 10.3693,8.93827 7.7706,4.91871 23.3575,3.46741 26.8199,3.11535 3.4598,0.35206 17.874,1.892 25.6472,-3.02417 8.7584,-5.54178 10.3693,-8.93827 10.3693,-8.93827 0,0 0.3267,-1.99838 0.4381,-5.05295 l -0.6762,0.55215 c 0,0 -8.7965,4.76168 -15.9719,0.11905"
     style="fill:#f79839;fill-opacity:1;fill-rule:nonzero;stroke:none"
     id="path5490"
     inkscape:connector-curvature="0" />
  <path
     d="m 1210.4632,83.927746 c -5.6532,-7.947943 -10.4529,-11.516665 -23.4715,-12.271441 0.7421,31.072455 6.565,32.394575 12.626,36.315365 7.1754,4.64263 15.9719,-0.11905 15.9719,-0.11905 l 0.6762,-0.55215 c 0.2153,-5.8837 -0.39,-15.76671 -5.8026,-23.372724"
     style="fill:#e87e04;fill-opacity:1;fill-rule:nonzero;stroke:none"
     id="path5492"
     inkscape:connector-curvature="0" />
  <path
     d="m 1216.0354,110.11695 c -2.1428,3.2192 -4.4679,6.61569 -10.7265,8.40132 -14.7814,4.22472 -37.3867,4.22472 -52.1707,0 -6.256,-1.78563 -8.5786,-5.18212 -10.7239,-8.40132 -1.2512,0.17983 -4.055,0.11904 -4.055,0.11904 l 0.1216,12.21572 10.5466,1.78816 c 0,0 4.4628,6.16992 24.3478,7.03107 1.6514,0.0735 9.7539,0.0583 11.7421,-0.0582 18.915,-1.1195 24.3048,-6.97282 24.3048,-6.97282 l 10.5466,-1.78816 0.119,-12.21572 c 0,0 -2.8012,0.0608 -4.0524,-0.11904"
     style="fill:#e87e04;fill-opacity:1;fill-rule:nonzero;stroke:none"
     id="path5494"
     inkscape:connector-curvature="0" />
  <path
     d="m 1183.6458,171.61346 -9.2979,0 c -0.7877,0 -1.4285,-0.6408 -1.4285,-1.43103 0,-0.79024 0.6408,-1.4285 1.4285,-1.4285 l 9.2979,0 c 0.7903,0 1.4311,0.63826 1.4311,1.4285 0,0.79023 -0.6408,1.43103 -1.4311,1.43103"
     style="fill:#e89958;fill-opacity:1;fill-rule:nonzero;stroke:none"
     id="path5496"
     inkscape:connector-curvature="0" />
  <path
     d="m 1165.0373,72.530123 c 0.1267,4.227252 0.1469,12.284105 -1.1372,18.704766 -0.7244,3.619379 -2.7658,2.563199 -3.3458,0.91181 -1.6033,-4.54132 -2.4645,-13.337752 -2.548,-17.377577 -4.0703,1.962924 -7.0539,4.900979 -10.0224,9.069976 -5.524,7.763048 -6.0407,17.909462 -5.7874,23.742512 l 0.3318,0.27101 c 0,0 8.7939,4.76168 15.9693,0.11905 6.0534,-3.91825 11.8687,-5.24291 12.6235,-36.216586 -2.2415,0.167165 -4.2526,0.422979 -6.0838,0.775039"
     style="fill:#e87e04;fill-opacity:1;fill-rule:nonzero;stroke:none"
     id="path5498"
     inkscape:connector-curvature="0" />
  <path
     d="m 1163.9001,91.234889 c 1.2841,-6.420661 1.2639,-14.477514 1.1372,-18.704766 -2.705,0.521758 -5.0023,1.261337 -7.031,2.238999 0.083,4.039825 0.9447,12.836257 2.548,17.377577 0.58,1.651389 2.6214,2.707569 3.3458,-0.91181"
     style="fill:#f79839;fill-opacity:1;fill-rule:nonzero;stroke:none"
     id="path5500"
     inkscape:connector-curvature="0" />
  <path
     d="m 1195.2106,91.234889 c -1.2841,-6.420661 -1.2638,-14.477514 -1.1397,-18.704766 2.7075,0.521758 5.0048,1.261337 7.0336,2.238999 -0.084,4.039825 -0.9448,12.836257 -2.548,17.377577 -0.5826,1.651389 -2.6215,2.707569 -3.3459,-0.91181"
     style="fill:#f79839;fill-opacity:1;fill-rule:nonzero;stroke:none"
     id="path5502"
     inkscape:connector-curvature="0" />
  <path
     d="m 1122.9826,246.17418 -12.8717,-37.89836 c -3.5738,25.7409 5.0074,38.96974 5.0074,38.96974 l -3.1711,87.51348 c 3.2344,1.45383 6.5093,2.82915 9.8501,4.07782 0.2558,-20.09021 1.1853,-92.66268 1.1853,-92.66268"
     style="fill:#b2b2b2;fill-opacity:1;fill-rule:nonzero;stroke:none"
     id="path5504"
     inkscape:connector-curvature="0" />
  <path
     d="m 1164.4573,211.13535 c 0,0 -6.7955,-10.192 -8.9383,-21.63268 0.01,-0.0228 0.028,-0.0532 0.033,-0.0785 -3.123,1.02578 -11.1039,3.65737 -19.2772,6.46372 -5.02,1.72737 -10.0983,3.513 -14.1533,5.02762 -2.4214,0.90674 -4.4806,1.7147 -5.9344,2.35297 -8.9357,3.93345 -17.5194,7.86689 -17.874,20.02183 -0.3419,11.63824 -3.1711,95.47915 -3.4142,102.6014 5.481,3.27999 11.1773,6.22817 17.0483,8.86735 l 3.1711,-87.51348 c 0,0 -8.5812,-13.22884 -5.0074,-38.96974 l 12.8717,37.89836 c 0,0 -0.9295,72.57247 -1.1853,92.66268 0.8409,0.31407 1.6868,0.61547 2.5353,0.91688 17.1395,6.08633 35.5682,9.43976 54.7821,9.49548 l 0,-109.11325 0,-44.2785 c -5.1543,6.10153 -14.6574,15.27788 -14.6574,15.27788"
     style="fill:#cccccc;fill-opacity:1;fill-rule:nonzero;stroke:none"
     id="path5506"
     inkscape:connector-curvature="0" />
  <path
     d="m 1193.8227,211.13535 c 0,0 6.7929,-10.192 8.9382,-21.63268 -0,-0.0228 -0.028,-0.0532 -0.035,-0.0785 3.1254,1.02578 11.1063,3.65737 19.2797,6.46372 5.02,1.72737 10.0983,3.513 14.1533,5.02762 2.4214,0.90674 4.4805,1.7147 5.9318,2.35297 8.9383,3.93345 17.5194,7.86689 17.8766,20.02183 0.3444,11.63824 3.171,95.47915 3.4142,102.6014 -5.481,3.27999 -11.1773,6.22817 -17.0483,8.86735 l -3.1711,-87.51348 c 0,0 8.5837,-13.22884 5.0074,-38.96974 l -12.8718,37.89836 c 0,0 0.9321,72.57247 1.1854,92.66268 -0.8434,0.31407 -1.6869,0.61547 -2.5353,0.91688 -17.1395,6.08633 -35.5682,9.43976 -54.7821,9.49548 l 0,-109.11325 0,-44.2785 c 5.1543,6.10153 14.6574,15.27788 14.6574,15.27788"
     style="fill:#b2b2b2;fill-opacity:1;fill-rule:nonzero;stroke:none"
     id="path5508"
     inkscape:connector-curvature="0" />
  <path
     d="m 1179.3173,195.48768 -8.5178,7.62628 3.4978,10.95438 5.02,0 0,-18.58066"
     style="fill:#e57368;fill-opacity:1;fill-rule:nonzero;stroke:none"
     id="path5510"
     inkscape:connector-curvature="0" />
  <path
     d="m 1179.2438,195.48768 8.5179,7.62628 -3.5004,10.95438 -5.0175,0 0,-18.58066"
     style="fill:#d85c56;fill-opacity:1;fill-rule:nonzero;stroke:none"
     id="path5512"
     inkscape:connector-curvature="0" />
  <path
     d="m 1202.7305,189.42415 c -0.4837,-1.87681 -5.0023,-5.36702 -5.0023,-5.36702 0,0 -5.0909,6.95002 -18.7959,11.0709 -0,0 -0.01,0 -0.01,-0.003 l 0,0.46351 c 0,-0.003 0.01,-0.005 0.01,-0.008 5.0985,6.09646 14.8954,15.55395 14.8954,15.55395 0,0 6.793,-10.192 8.9383,-21.63268 -0.01,-0.0228 -0.03,-0.0532 -0.036,-0.0785"
     style="fill:#cccccc;fill-opacity:1;fill-rule:nonzero;stroke:none"
     id="path5514"
     inkscape:connector-curvature="0" />
  <path
     d="m 1179.2134,195.08497 c -5.3974,-1.6134 -18.3324,-10.94425 -18.3324,-10.94425 0,0 -4.8453,3.40662 -5.329,5.28343 -0.01,0.0253 -0.028,0.0557 -0.033,0.0785 2.1428,11.44068 8.9383,21.63268 8.9383,21.63268 0,0 9.5639,-9.05477 14.7561,-15.15883 l 0,-0.89155"
     style="fill:#e6e6e6;fill-opacity:1;fill-rule:nonzero;stroke:none"
     id="path5516"
     inkscape:connector-curvature="0" />
  <path
     d="m 1235.2973,246.17418 12.8718,-37.89836 c 3.5763,25.7409 -5.0074,38.96974 -5.0074,38.96974 l 3.1711,87.51348 c -3.2319,1.45383 -6.5093,2.82915 -9.8501,4.07782 -0.2533,-20.09021 -1.1854,-92.66268 -1.1854,-92.66268"
     style="fill:#999999;fill-opacity:1;fill-rule:nonzero;stroke:none"
     id="path5518"
     inkscape:connector-curvature="0" />
  <path
     d="m 1179.3173,338.73555 -0.035,0.0481 0.035,0.0456 0,-0.0937 z"
     style="fill:#e57368;fill-opacity:1;fill-rule:nonzero;stroke:none"
     id="path5520"
     inkscape:connector-curvature="0" />
  <path
     d="m 1179.2438,338.82926 0.038,-0.0456 -0.038,-0.0481 0,0.0937 z"
     style="fill:#e2421e;fill-opacity:1;fill-rule:nonzero;stroke:none"
     id="path5522"
     inkscape:connector-curvature="0" />
  <path
     d="m 1179.3173,220.05336 -0.073,0 0,118.68219 0.038,0.0481 0.035,-0.0481 0,-118.68219"
     style="fill:#e2421e;fill-opacity:1;fill-rule:nonzero;stroke:none"
     id="path5524"
     inkscape:connector-curvature="0" />
  <path
     d="m 1174.1453,213.3085 -0.9523,6.74486 -13.3479,94.73705 19.3987,23.94514 0,-118.68219 0,-6.59289 0.038,-0.003 -5.1365,-0.14944"
     style="fill:#d85c56;fill-opacity:1;fill-rule:nonzero;stroke:none"
     id="path5526"
     inkscape:connector-curvature="0" />
  <path
     d="m 1179.3173,338.73555 19.3987,-23.94514 -13.3504,-94.73705 -0.9498,-6.74486 -5.134,0.14944 0.035,0.003 0,6.59289 0,118.68219"
     style="fill:#dc4437;fill-opacity:1;fill-rule:nonzero;stroke:none"
     id="path5528"
     inkscape:connector-curvature="0" />
  <path
     d="m 1179.2818,213.45794 -0.038,0.003 0,6.59289 0.073,0 0,-6.59289 -0.035,-0.003"
     style="fill:#e2421e;fill-opacity:1;fill-rule:nonzero;stroke:none"
     id="path5530"
     inkscape:connector-curvature="0" />
  <path
     d="m 1065.8045,189.36589 c 0,2.32259 -1.7603,4.20699 -3.9309,4.20953 -2.1706,0 -3.9334,-1.88441 -3.9334,-4.20953 -0,-2.32258 1.7603,-4.20699 3.9309,-4.20952 2.1706,0 3.9334,1.88441 3.9334,4.20952 z m -16.8127,3.50794 4.0702,-0.003 0,1.42343 -4.0702,0.003 0,7.01587 8.4064,0 0,1.42343 -8.4064,0 0,6.408 4.0676,0 0,1.42344 -4.0702,0 0,7.0184 8.4064,-0.003 0,1.42343 -8.4064,0.003 0,6.40799 4.0652,-0.003 0,1.42344 -4.0652,0.003 0,7.01587 8.4063,-0.003 0,1.42597 -8.4063,0 0,6.40799 4.0651,-0.003 0,1.42344 -4.0651,0.003 0,7.01587 8.4039,-0.003 0,1.42343 -8.4064,0.003 0,6.40799 4.0677,0 0,1.42344 -4.0652,0 0,7.0184 8.4064,-0.003 0,1.42344 -8.4038,0.003 0,6.408 4.0677,-0.003 0,1.42344 -4.0652,0.003 0,7.01587 8.4064,-0.003 0,1.42597 -8.4039,0 0,6.408 4.0677,-0.003 0,1.42343 -4.0677,0.003 0,7.01588 8.4064,-0.003 0,1.42597 -8.4064,0 0,6.408 4.0677,0 0,1.42344 -4.0677,0 0,7.0184 8.4064,-0.003 0,1.42343 -8.4064,0.003 0,6.40546 4.0677,0 0,1.42344 -4.0677,0.003 0,6.98294 25.7637,-0.008 -0.046,-153.24231 -25.7637,0.008 0.01,14.66241"
     style="fill:#fbcb43;fill-opacity:1;fill-rule:nonzero;stroke:none"
     id="path5532"
     inkscape:connector-curvature="0" />
  <path
     d="m 1057.2614,315.20072 -8.4089,-0.0228 -0.01,1.42343 8.4089,0.0228 0.01,-1.42344"
     style="fill:#f5b400;fill-opacity:1;fill-rule:nonzero;stroke:none"
     id="path5534"
     inkscape:connector-curvature="0" />
  <path
     d="m 1052.8999,323.01949 -4.0651,-0.0101 -0.01,1.42344 4.0677,0.0101 0,-1.42344"
     style="fill:#f5b400;fill-opacity:1;fill-rule:nonzero;stroke:none"
     id="path5536"
     inkscape:connector-curvature="0" />
  <path
     d="m 1052.943,306.74875 -4.0677,-0.0101 -0.01,1.42344 4.0702,0.0101 0,-1.42344"
     style="fill:#f5b400;fill-opacity:1;fill-rule:nonzero;stroke:none"
     id="path5538"
     inkscape:connector-curvature="0" />
  <path
     d="m 1052.9835,290.47801 -4.0652,-0.0127 -0.01,1.42343 4.0677,0.0127 0,-1.42344"
     style="fill:#f5b400;fill-opacity:1;fill-rule:nonzero;stroke:none"
     id="path5540"
     inkscape:connector-curvature="0" />
  <path
     d="m 1053.0265,274.20474 -4.0676,-0.0101 -0.01,1.42343 4.0702,0.0101 0,-1.42343"
     style="fill:#f5b400;fill-opacity:1;fill-rule:nonzero;stroke:none"
     id="path5542"
     inkscape:connector-curvature="0" />
  <path
     d="m 1053.0671,257.934 -4.0652,-0.0101 -0,1.42344 4.0702,0.0101 0,-1.42343"
     style="fill:#f5b400;fill-opacity:1;fill-rule:nonzero;stroke:none"
     id="path5544"
     inkscape:connector-curvature="0" />
  <path
     d="m 1053.1127,241.66326 -4.0677,-0.0127 -0.01,1.42344 4.0677,0.0127 0.01,-1.42343"
     style="fill:#f5b400;fill-opacity:1;fill-rule:nonzero;stroke:none"
     id="path5546"
     inkscape:connector-curvature="0" />
  <path
     d="m 1053.1557,225.38998 -4.0702,-0.0101 -0.01,1.42344 4.0703,0.0101 0.01,-1.42344"
     style="fill:#f5b400;fill-opacity:1;fill-rule:nonzero;stroke:none"
     id="path5548"
     inkscape:connector-curvature="0" />
  <path
     d="m 1053.1962,209.11924 -4.0676,-0.0101 -0.01,1.42344 4.0677,0.0101 0.01,-1.42344"
     style="fill:#f5b400;fill-opacity:1;fill-rule:nonzero;stroke:none"
     id="path5550"
     inkscape:connector-curvature="0" />
  <path
     d="m 1053.2393,192.8485 -4.0702,-0.0127 -0,1.42343 4.0676,0.0127 0.01,-1.42344"
     style="fill:#f5b400;fill-opacity:1;fill-rule:nonzero;stroke:none"
     id="path5552"
     inkscape:connector-curvature="0" />
  <path
     d="m 1057.3019,298.92998 -8.4064,-0.0228 -0.01,1.42343 8.4064,0.0228 0,-1.42344"
     style="fill:#f5b400;fill-opacity:1;fill-rule:nonzero;stroke:none"
     id="path5554"
     inkscape:connector-curvature="0" />
  <path
     d="m 1057.345,282.65671 -8.4064,-0.0228 -0.01,1.42344 8.4064,0.0228 0.01,-1.42343"
     style="fill:#f5b400;fill-opacity:1;fill-rule:nonzero;stroke:none"
     id="path5556"
     inkscape:connector-curvature="0" />
  <path
     d="m 1057.388,266.38597 -8.4089,-0.0228 -0,1.42344 8.4064,0.0228 0,-1.42343"
     style="fill:#f5b400;fill-opacity:1;fill-rule:nonzero;stroke:none"
     id="path5558"
     inkscape:connector-curvature="0" />
  <path
     d="m 1057.4286,250.11523 -8.4064,-0.0228 -0,1.42344 8.4039,0.0228 0.01,-1.42343"
     style="fill:#f5b400;fill-opacity:1;fill-rule:nonzero;stroke:none"
     id="path5560"
     inkscape:connector-curvature="0" />
  <path
     d="m 1057.4716,233.84195 -8.4089,-0.0228 -0,1.42343 8.4064,0.0228 0.01,-1.42344"
     style="fill:#f5b400;fill-opacity:1;fill-rule:nonzero;stroke:none"
     id="path5562"
     inkscape:connector-curvature="0" />
  <path
     d="m 1057.5121,217.57121 -8.4063,-0.0228 -0,1.42343 8.4064,0.0228 0,-1.42344"
     style="fill:#f5b400;fill-opacity:1;fill-rule:nonzero;stroke:none"
     id="path5564"
     inkscape:connector-curvature="0" />
  <path
     d="m 1057.5552,201.30047 -8.4064,-0.0228 -0,1.42343 8.4038,0.0228 0.01,-1.42344"
     style="fill:#f5b400;fill-opacity:1;fill-rule:nonzero;stroke:none"
     id="path5566"
     inkscape:connector-curvature="0" />
  <path
     d="m 1105.2049,78.000982 0,-4.019562 c 0,-1.737504 -1.5425,-6.944952 -6.6866,-6.944952 l -7.4592,0 0,10.964514 14.1458,0"
     style="fill:#ffffff;fill-opacity:1;fill-rule:nonzero;stroke:none"
     id="path5568"
     inkscape:connector-curvature="0" />
  <path
     d="m 1047.5886,63.822338 0,14.178644 43.4705,0 0,-14.178644 -43.4705,0"
     style="fill:#fbcb43;fill-opacity:1;fill-rule:nonzero;stroke:none"
     id="path5570"
     inkscape:connector-curvature="0" />
  <path
     d="m 1091.0591,88.902175 7.9733,0 c 4.63,0 6.1725,-4.629967 6.1725,-6.174979 l 0,-4.726214 -14.1458,0 0,10.901193"
     style="fill:#e6e6e6;fill-opacity:1;fill-rule:nonzero;stroke:none"
     id="path5572"
     inkscape:connector-curvature="0" />
  <path
     d="m 1075.3684,78.000982 -27.7798,0 0,14.115323 43.4705,0 0,-3.21413 0,-10.901193 -15.6907,0"
     style="fill:#f5b400;fill-opacity:1;fill-rule:nonzero;stroke:none"
     id="path5574"
     inkscape:connector-curvature="0" />
  <path
     d="m 1145.4841,40.677564 0,-7.008272 -84.9807,0 0,7.008272 84.9807,0"
     style="fill:#e84c43;fill-opacity:1;fill-rule:nonzero;stroke:none"
     id="path5576"
     inkscape:connector-curvature="0" />
  <path
     d="m 1060.5034,40.677564 0,-7.008272 -0,0 -11.7877,4.498263 0,2.510009 11.7902,0"
     style="fill:#fbcb43;fill-opacity:1;fill-rule:nonzero;stroke:none"
     id="path5578"
     inkscape:connector-curvature="0" />
  <path
     d="m 1048.7132,38.167555 -6.5828,2.510009 6.5828,0 0,-2.510009 z"
     style="fill:#666666;fill-opacity:1;fill-rule:nonzero;stroke:none"
     id="path5580"
     inkscape:connector-curvature="0" />
  <path
     d="m 1060.5034,47.402162 84.9807,0 0,-6.724598 -84.9807,0 0,6.724598"
     style="fill:#dc4437;fill-opacity:1;fill-rule:nonzero;stroke:none"
     id="path5582"
     inkscape:connector-curvature="0" />
  <path
     d="m 1048.7132,40.677564 0,2.408698 11.7902,4.3159 0,-6.724598 -11.7902,0"
     style="fill:#f5b400;fill-opacity:1;fill-rule:nonzero;stroke:none"
     id="path5584"
     inkscape:connector-curvature="0" />
  <path
     d="m 1048.7132,40.677564 -6.5828,0 6.5828,2.408698 0,-2.408698 z"
     style="fill:#474747;fill-opacity:1;fill-rule:nonzero;stroke:none"
     id="path5586"
     inkscape:connector-curvature="0" />
  <path
     d="m 1010.8857,200.72553 c -0.7877,-3.42182 -13.63406,-35.98863 -22.25826,-29.21591 -4.14114,3.25212 0.23808,10.29332 2.21367,13.33015 1.89961,2.91779 3.94358,5.87104 6.12433,8.57861 3.01657,3.73842 7.08176,7.50724 10.77206,10.58206 1.512,1.26134 1.3221,0.25328 0.035,-1.22334 -5.1011,-5.84318 -18.61864,-22.33681 -18.99602,-26.68311 -0.26595,-3.04949 2.17568,-3.7992 3.84226,-2.77088 2.96085,1.82615 6.24337,7.20329 7.24636,8.81922 4.2197,6.80312 7.0387,11.9979 9.6348,18.39323 0.8206,2.01612 1.7654,1.82869 1.3854,0.18997"
     style="fill:#a0c2ff;fill-opacity:1;fill-rule:nonzero;stroke:none"
     id="path5588"
     inkscape:connector-curvature="0" />
  <path
     d="m 1014.1353,208.11878 c -0.4989,0.60534 0.1748,1.36265 1.4336,0.31154 0.7902,-0.65853 2.9482,-0.46604 3.1508,1.30186 0.066,0.59521 -0.2507,1.47409 -0.5876,1.93253 -1.0005,1.34745 -2.6899,2.14275 -4.7034,1.63619 -2.0085,-0.50149 -3.0039,-2.11742 -2.4746,-4.17913 0.3369,-1.31959 2.1554,-3.52059 3.6928,-2.49734 0.5041,0.33686 1.0892,0.0836 0.9549,-0.43564 -0.2457,-0.91941 -1.2512,-1.14483 -2.049,-1.07645 -1.4285,0.12664 -2.2998,0.85862 -3.1914,1.93253 -2.3048,2.78102 -0.7649,6.63849 2.353,7.64401 2.6316,0.84849 6.0813,-0.44324 7.0539,-3.19133 1.3601,-3.84227 -3.3585,-6.14712 -5.633,-3.37877"
     style="fill:#a0c2ff;fill-opacity:1;fill-rule:nonzero;stroke:none"
     id="path5590"
     inkscape:connector-curvature="0" />
  <path
     d="m 1039.0429,176.13705 c -2.1225,-0.33433 -4.6755,0.23049 -6.6334,0.80797 -1.426,0.42298 -3.4015,1.2512 -4.283,1.9224 -0.7345,0.55721 -0.046,0.88901 0.5471,0.62813 1.5906,-0.70159 4.4679,-1.38544 6.1699,-1.67925 -3.7561,2.30232 -7.7605,6.18005 -10.7264,9.29033 -2.6088,2.73543 -5.524,6.45865 -6.7398,9.90074 -0.4787,1.34492 0.2077,1.4285 0.851,0.0962 4.0247,-8.34306 11.6281,-13.2415 18.4287,-19.24425 -1.6032,3.86253 -2.0212,5.44553 -2.0212,7.43125 0,1.21828 0.5015,1.00806 0.7776,0.0532 0.1874,-0.65853 1.7401,-5.17452 3.3332,-7.27675 0.6535,-0.86115 1.0967,-1.80336 0.2963,-1.93"
     style="fill:#a0c2ff;fill-opacity:1;fill-rule:nonzero;stroke:none"
     id="path5592"
     inkscape:connector-curvature="0" />
  <path
     d="m 1000.2024,116.07158 -5.07072,0 c -0.69905,0 -1.2664,-0.56735 -1.2664,-1.26641 0,-0.70158 0.56735,-1.2664 1.2664,-1.2664 l 5.07072,0 c 0.7015,0 1.2664,0.56482 1.2664,1.2664 0,0.69906 -0.5649,1.26641 -1.2664,1.26641 z m 15.1968,0 -7.5984,0 c -0.6991,0 -1.2664,-0.56735 -1.2664,-1.26641 0,-0.70158 0.5673,-1.2664 1.2664,-1.2664 l 7.5984,0 c 0.7016,0 1.2664,0.56482 1.2664,1.2664 0,0.69906 -0.5648,1.26641 -1.2664,1.26641 z m 15.1968,0 -7.5984,0 c -0.699,0 -1.2664,-0.56735 -1.2664,-1.26641 0,-0.70158 0.5674,-1.2664 1.2664,-1.2664 l 7.5984,0 c 0.7016,0 1.2664,0.56482 1.2664,1.2664 0,0.69906 -0.5648,1.26641 -1.2664,1.26641 z m 15.1969,0 -7.5985,0 c -0.699,0 -1.2664,-0.56735 -1.2664,-1.26641 0,-0.70158 0.5674,-1.2664 1.2664,-1.2664 l 7.5985,0 c 0.7015,0 1.2664,0.56482 1.2664,1.2664 0,0.69906 -0.5649,1.26641 -1.2664,1.26641 z m 15.1968,0 -7.5984,0 c -0.6991,0 -1.2664,-0.56735 -1.2664,-1.26641 0,-0.70158 0.5673,-1.2664 1.2664,-1.2664 l 7.5984,0 c 0.7016,0 1.2664,0.56482 1.2664,1.2664 0,0.69906 -0.5648,1.26641 -1.2664,1.26641 z m 15.1968,0 -7.5984,0 c -0.6991,0 -1.2664,-0.56482 -1.2664,-1.26641 0,-0.69905 0.5673,-1.2664 1.2664,-1.2664 l 7.5984,0 c 0.7016,0 1.2664,0.56735 1.2664,1.2664 0,0.70159 -0.5648,1.26641 -1.2664,1.26641 z m 15.1968,0 -7.5984,0 c -0.699,0 -1.2664,-0.56482 -1.2664,-1.26641 0,-0.69905 0.5674,-1.2664 1.2664,-1.2664 l 7.5984,0 c 0.7016,0 1.2665,0.56735 1.2665,1.2664 0,0.70159 -0.5649,1.26641 -1.2665,1.26641 z m 15.1969,0 -7.5984,0 c -0.6991,0 -1.2664,-0.56482 -1.2664,-1.26641 0,-0.69905 0.5673,-1.2664 1.2664,-1.2664 l 7.5984,0 c 0.7016,0 1.2664,0.56735 1.2664,1.2664 0,0.70159 -0.5648,1.26641 -1.2664,1.26641 z m 15.1968,0 -7.5984,0 c -0.6991,0 -1.2664,-0.56482 -1.2664,-1.26641 0,-0.69905 0.5673,-1.2664 1.2664,-1.2664 l 7.5984,0 c 0.7016,0 1.2664,0.56735 1.2664,1.2664 0,0.70159 -0.5648,1.26641 -1.2664,1.26641 z m 7.2413,7.95807 c -0.7016,0 -1.2664,-0.56735 -1.2664,-1.2664 l 0,-7.59842 c 0,-0.70158 0.5648,-1.2664 1.2664,-1.2664 0.6991,0 1.2664,0.56482 1.2664,1.2664 l 0,7.59842 c 0,0.69905 -0.5673,1.2664 -1.2664,1.2664 z m 0,15.19683 c -0.7016,0 -1.2664,-0.56735 -1.2664,-1.2664 l 0,-7.59842 c 0,-0.70158 0.5648,-1.2664 1.2664,-1.2664 0.6991,0 1.2664,0.56482 1.2664,1.2664 l 0,7.59842 c 0,0.69905 -0.5673,1.2664 -1.2664,1.2664 z m 0,15.19683 c -0.7016,0 -1.2664,-0.56735 -1.2664,-1.2664 l 0,-7.59842 c 0,-0.70158 0.5648,-1.2664 1.2664,-1.2664 0.6991,0 1.2664,0.56482 1.2664,1.2664 l 0,7.59842 c 0,0.69905 -0.5673,1.2664 -1.2664,1.2664 z m 0,15.19683 c -0.7016,0 -1.2664,-0.56734 -1.2664,-1.2664 l 0,-7.59841 c 0,-0.70159 0.5648,-1.26641 1.2664,-1.26641 0.6991,0 1.2664,0.56482 1.2664,1.26641 l 0,7.59841 c 0,0.69906 -0.5673,1.2664 -1.2664,1.2664 z m 0,15.19684 c -0.7016,0 -1.2664,-0.56735 -1.2664,-1.26641 l 0,-7.59841 c 0,-0.70159 0.5648,-1.26641 1.2664,-1.26641 0.6991,0 1.2664,0.56482 1.2664,1.26641 l 0,7.59841 c 0,0.69906 -0.5673,1.26641 -1.2664,1.26641"
     style="fill:#ffffff;fill-opacity:1;fill-rule:nonzero;stroke:none"
     id="path5594"
     inkscape:connector-curvature="0" />
  <path
     d="m 1131.5916,191.07554 c 0,1.59313 -1.2892,2.88486 -2.8823,2.88486 -1.5957,0 -2.8874,-1.29173 -2.8874,-2.88486 0,-1.59314 1.2917,-2.8874 2.8874,-2.8874 1.5931,0 2.8823,1.29426 2.8823,2.8874"
     style="fill:#ffffff;fill-opacity:1;fill-rule:nonzero;stroke:none"
     id="path5596"
     inkscape:connector-curvature="0" />
  <path
     d="m 1208.7637,63.609583 -7.5984,0 c -0.6991,0 -1.2664,-0.567349 -1.2664,-1.266403 0,-0.699054 0.5673,-1.266402 1.2664,-1.266402 l 7.5984,0 c 0.7016,0 1.2664,0.567348 1.2664,1.266402 0,0.699054 -0.5648,1.266403 -1.2664,1.266403 z m 15.1968,0 -7.5984,0 c -0.6991,0 -1.2664,-0.567349 -1.2664,-1.266403 0,-0.699054 0.5673,-1.266402 1.2664,-1.266402 l 7.5984,0 c 0.7016,0 1.2664,0.567348 1.2664,1.266402 0,0.699054 -0.5648,1.266403 -1.2664,1.266403 z m 15.1968,0 -7.5984,0 c -0.699,0 -1.2664,-0.567349 -1.2664,-1.266403 0,-0.699054 0.5674,-1.266402 1.2664,-1.266402 l 7.5984,0 c 0.7016,0 1.2664,0.567348 1.2664,1.266402 0,0.699054 -0.5648,1.266403 -1.2664,1.266403 z m 15.1969,0 -7.5985,0 c -0.699,0 -1.2664,-0.567349 -1.2664,-1.266403 0,-0.699054 0.5674,-1.266402 1.2664,-1.266402 l 7.5985,0 c 0.7016,0 1.2664,0.567348 1.2664,1.266402 0,0.699054 -0.5648,1.266403 -1.2664,1.266403 z m 15.1968,0 -7.5984,0 c -0.6991,0 -1.2664,-0.567349 -1.2664,-1.266403 0,-0.699054 0.5673,-1.266402 1.2664,-1.266402 l 7.5984,0 c 0.7016,0 1.2664,0.567348 1.2664,1.266402 0,0.699054 -0.5648,1.266403 -1.2664,1.266403 z m 15.1968,0 -7.5984,0 c -0.699,0 -1.2664,-0.567349 -1.2664,-1.266403 0,-0.699054 0.5674,-1.266402 1.2664,-1.266402 l 7.5984,0 c 0.7016,0 1.2664,0.567348 1.2664,1.266402 0,0.699054 -0.5648,1.266403 -1.2664,1.266403 z m 15.1969,0 -7.5985,0 c -0.699,0 -1.2664,-0.567349 -1.2664,-1.266403 0,-0.699054 0.5674,-1.266402 1.2664,-1.266402 l 7.5985,0 c 0.7015,0 1.2664,0.567348 1.2664,1.266402 0,0.699054 -0.5649,1.266403 -1.2664,1.266403 z m 15.1968,0 -7.5984,0 c -0.6991,0 -1.2664,-0.567349 -1.2664,-1.266403 0,-0.699054 0.5673,-1.266402 1.2664,-1.266402 l 7.5984,0 c 0.7016,0 1.2664,0.567348 1.2664,1.266402 0,0.699054 -0.5648,1.266403 -1.2664,1.266403 z m 15.1968,0 -7.5984,0 c -0.699,0 -1.2664,-0.567349 -1.2664,-1.266403 0,-0.699054 0.5674,-1.266402 1.2664,-1.266402 l 7.5984,0 c 0.7016,0 1.2664,0.567348 1.2664,1.266402 0,0.699054 -0.5648,1.266403 -1.2664,1.266403 z m 15.1969,0 -7.5985,0 c -0.699,0 -1.2664,-0.567349 -1.2664,-1.266403 0,-0.699054 0.5674,-1.266402 1.2664,-1.266402 l 7.5985,0 c 0.7015,0 1.2664,0.567348 1.2664,1.266402 0,0.699054 -0.5649,1.266403 -1.2664,1.266403 z m 15.1968,0 -7.5984,0 c -0.6991,0 -1.2664,-0.567349 -1.2664,-1.266403 0,-0.699054 0.5673,-1.266402 1.2664,-1.266402 l 7.5984,0 c 0.7016,0 1.2664,0.567348 1.2664,1.266402 0,0.699054 -0.5648,1.266403 -1.2664,1.266403 z m 15.1968,0 -7.5984,0 c -0.6991,0 -1.2664,-0.567349 -1.2664,-1.266403 0,-0.699054 0.5673,-1.266402 1.2664,-1.266402 l 7.5984,0 c 0.7016,0 1.2664,0.567348 1.2664,1.266402 0,0.699054 -0.5648,1.266403 -1.2664,1.266403 z m 15.1968,0 -7.5984,0 c -0.699,0 -1.2664,-0.567349 -1.2664,-1.266403 0,-0.699054 0.5674,-1.266402 1.2664,-1.266402 l 7.5984,0 c 0.7016,0 1.2664,0.567348 1.2664,1.266402 0,0.699054 -0.5648,1.266403 -1.2664,1.266403"
     style="fill:#ffffff;fill-opacity:1;fill-rule:nonzero;stroke:none"
     id="path5598"
     inkscape:connector-curvature="0" />
  <path
     d="m 1197.556,62.85734 c 0,1.595667 -1.2892,2.887398 -2.8849,2.887398 -1.5931,0 -2.8848,-1.291731 -2.8848,-2.887398 0,-1.593135 1.2917,-2.884866 2.8848,-2.884866 1.5957,0 2.8849,1.291731 2.8849,2.884866"
     style="fill:#ffffff;fill-opacity:1;fill-rule:nonzero;stroke:none"
     id="path5600"
     inkscape:connector-curvature="0" />
  <path
     d="m 1115.6198,183.03641 c 0,0 -3.6625,-1.05618 -5.8989,-3.60924 -1.7148,-1.95533 -2.9254,-5.94703 -2.928,-5.9369 -0,-0.0101 -1.2132,3.98157 -2.9279,5.9369 -2.239,2.55306 -5.8964,3.60924 -5.8964,3.60924 0,0 3.5688,1.27147 5.5899,3.50287 2.0288,2.23647 3.2446,5.70135 3.2471,5.70895 0,0 1.1929,-3.47248 3.2217,-5.70895 2.0212,-2.2314 5.5925,-3.50287 5.5925,-3.50287"
     style="fill:#ffffff;fill-opacity:1;fill-rule:nonzero;stroke:none"
     id="path5602"
     inkscape:connector-curvature="0" />
  <path
     d="m 1332.1898,11.117195 c 0,0 -3.6599,-1.05618 -5.8964,-3.6067146 -1.7147,-1.9553256 -2.9254,-5.9470266 -2.9304,-5.9368954 -0,-0.010131 -1.2107,3.9815698 -2.9254,5.9368954 -2.239,2.5505346 -5.8989,3.6067146 -5.8989,3.6067146 0,0 3.5712,1.274001 5.5924,3.505402 2.0288,2.236467 3.2445,5.703878 3.2471,5.708943 0,0 1.1929,-3.472476 3.2217,-5.708943 2.0186,-2.231401 5.5899,-3.505402 5.5899,-3.505402"
     style="fill:#ffffff;fill-opacity:1;fill-rule:nonzero;stroke:none"
     id="path5604"
     inkscape:connector-curvature="0" />
  <path
     d="m 1377.2053,245.49539 c 0,0 -3.6599,-1.05871 -5.8989,-3.60925 -1.7147,-1.95279 -2.9228,-5.94702 -2.9253,-5.93689 -0,-0.0101 -1.2158,3.9841 -2.9305,5.93689 -2.2365,2.55054 -5.8964,3.60925 -5.8964,3.60925 0,0 3.5713,1.27147 5.5899,3.50287 2.0288,2.23647 3.2471,5.70388 3.2496,5.71148 0,0 1.1904,-3.47501 3.2192,-5.71148 2.0237,-2.2314 5.5924,-3.50287 5.5924,-3.50287"
     style="fill:#ffffff;fill-opacity:1;fill-rule:nonzero;stroke:none"
     id="path5606"
     inkscape:connector-curvature="0" />
  <path
     d="m 1087.3714,133.61379 c 0,0 -4.7845,-1.38292 -7.7124,-4.71862 -2.2415,-2.5556 -3.8245,-7.77825 -3.8271,-7.76305 -0,-0.0152 -1.588,5.20745 -3.8296,7.76305 -2.9279,3.3357 -7.7124,4.71862 -7.7124,4.71862 0,0 4.668,1.66405 7.3122,4.58184 2.6519,2.92539 4.2425,7.45658 4.2476,7.46671 0,0 1.5602,-4.54132 4.2095,-7.46671 2.6442,-2.91779 7.3122,-4.58184 7.3122,-4.58184"
     style="fill:#ffffff;fill-opacity:1;fill-rule:nonzero;stroke:none"
     id="path5608"
     inkscape:connector-curvature="0" />
  <path
     d="m 1324.2216,291.92677 c 0,0 -4.7845,-1.38291 -7.7124,-4.71861 -2.2415,-2.5556 -3.8245,-7.77825 -3.8296,-7.76305 0,-0.0152 -1.583,5.20745 -3.8245,7.76305 -2.9305,3.3357 -7.715,4.71861 -7.715,4.71861 0,0 4.6705,1.66406 7.3148,4.58185 2.6468,2.92539 4.2399,7.45658 4.2424,7.46671 0,0 1.5628,-4.54132 4.2121,-7.46671 2.6442,-2.91779 7.3122,-4.58185 7.3122,-4.58185"
     style="fill:#ffffff;fill-opacity:1;fill-rule:nonzero;stroke:none"
     id="path5610"
     inkscape:connector-curvature="0" />
  <path
     d="m 1284.454,248.63607 c 0,0 -3.1761,-0.91688 -5.1213,-3.13308 -1.4868,-1.69445 -2.5353,-5.16186 -2.5404,-5.15173 -0,-0.0101 -1.0511,3.45728 -2.5404,5.15173 -1.9452,2.2162 -5.1213,3.13308 -5.1213,3.13308 0,0 3.1001,1.10683 4.8528,3.0419 1.7603,1.94266 2.8165,4.95163 2.819,4.9567 0,0 1.0385,-3.01404 2.7962,-4.9567 1.7553,-1.93507 4.8554,-3.0419 4.8554,-3.0419"
     style="fill:#ffffff;fill-opacity:1;fill-rule:nonzero;stroke:none"
     id="path5612"
     inkscape:connector-curvature="0" />
  <path
     d="m 1142.6321,66.823713 c 0,0 -3.1761,-0.916876 -5.1213,-3.13308 -1.4893,-1.694447 -2.5379,-5.161857 -2.5404,-5.151726 -0,-0.01013 -1.0537,3.457279 -2.5429,5.151726 -1.9427,2.216204 -5.1188,3.13308 -5.1188,3.13308 0,0 3.1001,1.106835 4.8553,3.041899 1.7578,1.942661 2.814,4.951634 2.8165,4.956699 0,0 1.0359,-3.014038 2.7988,-4.956699 1.7527,-1.935064 4.8528,-3.041899 4.8528,-3.041899"
     style="fill:#ffffff;fill-opacity:1;fill-rule:nonzero;stroke:none"
     id="path5614"
     inkscape:connector-curvature="0" />
</svg>
