<?xml version="1.0" encoding="UTF-8" standalone="no"?>
<svg
   xmlns:dc="http://purl.org/dc/elements/1.1/"
   xmlns:cc="http://creativecommons.org/ns#"
   xmlns:rdf="http://www.w3.org/1999/02/22-rdf-syntax-ns#"
   xmlns:svg="http://www.w3.org/2000/svg"
   xmlns="http://www.w3.org/2000/svg"
   xmlns:sodipodi="http://sodipodi.sourceforge.net/DTD/sodipodi-0.dtd"
   xmlns:inkscape="http://www.inkscape.org/namespaces/inkscape"
   width="728"
   height="458"
   id="svg37089"
   version="1.1"
   inkscape:version="0.91 r13725"
   sodipodi:docname="features-illustration-top-dark.svg">
  <metadata
     id="metadata37104">
    <rdf:RDF>
      <cc:Work
         rdf:about="">
        <dc:format>image/svg+xml</dc:format>
        <dc:type
           rdf:resource="http://purl.org/dc/dcmitype/StillImage" />
        <dc:title></dc:title>
      </cc:Work>
    </rdf:RDF>
  </metadata>
  <sodipodi:namedview
     pagecolor="#ffffff"
     bordercolor="#666666"
     borderopacity="1"
     objecttolerance="10"
     gridtolerance="10"
     guidetolerance="10"
     inkscape:pageopacity="0"
     inkscape:pageshadow="2"
     inkscape:window-width="1366"
     inkscape:window-height="723"
     id="namedview37102"
     showgrid="false"
     inkscape:zoom="0.98"
     inkscape:cx="364"
     inkscape:cy="229"
     inkscape:window-x="0"
     inkscape:window-y="19"
     inkscape:window-maximized="1"
     inkscape:current-layer="svg37089" />
  <defs
     id="defs37091">
    <linearGradient
       x1="93.73%"
       y1="11.55%"
       x2="20.77%"
       y2="84.5%"
       id="a">
      <stop
         stop-color="#FFBC48"
         offset="0%"
         id="stop37094" />
      <stop
         stop-color="#FE7E1F"
         stop-opacity=".785"
         offset="31.81%"
         id="stop37096" />
      <stop
         stop-color="#FE7E1F"
         stop-opacity="0"
         offset="100%"
         id="stop37098" />
    </linearGradient>
  </defs>
  <path
     d="m 450.78624,413.6808 -5.45313,0 c -0.50205,0 -0.90886,-0.37291 -0.90886,-0.83164 0,-0.46057 0.40681,-0.83165 0.90886,-0.83165 l 5.45313,0 c 0.5026,0 0.90885,0.37108 0.90885,0.83165 0,0.45873 -0.40625,0.83164 -0.90885,0.83164 z m 10.90626,0 -5.45313,0 c -0.50205,0 -0.90885,-0.37291 -0.90885,-0.83164 0,-0.46057 0.4068,-0.83165 0.90885,-0.83165 l 5.45313,0 c 0.5026,0 0.90886,0.37108 0.90886,0.83165 0,0.45873 -0.40626,0.83164 -0.90886,0.83164 z m 10.90627,0 -5.45314,0 c -0.50205,0 -0.90885,-0.37291 -0.90885,-0.83164 0,-0.46057 0.4068,-0.83165 0.90885,-0.83165 l 5.45314,0 c 0.50259,0 0.90885,0.37108 0.90885,0.83165 0,0.45873 -0.40626,0.83164 -0.90885,0.83164 z m 10.90626,0 -5.45313,0 c -0.50205,0 -0.90886,-0.37291 -0.90886,-0.83164 0,-0.46057 0.40681,-0.83165 0.90886,-0.83165 l 5.45313,0 c 0.5026,0 0.90886,0.37108 0.90886,0.83165 0,0.45873 -0.40626,0.83164 -0.90886,0.83164 z m 10.90626,0 -5.45313,0 c -0.50205,0 -0.90885,-0.37291 -0.90885,-0.83164 0,-0.46057 0.4068,-0.83165 0.90885,-0.83165 l 5.45313,0 c 0.5026,0 0.90886,0.37108 0.90886,0.83165 0,0.45873 -0.40626,0.83164 -0.90886,0.83164 z m 10.90627,0 -5.45313,0 c -0.50206,0 -0.90886,-0.37291 -0.90886,-0.83164 0,-0.46057 0.4068,-0.83165 0.90886,-0.83165 l 5.45313,0 c 0.50259,0 0.90885,0.37108 0.90885,0.83165 0,0.45873 -0.40626,0.83164 -0.90885,0.83164 z m 10.90626,0 -5.45313,0 c -0.50205,0 -0.90886,-0.37291 -0.90886,-0.83164 0,-0.46057 0.40681,-0.83165 0.90886,-0.83165 l 5.45313,0 c 0.5026,0 0.90886,0.37108 0.90886,0.83165 0,0.45873 -0.40626,0.83164 -0.90886,0.83164 z m 10.90626,0 -5.45313,0 c -0.50205,0 -0.90885,-0.37291 -0.90885,-0.83164 0,-0.46057 0.4068,-0.83165 0.90885,-0.83165 l 5.45313,0 c 0.5026,0 0.90886,0.37108 0.90886,0.83165 0,0.45873 -0.40626,0.83164 -0.90886,0.83164 z m 10.90627,0 -5.45313,0 c -0.50206,0 -0.90886,-0.37291 -0.90886,-0.83164 0,-0.46057 0.4068,-0.83165 0.90886,-0.83165 l 5.45313,0 c 0.5026,0 0.90885,0.37108 0.90885,0.83165 0,0.45873 -0.40625,0.83164 -0.90885,0.83164 z m 10.90626,0 -5.45313,0 c -0.50205,0 -0.90886,-0.37291 -0.90886,-0.83164 0,-0.46057 0.40681,-0.83165 0.90886,-0.83165 l 5.45313,0 c 0.5026,0 0.90886,0.37108 0.90886,0.83165 0,0.45873 -0.40626,0.83164 -0.90886,0.83164 z m 10.90627,0 -5.45314,0 c -0.50205,0 -0.90885,-0.37291 -0.90885,-0.83164 0,-0.46057 0.4068,-0.83165 0.90885,-0.83165 l 5.45314,0 c 0.50259,0 0.90885,0.37108 0.90885,0.83165 0,0.45873 -0.40626,0.83164 -0.90885,0.83164 z m 10.90662,0 -5.45313,0 c -0.50169,0 -0.90922,-0.37291 -0.90922,-0.83164 0,-0.46057 0.40753,-0.83165 0.90922,-0.83165 l 5.45313,0 c 0.50169,0 0.90886,0.37108 0.90886,0.83165 0,0.45873 -0.40717,0.83164 -0.90886,0.83164 z m 10.90627,0 -5.45314,0 c -0.50168,0 -0.90885,-0.37291 -0.90885,-0.83164 0,-0.46057 0.40717,-0.83165 0.90885,-0.83165 l 5.45314,0 c 0.50168,0 0.90885,0.37108 0.90885,0.83165 0,0.45873 -0.40717,0.83164 -0.90885,0.83164"
     style="fill:#5dc6bc;fill-opacity:1;fill-rule:nonzero;stroke:none"
     id="path5180"
     inkscape:connector-curvature="0" />
  <path
     d="m 633.58649,208.00096 c -0.50169,0 -0.90886,-0.37091 -0.90886,-0.83164 l 0,-0.75845 c 0,-0.45907 0.40717,-0.83164 0.90886,-0.83164 0.5035,0 0.90885,0.37257 0.90885,0.83164 l 0,0.75845 c 0,0.46073 -0.40535,0.83164 -0.90885,0.83164 z m 0,9.97969 c -0.50169,0 -0.90886,-0.37091 -0.90886,-0.83164 l 0,-4.98984 c 0,-0.45907 0.40717,-0.83164 0.90886,-0.83164 0.5035,0 0.90885,0.37257 0.90885,0.83164 l 0,4.98984 c 0,0.46073 -0.40535,0.83164 -0.90885,0.83164 z m 0,9.97969 c -0.50169,0 -0.90886,-0.37092 -0.90886,-0.83164 l 0,-4.98985 c 0,-0.45906 0.40717,-0.83164 0.90886,-0.83164 0.5035,0 0.90885,0.37258 0.90885,0.83164 l 0,4.98985 c 0,0.46072 -0.40535,0.83164 -0.90885,0.83164 z m 0,9.97968 c -0.50169,0 -0.90886,-0.37091 -0.90886,-0.83164 l 0,-4.98984 c 0,-0.45907 0.40717,-0.83164 0.90886,-0.83164 0.5035,0 0.90885,0.37257 0.90885,0.83164 l 0,4.98984 c 0,0.46073 -0.40535,0.83164 -0.90885,0.83164 z m 0,9.97969 c -0.50169,0 -0.90886,-0.37091 -0.90886,-0.83164 l 0,-4.98985 c 0,-0.45906 0.40717,-0.83164 0.90886,-0.83164 0.5035,0 0.90885,0.37258 0.90885,0.83164 l 0,4.98985 c 0,0.46073 -0.40535,0.83164 -0.90885,0.83164 z m 0,9.97968 c -0.50169,0 -0.90886,-0.37091 -0.90886,-0.83164 l 0,-4.98984 c 0,-0.45906 0.40717,-0.83164 0.90886,-0.83164 0.5035,0 0.90885,0.37258 0.90885,0.83164 l 0,4.98984 c 0,0.46073 -0.40535,0.83164 -0.90885,0.83164 z m 0,9.97969 c -0.50169,0 -0.90886,-0.37091 -0.90886,-0.83164 l 0,-4.98984 c 0,-0.45907 0.40717,-0.83164 0.90886,-0.83164 0.5035,0 0.90885,0.37257 0.90885,0.83164 l 0,4.98984 c 0,0.46073 -0.40535,0.83164 -0.90885,0.83164 z m 0,9.97969 c -0.50169,0 -0.90886,-0.37092 -0.90886,-0.83164 l 0,-4.98985 c 0,-0.45906 0.40717,-0.83164 0.90886,-0.83164 0.5035,0 0.90885,0.37258 0.90885,0.83164 l 0,4.98985 c 0,0.46072 -0.40535,0.83164 -0.90885,0.83164 z m 0,9.97968 c -0.50169,0 -0.90886,-0.37091 -0.90886,-0.83164 l 0,-4.98984 c 0,-0.45907 0.40717,-0.83164 0.90886,-0.83164 0.5035,0 0.90885,0.37257 0.90885,0.83164 l 0,4.98984 c 0,0.46073 -0.40535,0.83164 -0.90885,0.83164 z m 0,9.97969 c -0.50169,0 -0.90886,-0.37091 -0.90886,-0.83164 l 0,-4.98985 c 0,-0.45906 0.40717,-0.83164 0.90886,-0.83164 0.5035,0 0.90885,0.37258 0.90885,0.83164 l 0,4.98985 c 0,0.46073 -0.40535,0.83164 -0.90885,0.83164 z m 0,9.97968 c -0.50169,0 -0.90886,-0.37091 -0.90886,-0.83164 l 0,-4.98984 c 0,-0.45906 0.40717,-0.83164 0.90886,-0.83164 0.5035,0 0.90885,0.37258 0.90885,0.83164 l 0,4.98984 c 0,0.46073 -0.40535,0.83164 -0.90885,0.83164 z m 0,9.97969 c -0.50169,0 -0.90886,-0.37091 -0.90886,-0.83164 l 0,-4.98984 c 0,-0.45907 0.40717,-0.83164 0.90886,-0.83164 0.5035,0 0.90885,0.37257 0.90885,0.83164 l 0,4.98984 c 0,0.46073 -0.40535,0.83164 -0.90885,0.83164 z m 0,9.97969 c -0.50169,0 -0.90886,-0.37092 -0.90886,-0.83164 l 0,-4.98985 c 0,-0.45906 0.40717,-0.83164 0.90886,-0.83164 0.5035,0 0.90885,0.37258 0.90885,0.83164 l 0,4.98985 c 0,0.46072 -0.40535,0.83164 -0.90885,0.83164 z m 0,9.97968 c -0.50169,0 -0.90886,-0.37091 -0.90886,-0.83164 l 0,-4.98984 c 0,-0.45907 0.40717,-0.83164 0.90886,-0.83164 0.5035,0 0.90885,0.37257 0.90885,0.83164 l 0,4.98984 c 0,0.46073 -0.40535,0.83164 -0.90885,0.83164"
     style="fill:#5dc6bc;fill-opacity:1;fill-rule:nonzero;stroke:none"
     id="path5182"
     inkscape:connector-curvature="0" />
  <path
     d="m 635.58415,341.98158 c 0,1.04786 -0.92703,1.89614 -2.07037,1.89614 -1.14516,0 -2.07219,-0.84828 -2.07219,-1.89614 0,-1.04621 0.92703,-1.89614 2.07219,-1.89614 1.14334,0 2.07037,0.84993 2.07037,1.89614"
     style="fill:#5dc6bc;fill-opacity:1;fill-rule:nonzero;stroke:none"
     id="path5184"
     inkscape:connector-curvature="0" />
  <path
     d="m 460.25379,425.04899 -5.45314,0 c -0.50187,0 -0.90885,-0.37108 -0.90885,-0.83164 0,-0.45873 0.40698,-0.83164 0.90885,-0.83164 l 5.45314,0 c 0.50277,0 0.90885,0.37291 0.90885,0.83164 0,0.46056 -0.40608,0.83164 -0.90885,0.83164 z m 10.90626,0 -5.45313,0 c -0.50187,0 -0.90886,-0.37108 -0.90886,-0.83164 0,-0.45873 0.40699,-0.83164 0.90886,-0.83164 l 5.45313,0 c 0.50278,0 0.90885,0.37291 0.90885,0.83164 0,0.46056 -0.40607,0.83164 -0.90885,0.83164 z m 10.90626,0 -5.45313,0 c -0.50187,0 -0.90885,-0.37108 -0.90885,-0.83164 0,-0.45873 0.40698,-0.83164 0.90885,-0.83164 l 5.45313,0 c 0.50278,0 0.90886,0.37291 0.90886,0.83164 0,0.46056 -0.40608,0.83164 -0.90886,0.83164 z m 10.90627,0 -5.45314,0 c -0.50187,0 -0.90885,-0.37108 -0.90885,-0.83164 0,-0.45873 0.40698,-0.83164 0.90885,-0.83164 l 5.45314,0 c 0.50277,0 0.90885,0.37291 0.90885,0.83164 0,0.46056 -0.40608,0.83164 -0.90885,0.83164 z m 10.90626,0 -5.45313,0 c -0.50187,0 -0.90886,-0.37108 -0.90886,-0.83164 0,-0.45873 0.40699,-0.83164 0.90886,-0.83164 l 5.45313,0 c 0.50278,0 0.90885,0.37291 0.90885,0.83164 0,0.46056 -0.40607,0.83164 -0.90885,0.83164 z m 10.90626,0 -5.45313,0 c -0.50187,0 -0.90885,-0.37108 -0.90885,-0.83164 0,-0.45873 0.40698,-0.83164 0.90885,-0.83164 l 5.45313,0 c 0.50278,0 0.90886,0.37291 0.90886,0.83164 0,0.46056 -0.40608,0.83164 -0.90886,0.83164 z m 10.90627,0 -5.45314,0 c -0.50187,0 -0.90885,-0.37108 -0.90885,-0.83164 0,-0.45873 0.40698,-0.83164 0.90885,-0.83164 l 5.45314,0 c 0.50278,0 0.90885,0.37291 0.90885,0.83164 0,0.46056 -0.40607,0.83164 -0.90885,0.83164 z m 10.90626,0 -5.45313,0 c -0.50187,0 -0.90886,-0.37108 -0.90886,-0.83164 0,-0.45873 0.40699,-0.83164 0.90886,-0.83164 l 5.45313,0 c 0.50278,0 0.90886,0.37291 0.90886,0.83164 0,0.46056 -0.40608,0.83164 -0.90886,0.83164 z m 10.90626,0 -5.45313,0 c -0.50187,0 -0.90885,-0.37108 -0.90885,-0.83164 0,-0.45873 0.40698,-0.83164 0.90885,-0.83164 l 5.45313,0 c 0.50278,0 0.90886,0.37291 0.90886,0.83164 0,0.46056 -0.40608,0.83164 -0.90886,0.83164 z m 10.90627,0 -5.45313,0 c -0.50187,0 -0.90886,-0.37108 -0.90886,-0.83164 0,-0.45873 0.40699,-0.83164 0.90886,-0.83164 l 5.45313,0 c 0.50278,0 0.90885,0.37291 0.90885,0.83164 0,0.46056 -0.40607,0.83164 -0.90885,0.83164 z m 10.90572,0 -5.45259,0 c -0.50187,0 -0.90886,-0.37108 -0.90886,-0.83164 0,-0.45873 0.40699,-0.83164 0.90886,-0.83164 l 5.45259,0 c 0.5035,0 0.90885,0.37291 0.90885,0.83164 0,0.46056 -0.40535,0.83164 -0.90885,0.83164 z m 10.90626,0 -5.45313,0 c -0.50169,0 -0.90886,-0.37108 -0.90886,-0.83164 0,-0.45873 0.40717,-0.83164 0.90886,-0.83164 l 5.45313,0 c 0.50351,0 0.90885,0.37291 0.90885,0.83164 0,0.46056 -0.40534,0.83164 -0.90885,0.83164 z m 10.90626,0 -5.45313,0 c -0.50169,0 -0.90885,-0.37108 -0.90885,-0.83164 0,-0.45873 0.40716,-0.83164 0.90885,-0.83164 l 5.45313,0 c 0.50351,0 0.90886,0.37291 0.90886,0.83164 0,0.46056 -0.40535,0.83164 -0.90886,0.83164"
     style="fill:#ffffff;fill-opacity:1;fill-rule:nonzero;stroke:none"
     id="path5186"
     inkscape:connector-curvature="0" />
  <path
     d="m 625.45041,214.93851 c -0.50168,0 -0.90885,-0.37091 -0.90885,-0.83164 l 0,-4.98984 c 0,-0.45907 0.40717,-0.83164 0.90885,-0.83164 0.50351,0 0.90886,0.37257 0.90886,0.83164 l 0,4.98984 c 0,0.46073 -0.40535,0.83164 -0.90886,0.83164 z m 0,9.97969 c -0.50168,0 -0.90885,-0.37092 -0.90885,-0.83165 l 0,-4.98984 c 0,-0.45906 0.40717,-0.83164 0.90885,-0.83164 0.50351,0 0.90886,0.37258 0.90886,0.83164 l 0,4.98984 c 0,0.46073 -0.40535,0.83165 -0.90886,0.83165 z m 0,9.97968 c -0.50168,0 -0.90885,-0.37091 -0.90885,-0.83164 l 0,-4.98984 c 0,-0.45907 0.40717,-0.83164 0.90885,-0.83164 0.50351,0 0.90886,0.37257 0.90886,0.83164 l 0,4.98984 c 0,0.46073 -0.40535,0.83164 -0.90886,0.83164 z m 0,9.97969 c -0.50168,0 -0.90885,-0.37091 -0.90885,-0.83164 l 0,-4.98985 c 0,-0.45906 0.40717,-0.83164 0.90885,-0.83164 0.50351,0 0.90886,0.37258 0.90886,0.83164 l 0,4.98985 c 0,0.46073 -0.40535,0.83164 -0.90886,0.83164 z m 0,9.97968 c -0.50168,0 -0.90885,-0.37091 -0.90885,-0.83164 l 0,-4.98984 c 0,-0.45907 0.40717,-0.83164 0.90885,-0.83164 0.50351,0 0.90886,0.37257 0.90886,0.83164 l 0,4.98984 c 0,0.46073 -0.40535,0.83164 -0.90886,0.83164 z m 0,9.97969 c -0.50168,0 -0.90885,-0.37091 -0.90885,-0.83164 l 0,-4.98984 c 0,-0.45907 0.40717,-0.83164 0.90885,-0.83164 0.50351,0 0.90886,0.37257 0.90886,0.83164 l 0,4.98984 c 0,0.46073 -0.40535,0.83164 -0.90886,0.83164 z m -45.89174,2.91407 -5.45313,0 c -0.50168,0 -0.90885,-0.37091 -0.90885,-0.83164 0,-0.45907 0.40717,-0.83164 0.90885,-0.83164 l 5.45313,0 c 0.50351,0 0.90886,0.37257 0.90886,0.83164 0,0.46073 -0.40535,0.83164 -0.90886,0.83164 z m 10.90627,0 -5.45313,0 c -0.50169,0 -0.90886,-0.37091 -0.90886,-0.83164 0,-0.45907 0.40717,-0.83164 0.90886,-0.83164 l 5.45313,0 c 0.5035,0 0.90885,0.37257 0.90885,0.83164 0,0.46073 -0.40535,0.83164 -0.90885,0.83164 z m 10.90626,0.002 0,0 -5.45313,-0.002 c -0.50169,0 -0.90885,-0.37091 -0.90885,-0.83164 0,-0.45907 0.40716,-0.83164 0.90885,-0.83164 l 0,0 5.45313,0.002 c 0.50351,0 0.90886,0.37257 0.90886,0.83164 0,0.46073 -0.40717,0.83164 -0.90886,0.83164 z m 10.90627,0 -5.45314,0 c -0.50168,0 -0.90885,-0.37091 -0.90885,-0.83164 0,-0.45907 0.40717,-0.83164 0.90885,-0.83164 l 5.45314,0 c 0.5035,0 0.90885,0.37257 0.90885,0.83164 0,0.46073 -0.40535,0.83164 -0.90885,0.83164 z m 10.90626,0 -5.45313,0 c -0.50169,0 -0.90886,-0.37091 -0.90886,-0.83164 0,-0.45907 0.40717,-0.83164 0.90886,-0.83164 l 5.45313,0 c 0.50351,0 0.90885,0.37257 0.90885,0.83164 0,0.46073 -0.40534,0.83164 -0.90885,0.83164 z m -49.65985,9.44744 c -0.50169,0 -0.90886,-0.37258 -0.90886,-0.83164 l 0,-4.98985 c 0,-0.46073 0.40717,-0.83164 0.90886,-0.83164 0.5035,0 0.90885,0.37091 0.90885,0.83164 l 0,4.98985 c 0,0.45906 -0.40535,0.83164 -0.90885,0.83164 z m 0,9.97802 c -0.50169,0 -0.90886,-0.37258 -0.90886,-0.83164 l 0,-4.98984 c 0,-0.46073 0.40717,-0.83164 0.90886,-0.83164 0.5035,0 0.90885,0.37091 0.90885,0.83164 l 0,4.98984 c 0,0.45906 -0.40535,0.83164 -0.90885,0.83164 z m 0,9.97969 c -0.50169,0 -0.90886,-0.37258 -0.90886,-0.83164 l 0,-4.98985 c 0,-0.46073 0.40717,-0.83164 0.90886,-0.83164 0.5035,0 0.90885,0.37091 0.90885,0.83164 l 0,4.98985 c 0,0.45906 -0.40535,0.83164 -0.90885,0.83164 z m 0,9.97968 c -0.50169,0 -0.90886,-0.37257 -0.90886,-0.83164 l 0,-4.98984 c 0,-0.46073 0.40717,-0.83164 0.90886,-0.83164 0.5035,0 0.90885,0.37091 0.90885,0.83164 l 0,4.98984 c 0,0.45907 -0.40535,0.83164 -0.90885,0.83164"
     style="fill:#ffffff;fill-opacity:1;fill-rule:nonzero;stroke:none"
     id="path5188"
     inkscape:connector-curvature="0" />
  <path
     d="m 714.30738,412.94529 -23.61933,0 0,-68.74822 23.61933,0 0,68.74822 z m 0,21.41674 -74.75517,0 0,-19.89317 74.75517,0 0,19.89317 z m -25.19165,-91.60204 0,70.27179 -51.13584,0 0,22.76866 77.89981,0 0,-21.41591 0,-1.35275 0,-70.27179 -26.76397,0"
     style="fill:#5dc6bc;fill-opacity:1;fill-rule:nonzero;stroke:none"
     id="path5190"
     inkscape:connector-curvature="0" />
  <path
     d="m 571.4735,355.08823 67.39344,0 0,37.04276 -67.39344,0 0,-37.04276 z m -63.23561,37.04276 -24.2239,0 0,-106.29845 24.2239,0 0,106.29845 z m 130.62905,-86.82642 -67.39344,0 0,-19.47203 67.39344,0 0,19.47203 z m -67.39344,40.65724 0,-39.2235 67.39344,0 0,39.2235 -67.39344,0 z m 0,1.43208 67.39344,0 0,6.26392 -67.39344,0 0,-6.26392 z m -7.28848,-61.56135 5.72343,0 0,106.29845 -5.72343,0 0,-106.29845 z m -47.09361,21.03385 45.52875,0 0,85.2646 -45.52875,0 0,-85.2646 z m 45.38806,-1.43375 -45.38806,0 0,-19.6001 45.38806,0 0,19.6001 z m -52.67598,-19.6001 5.72233,0 0,106.29845 -5.72233,0 0,-106.29845 z m -44.85201,-6.15581 191.85626,0 0,4.72372 -191.85626,0 0,-4.72372 z m 11.77403,6.15581 5.72289,0 0,106.29845 -5.72289,0 0,-106.29845 z m 180.08223,112.45775 -191.85626,0 0,-4.72538 191.85626,0 0,4.72538 z m -11.21346,-6.1593 -5.16229,0 0,-106.29845 5.16229,0 0,106.29845 z m 12.78033,-106.29845 0,-7.58789 -194.98727,0 0,7.58789 11.77313,0 0,106.29845 -11.77313,0 0,7.58989 194.98727,0 0,-7.58989 -11.21346,0 0,-106.29845 11.21346,0"
     style="fill:#5dc6bc;fill-opacity:1;fill-rule:nonzero;stroke:none"
     id="path5192"
     inkscape:connector-curvature="0" />
  <path
     d="m 602.39639,348.68792 -1.02701,-11.73943 -12.27318,0.92811 -12.78577,-1.08446 -1.02701,11.73944 c 0,0 4.62062,5.44225 13.68373,5.5487 l 0,0.007 c 0.0436,0 0.0854,-0.003 0.12905,-0.005 0.0436,0.002 0.0836,0.005 0.12906,0.005 l 0,-0.007 c 9.06129,-0.10645 13.17113,-5.39236 13.17113,-5.39236"
     style="fill:#f4b073;fill-opacity:1;fill-rule:nonzero;stroke:none"
     id="path5194"
     inkscape:connector-curvature="0" />
  <path
     d="m 588.55452,311.04289 c -7.61075,0.47237 -14.88159,-0.6254 -19.15866,-1.7215 -3.12101,-0.80004 -5.87394,-2.55147 -7.14143,-3.44299 0.002,0.0366 0.003,0.0715 0.004,0.10811 -1.10262,-0.3759 -2.50571,-0.33764 -3.58925,1.45537 -1.79571,2.97561 0,8.76716 2.39575,10.56683 1.10844,0.8333 2.13362,1.4221 2.92615,1.82628 1.20023,5.37739 3.147,10.42378 6.29709,13.51416 8.06518,7.90723 15.41782,9.5938 17.54818,9.93145 0.39808,0.0632 0.6362,0.0848 0.6362,0.0848 0,0 0.56894,-0.0665 0.71981,-0.0848 l 0.1127,-32.28429 c -0.0564,0.003 -0.69255,0.0449 -0.75072,0.0466"
     style="fill:#fbd099;fill-opacity:1;fill-rule:nonzero;stroke:none"
     id="path5196"
     inkscape:connector-curvature="0" />
  <path
     d="m 619.00845,307.67807 c -1.26331,-2.09241 -2.96105,-1.79967 -4.10985,-1.23915 0,-0.008 0,-0.015 0,-0.0216 0.10543,-1.93273 0.14724,-3.67918 0.15996,-5.17946 -5.76214,0.42747 -18.93145,1.37554 -26.33135,1.69655 -2.66113,0.11477 -4.57882,0.14803 -5.13322,0.0482 -2.27577,-0.41749 -17.84628,-2.2471 -21.46243,-2.76438 -0.005,1.54519 0.0205,3.47626 0.12287,5.66015 1.26749,0.89152 4.67843,3.38477 7.75036,4.33451 7.29447,2.25208 13.51831,3.02384 18.72242,3.02218 l 0,30.10372 c 1.44871,-0.17464 9.47754,-1.48863 18.14802,-9.98966 3.03194,-2.97395 4.9569,-7.78416 6.17113,-12.9686 0.8216,-0.37591 2.12672,-1.05453 3.56816,-2.13732 2.39393,-1.79967 4.19164,-7.59122 2.39393,-10.56516"
     style="fill:#f9c38a;fill-opacity:1;fill-rule:nonzero;stroke:none"
     id="path5198"
     inkscape:connector-curvature="0" />
  <path
     d="m 562.59453,309.62244 0.76889,5.71504 c 0,0 -2.18053,-1.05619 -2.56534,-3.7191 -0.23066,-1.59841 0.38481,-2.62133 1.79645,-1.99594"
     style="fill:#f4b073;fill-opacity:1;fill-rule:nonzero;stroke:none"
     id="path5200"
     inkscape:connector-curvature="0" />
  <path
     d="m 615.2167,309.47275 -0.76889,5.71503 c 0,0 2.18125,-1.05784 2.56479,-3.71909 0.23267,-1.59842 -0.38354,-2.62134 -1.7959,-1.99594"
     style="fill:#f4b073;fill-opacity:1;fill-rule:nonzero;stroke:none"
     id="path5202"
     inkscape:connector-curvature="0" />
  <path
     d="m 562.83447,311.21254 c 1.52869,0.0482 4.20381,-3.09703 4.09475,-6.74627 -0.10906,-3.6326 1.765,-2.91407 1.765,-2.91407 l -7.57095,-0.26612 c 0,0 0.0193,7.8274 1.7112,9.92646"
     style="fill:#82491a;fill-opacity:1;fill-rule:nonzero;stroke:none"
     id="path5204"
     inkscape:connector-curvature="0" />
  <path
     d="m 614.9186,311.47867 c -1.52688,0.0499 -4.74786,-3.2301 -4.6388,-6.87767 0.10725,-3.63427 -1.76681,-2.91407 -1.76681,-2.91407 l 7.57076,-0.26779 c 0,0 0.36536,8.92683 -1.16515,10.05953"
     style="fill:#82491a;fill-opacity:1;fill-rule:nonzero;stroke:none"
     id="path5206"
     inkscape:connector-curvature="0" />
  <path
     d="m 603.35432,294.29365 c -4.34978,-2.57476 -8.52688,-3.443 -9.06128,-23.84813 -0.64347,-0.0333 -1.31239,-0.0599 -2.01221,-0.0765 -0.94884,-0.0216 -5.73851,-0.02 -6.86367,0.0133 -0.88523,0.0283 -1.7141,0.0732 -2.5139,0.12641 -0.54168,20.34359 -4.71514,21.21348 -9.05947,23.78492 -5.14775,3.04879 -11.46084,-0.0782 -11.46084,-0.0782 l -0.23867,-0.17631 c 0.0882,1.86787 0.30538,3.07375 0.30538,3.07375 0,0 1.15461,2.22879 7.44061,5.86972 5.57856,3.22842 16.76656,2.27536 19.24956,2.04417 2.48299,0.23119 12.82758,1.24247 18.40614,-1.98596 6.28746,-3.64092 7.4417,-5.86972 7.4417,-5.86972 0,0 0.23449,-1.31066 0.31447,-3.31658 l -0.48715,0.36093 c 0,0 -6.31291,3.12697 -11.46067,0.0782"
     style="fill:#fbcb43;fill-opacity:1;fill-rule:nonzero;stroke:none"
     id="path5208"
     inkscape:connector-curvature="0" />
  <path
     d="m 611.13776,278.50412 c -4.05895,-5.21938 -7.50169,-7.56294 -16.84472,-8.0586 0.5344,20.40513 4.7115,21.27337 9.06128,23.84813 5.14776,3.04879 11.46067,-0.0782 11.46067,-0.0782 l 0.48715,-0.36093 c 0.1545,-3.86713 -0.28175,-10.35559 -4.16438,-15.35042"
     style="fill:#f5b400;fill-opacity:1;fill-rule:nonzero;stroke:none"
     id="path5210"
     inkscape:connector-curvature="0" />
  <path
     d="m 615.13672,295.70411 c -1.5396,2.11236 -3.20825,4.34282 -7.698,5.5171 -10.60816,2.77269 -26.83123,2.77269 -37.4412,0 -4.48975,-1.17428 -6.1575,-3.40474 -7.69692,-5.5171 -0.89831,0.11643 -2.90833,0.0782 -2.90833,0.0782 l 0.0858,8.02201 7.56931,1.17261 c 0,0 3.20281,4.05175 17.47184,4.61727 1.18696,0.0482 7.00182,0.0399 8.42872,-0.0383 13.57466,-0.7335 17.44275,-4.57901 17.44275,-4.57901 l 7.56895,-1.17261 0.0854,-8.02201 c 0,0 -2.01039,0.0383 -2.90834,-0.0782"
     style="fill:#f5b400;fill-opacity:1;fill-rule:nonzero;stroke:none"
     id="path5212"
     inkscape:connector-curvature="0" />
  <path
     d="m 591.89184,336.08691 -6.67281,0 c -0.56713,0 -1.02519,-0.41915 -1.02519,-0.93809 0,-0.52061 0.45806,-0.93976 1.02519,-0.93976 l 6.67281,0 c 0.56713,0 1.02519,0.41915 1.02519,0.93976 0,0.51894 -0.45806,0.93809 -1.02519,0.93809"
     style="fill:#e89958;fill-opacity:1;fill-rule:nonzero;stroke:none"
     id="path5214"
     inkscape:connector-curvature="0" />
  <path
     d="m 578.53894,271.01935 c 0.0891,2.77602 0.10361,8.06858 -0.81797,12.28333 -0.51987,2.37683 -1.98312,1.68325 -2.4012,0.59879 -1.15242,-2.98227 -1.76863,-8.75718 -1.82861,-11.41011 -2.92106,1.28738 -5.06233,3.21512 -7.19268,5.95454 -3.96461,5.09796 -4.33524,11.76106 -4.1542,15.59326 l 0.23867,0.17631 c 0,0 6.31309,3.12697 11.46084,0.0782 4.34433,-2.57144 8.51779,-3.44133 9.05947,-23.78492 -1.60867,0.11144 -3.05193,0.27943 -4.36432,0.51062"
     style="fill:#f5b400;fill-opacity:1;fill-rule:nonzero;stroke:none"
     id="path5216"
     inkscape:connector-curvature="0" />
  <path
     d="m 577.72097,283.30268 c 0.92158,-4.21475 0.90704,-9.50731 0.81797,-12.28333 -1.94313,0.34264 -3.5918,0.82832 -5.04778,1.47201 0.06,2.65293 0.67619,8.42784 1.82861,11.41011 0.41808,1.08446 1.88133,1.77804 2.4012,-0.59879"
     style="fill:#fbcb43;fill-opacity:1;fill-rule:nonzero;stroke:none"
     id="path5218"
     inkscape:connector-curvature="0" />
  <path
     d="m 600.19151,283.30268 c -0.9234,-4.21475 -0.90704,-9.50731 -0.81797,-12.28333 1.94313,0.34264 3.59179,0.82832 5.04596,1.47201 -0.06,2.65293 -0.67619,8.42784 -1.8268,11.41011 -0.41807,1.08446 -1.88314,1.77804 -2.40119,-0.59879"
     style="fill:#fbcb43;fill-opacity:1;fill-rule:nonzero;stroke:none"
     id="path5220"
     inkscape:connector-curvature="0" />
  <path
     d="m 629.98742,397.08957 19.54766,-0.30921 c -1.2724,-13.56621 -3.57907,-25.17409 -8.25422,-30.52154 -1.56869,-1.79301 -4.62426,-3.95195 -8.35965,-6.20071 -1.01429,-0.61042 -2.08128,-1.2275 -3.181,-1.84624 l -8.53051,23.09466 -10.21008,-3.15891 9.21397,-24.94389 c -4.74968,-2.36352 -9.36121,-4.50084 -12.78578,-6.04602 -1.04154,-0.46905 -1.95585,-0.87655 -2.74837,-1.22751 -1.40328,2.01923 -13.2602,7.67605 -15.84862,8.71892 -0.0473,-0.003 -0.0873,-0.015 -0.1327,-0.0183 l 0,22.62411 0,9.66516 0,9.62691 0,13.38292 0,9.6269 0,33.10445 c 0.009,0 0.02,0 0.0291,0 14.36536,0 28.57441,-2.62615 41.31474,-6.91426 -0.27266,-3.99703 -0.0545,-48.65745 -0.0545,-48.65745"
     style="fill:#b2b2b2;fill-opacity:1;fill-rule:nonzero;stroke:none"
     id="path5222"
     inkscape:connector-curvature="0" />
  <path
     d="m 621.2097,381.30653 8.53051,-23.09466 c -3.02285,-1.69987 -6.30564,-3.40473 -9.52662,-5.00814 l -9.21397,24.94389 10.21008,3.15891"
     style="fill:#506aa5;fill-opacity:1;fill-rule:nonzero;stroke:none"
     id="path5224"
     inkscape:connector-curvature="0" />
  <path
     d="m 588.60724,354.64912 c -2.58842,-1.04287 -14.44535,-6.69969 -15.84862,-8.71892 -0.79252,0.35096 -1.70683,0.75846 -2.74838,1.22751 -3.38821,1.52855 -7.93685,3.63759 -12.63163,5.96951 l 9.2416,25.0204 -10.20953,3.15891 -8.56088,-23.17949 c -1.15315,0.64702 -2.27213,1.29237 -3.33295,1.93107 -3.7363,2.24876 -6.79151,4.4077 -8.35929,6.20071 -4.67569,5.34745 -6.98128,16.95533 -8.2544,30.52154 l 16.61369,0 0,13.14957 0,9.6269 0,25.28387 c 13.66119,5.02627 28.56714,7.82058 44.194,7.82058 0.0109,0 0.02,0 0.0291,0 l 0,-33.10445 0,-9.6269 0,-13.38292 0,-9.62691 0,-9.66516 0,-22.62411 c -0.0454,0.003 -0.0854,0.015 -0.13269,0.0183"
     style="fill:#cccccc;fill-opacity:1;fill-rule:nonzero;stroke:none"
     id="path5226"
     inkscape:connector-curvature="0" />
  <path
     d="m 566.62021,378.14762 -9.2416,-25.0204 c -3.2179,1.59841 -6.49977,3.30328 -9.52881,4.99982 l 8.56088,23.17949 10.20953,-3.15891"
     style="fill:#6f85bf;fill-opacity:1;fill-rule:nonzero;stroke:none"
     id="path5228"
     inkscape:connector-curvature="0" />
  <path
     d="m 588.73993,352.58499 c -7.98702,-0.0682 -13.0657,-7.92886 -13.0657,-7.92886 0,0 -1.10335,0.47404 -2.91561,1.27407 1.54505,2.22215 6.77642,10.03292 15.98131,10.06951 l 0,-3.41472"
     style="fill:#999999;fill-opacity:1;fill-rule:nonzero;stroke:none"
     id="path5230"
     inkscape:connector-curvature="0" />
  <path
     d="m 529.72378,401.5954 c 0,3.16805 -0.76962,30.87332 -0.47643,36.45047 4.87801,2.5879 12.97737,6.12952 18.73733,8.00071 l 0.0362,-45.11201 -18.29707,0.66083"
     style="fill:#fbd099;fill-opacity:1;fill-rule:nonzero;stroke:none"
     id="path5232"
     inkscape:connector-curvature="0" />
  <path
     d="m 547.80218,396.78036 -19.89902,0 c -0.17323,1.84774 -0.32792,3.72875 -0.46643,5.6362 l 20.36545,0 0,-5.6362"
     style="fill:#b2b2b2;fill-opacity:1;fill-rule:nonzero;stroke:none"
     id="path5234"
     inkscape:connector-curvature="0" />
  <path
     d="m 588.69812,352.58499 c 7.98702,-0.0682 13.06753,-7.92886 13.06753,-7.92886 0,0 1.10153,0.47404 2.91379,1.27407 -1.54506,2.22215 -6.77643,10.03292 -15.98132,10.06951 l 0,-3.41472"
     style="fill:#808080;fill-opacity:1;fill-rule:nonzero;stroke:none"
     id="path5236"
     inkscape:connector-curvature="0" />
  <path
     d="m 647.71373,401.5954 c 0,3.16805 0.74708,30.95648 0.45443,36.53363 -4.886,2.64828 -13.04753,6.21917 -18.946,8.04363 l 0.54713,-44.48761 17.94444,-0.0897"
     style="fill:#fbd099;fill-opacity:1;fill-rule:nonzero;stroke:none"
     id="path5238"
     inkscape:connector-curvature="0" />
  <path
     d="m 629.87836,396.47232 19.65672,0 c 0.17268,1.84591 0.32719,4.03679 0.46715,5.94424 l -20.12387,0 0,-5.94424"
     style="fill:#999999;fill-opacity:1;fill-rule:nonzero;stroke:none"
     id="path5240"
     inkscape:connector-curvature="0" />
  <path
     d="m 624.74696,407.19733 2.4012,-27.7437 10.1919,-15.55334 c 0,0 -3.64087,14.92113 -6.91457,19.05139 -0.29265,7.52635 -0.14542,28.24068 -0.14542,28.24068 0,0 -2.18489,1.06749 -5.53311,-3.99503"
     style="fill:#999999;fill-opacity:1;fill-rule:nonzero;stroke:none"
     id="path5242"
     inkscape:connector-curvature="0" />
  <path
     d="m 552.89886,407.19733 -2.40283,-27.7437 -10.19045,-15.55334 c 0,0 3.6396,14.92113 6.91439,19.05139 0.29119,7.52635 0.1456,28.24068 0.1456,28.24068 0,0 2.18398,1.06749 5.53329,-3.99503"
     style="fill:#b2b2b2;fill-opacity:1;fill-rule:nonzero;stroke:none"
     id="path5244"
     inkscape:connector-curvature="0" />
  <path
     d="m 557.33662,385.85527 c 0.38481,17.26369 -5.44023,22.6311 -8.3742,24.23583 -0.97629,0.53608 -1.63303,0.65367 -1.63303,0.65367 0,0 0.34646,21.95847 0.16396,35.15361 4.49447,1.59309 9.74529,2.99524 16.40557,4.37144 9.31231,1.91926 18.97162,2.42273 24.73195,2.39679 l 0.009,-71.71286 c -11.53701,0.14487 -23.30124,1.78486 -31.30334,4.90152"
     style="fill:#6f85bf;fill-opacity:1;fill-rule:nonzero;stroke:none"
     id="path5246"
     inkscape:connector-curvature="0" />
  <path
     d="m 630.29098,410.74477 c 0,0 -0.6562,-0.11759 -1.63412,-0.65367 -2.93379,-1.60473 -8.75773,-6.97214 -8.37238,-24.23583 -6.89458,-3.45913 -19.13686,-5.06137 -31.64452,-4.90152 l 0,71.7388 c 15.16879,-0.27411 27.31655,-2.22331 39.65517,-6.2067 0.60712,-0.19693 1.21969,-0.37823 1.82135,-0.58215 -0.18541,-13.17834 0.1745,-35.15893 0.1745,-35.15893"
     style="fill:#506aa5;fill-opacity:1;fill-rule:nonzero;stroke:none"
     id="path5248"
     inkscape:connector-curvature="0" />
  <path
     d="m 568.49791,389.3781 c 0,1.62236 -1.436,2.93602 -3.20645,2.93602 -1.77245,0 -3.20825,-1.31366 -3.20825,-2.93602 0,-1.6197 1.4358,-2.93353 3.20825,-2.93353 1.77045,0 3.20645,1.31383 3.20645,2.93353"
     style="fill:#fbcb43;fill-opacity:1;fill-rule:nonzero;stroke:none"
     id="path5250"
     inkscape:connector-curvature="0" />
  <path
     d="m 609.12192,389.3781 c 0,1.62236 1.43599,2.93602 3.20826,2.93602 1.77045,0 3.20644,-1.31366 3.20644,-2.93602 0,-1.6197 -1.43599,-2.93353 -3.20644,-2.93353 -1.77227,0 -3.20826,1.31383 -3.20826,2.93353"
     style="fill:#f5b400;fill-opacity:1;fill-rule:nonzero;stroke:none"
     id="path5252"
     inkscape:connector-curvature="0" />
  <path
     d="m 562.76285,401.21783 c 0,0 0.52332,20.13884 3.33568,24.06568 4.84238,6.7629 22.06882,6.46201 22.30149,6.45686 l 0,0.0201 c 0,0 0.11088,0.001 0.27811,0.003 l 0,-30.53618 -25.91528,-0.01"
     style="fill:#a8b5d8;fill-opacity:1;fill-rule:nonzero;stroke:none"
     id="path5254"
     inkscape:connector-curvature="0" />
  <path
     d="m 610.72332,425.30364 c 2.81382,-3.92884 3.33732,-24.06618 3.33732,-24.06618 l -25.38251,-0.01 0,30.53618 c 2.17398,0.008 17.51909,-0.13772 22.04519,-6.46018"
     style="fill:#6f85bf;fill-opacity:1;fill-rule:nonzero;stroke:none"
     id="path5256"
     inkscape:connector-curvature="0" />
  <path
     d="m 678.22764,301.8333 -6.5583,-0.0416 -0.06,7.78581 6.5583,0.0416 0.06,-7.78582"
     style="fill:#b2b2b2;fill-opacity:1;fill-rule:nonzero;stroke:none"
     id="path5258"
     inkscape:connector-curvature="0" />
  <path
     d="m 671.3676,340.93371 6.56012,0.0432 0.0509,-6.54833 -6.56012,-0.0416 -0.0509,6.54668"
     style="fill:#b2b2b2;fill-opacity:1;fill-rule:nonzero;stroke:none"
     id="path5260"
     inkscape:connector-curvature="0" />
  <path
     d="m 671.56391,315.47054 -0.0145,1.96267 6.5583,0.0433 0.0145,-1.96434 -6.5583,-0.0416"
     style="fill:#b2b2b2;fill-opacity:1;fill-rule:nonzero;stroke:none"
     id="path5262"
     inkscape:connector-curvature="0" />
  <path
     d="m 678.16766,309.61912 -6.5583,-0.0416 -0.0455,5.89301 6.5583,0.0416 0.0454,-5.893"
     style="fill:#808080;fill-opacity:1;fill-rule:nonzero;stroke:none"
     id="path5264"
     inkscape:connector-curvature="0" />
  <path
     d="m 671.4185,334.38703 6.56012,0.0416 0.12905,-16.95216 -6.5583,-0.0433 -0.13087,16.95382"
     style="fill:#fbcb43;fill-opacity:1;fill-rule:nonzero;stroke:none"
     id="path5266"
     inkscape:connector-curvature="0" />
  <path
     d="m 674.40863,338.33566 -4.76967,-0.0316 c 0,0 -1.72137,17.16173 -2.24669,23.41401 -0.52532,6.25393 -2.30849,26.21497 -2.61205,29.5234 -0.29992,3.24789 4.82057,3.63261 9.1958,3.60067 l 0.43261,-56.50648"
     style="fill:#fbcb43;fill-opacity:1;fill-rule:nonzero;stroke:none"
     id="path5268"
     inkscape:connector-curvature="0" />
  <path
     d="m 674.35955,338.33566 4.77149,0.0299 c 0,0 1.45781,17.18003 1.88679,23.44062 0.42898,6.26059 1.90496,26.23992 2.15944,29.55484 0.24721,3.25172 -4.87874,3.56757 -9.25215,3.48108 l 0.43443,-56.50648"
     style="fill:#f5b400;fill-opacity:1;fill-rule:nonzero;stroke:none"
     id="path5270"
     inkscape:connector-curvature="0" />
  <path
     d="m 685.71297,290.11382 c -3.01194,-0.67862 -4.52246,-2.76271 -6.18021,-2.95066 -2.70112,-0.30771 -9.53935,-0.35262 -13.94184,3.62096 -3.48637,3.1436 -11.77695,11.49327 -12.75488,14.54207 -0.97793,3.05046 1.17424,2.40843 3.81356,0.24284 2.64113,-2.16559 7.50896,-8.64075 10.76085,-8.40622 2.15398,0.15468 2.83744,5.28424 4.22072,6.95584 l 6.61828,0.0798 c 1.72319,-1.76474 2.51208,-7.27851 6.13841,-7.25523 4.35887,0.0299 5.5004,1.51691 5.74579,1.96101 l 2.15944,-9.55056 c 0,0 -3.24643,1.5086 -6.58012,0.76012"
     style="fill:#cccccc;fill-opacity:1;fill-rule:nonzero;stroke:none"
     id="path5272"
     inkscape:connector-curvature="0" />
  <path
     d="m 697.0973,300.23489 -6.98001,-1.31566 2.15762,-9.59048 6.98183,1.31566 -2.15944,9.59048"
     style="fill:#b2b2b2;fill-opacity:1;fill-rule:nonzero;stroke:none"
     id="path5274"
     inkscape:connector-curvature="0" />
  <path
     d="m 672.49276,303.08741 c 0,0 -4.27889,-9.68528 -3.06102,-12.84219 0.90886,-2.36186 8.47235,-2.69784 10.45002,-1.73314 2.30667,1.12438 1.75045,5.11958 0.83433,7.64278 -1.46144,4.03013 -2.85563,6.96748 -2.85563,6.96748 l -5.3677,-0.0349"
     style="fill:#b2b2b2;fill-opacity:1;fill-rule:nonzero;stroke:none"
     id="path5276"
     inkscape:connector-curvature="0" />
  <path
     d="m 711.78803,281.79243 c -4.80784,0 -8.7032,-3.56608 -8.7032,-7.96546 0,-4.39771 3.89536,-7.96379 8.7032,-7.96379 4.80603,0 8.70138,3.56608 8.70138,7.96379 0,4.39938 -3.89535,7.96546 -8.70138,7.96546 z m 9.23034,1.10109 c 0.85069,-0.77842 2.34848,-0.74515 3.82082,-0.0582 0.0727,0.0316 0.1436,0.0782 0.21449,0.1181 1.41237,-1.71485 2.45028,-3.70247 2.96833,-5.87471 -0.1745,-0.0399 -0.35991,-0.0665 -0.52532,-0.1181 -1.56869,-0.46738 -2.65568,-1.41046 -2.65568,-2.51321 0,-1.10276 1.08699,-2.0475 2.65568,-2.51488 0.23812,-0.0699 0.49623,-0.1181 0.75435,-0.168 -0.3381,-2.27204 -1.24877,-4.36777 -2.5557,-6.20403 -0.13088,0.0832 -0.26175,0.16799 -0.39445,0.24284 -0.1545,0.0865 -0.30719,0.18628 -0.4617,0.2578 -1.47234,0.68361 -2.97013,0.71854 -3.82082,-0.0615 -0.85069,-0.77675 -0.81434,-2.14896 -0.0654,-3.49455 0.1127,-0.20458 0.25811,-0.40584 0.40353,-0.6071 0.0745,-0.10478 0.18359,-0.20126 0.26539,-0.30438 -1.97949,-1.33561 -4.28071,-2.29366 -6.79642,-2.71946 -0.26357,2.06247 -1.51961,3.62761 -3.0374,3.62761 -1.5196,0 -2.77564,-1.56514 -3.03921,-3.62761 -2.50299,0.42413 -4.7933,1.37553 -6.76552,2.70117 0.0836,0.10645 0.16541,0.21123 0.24357,0.31935 0.1018,0.13971 0.15633,0.28608 0.24358,0.42912 0.85796,1.40215 0.97793,2.86085 0.0872,3.67585 -0.86341,0.79172 -2.39029,0.7202 -3.88081,0.005 -0.13815,-0.0665 -0.27811,-0.10478 -0.41626,-0.18296 -0.13087,-0.0748 -0.25993,-0.16466 -0.38899,-0.24949 -1.29966,1.83294 -2.20852,3.92035 -2.54661,6.18408 1.9704,0.3576 3.40821,1.42044 3.40821,2.69119 0,1.22085 -1.3233,2.25707 -3.17555,2.65293 0.52169,2.17225 1.56324,4.1582 2.97923,5.87305 1.53597,-0.78507 3.12828,-0.89651 4.02078,-0.0798 0.86341,0.79006 0.78525,2.18721 0.004,3.54944 1.91769,1.1776 4.10439,2.0159 6.47832,2.37849 0.51078,-1.43541 1.54324,-2.43005 2.74838,-2.43005 1.20333,0 2.23579,0.99464 2.74656,2.43005 2.36666,-0.36093 4.54792,-1.19756 6.46015,-2.36851 -0.0127,-0.02 -0.0291,-0.0416 -0.0418,-0.0632 -0.7489,-1.34559 -0.78525,-2.7178 0.0654,-3.49621"
     style="fill:#ffffff;fill-opacity:1;fill-rule:nonzero;stroke:none"
     id="path5278"
     inkscape:connector-curvature="0" />
  <path
     d="m 534.02593,327.02369 c -3.67723,0 -6.65809,-2.72778 -6.65809,-6.09094 0,-3.36481 2.98086,-6.09093 6.65809,-6.09093 3.67596,0 6.65737,2.72612 6.65737,6.09093 0,3.36316 -2.98141,6.09094 -6.65737,6.09094 z m 7.06145,0.84328 c 0.6511,-0.59712 1.79698,-0.56884 2.92178,-0.0466 0.056,0.0266 0.10997,0.0632 0.16396,0.0915 1.08008,-1.31066 1.87533,-2.8309 2.27214,-4.49252 -0.13487,-0.0316 -0.27611,-0.0516 -0.40335,-0.0898 -1.19914,-0.35927 -2.02984,-1.08113 -2.02984,-1.92275 0,-0.84328 0.8307,-1.56515 2.02984,-1.92442 0.18322,-0.0532 0.38135,-0.0915 0.5773,-0.12807 -0.25847,-1.73813 -0.95502,-3.33987 -1.95476,-4.747 -0.1,0.0632 -0.1994,0.12973 -0.30174,0.18628 -0.11779,0.0649 -0.2343,0.14138 -0.35355,0.19793 -1.1248,0.52227 -2.27068,0.55055 -2.92178,-0.0466 -0.65184,-0.59545 -0.62203,-1.64498 -0.0513,-2.67455 0.0874,-0.15635 0.19885,-0.31104 0.30973,-0.46406 0.0574,-0.0798 0.13979,-0.15302 0.20232,-0.23286 -1.51452,-1.02125 -3.27479,-1.75476 -5.19902,-2.0791 -0.20013,1.57679 -1.16224,2.77435 -2.32322,2.77435 -1.16097,0 -2.12308,-1.19756 -2.32394,-2.77435 -1.91496,0.32268 -3.66741,1.05286 -5.17629,2.0658 0.064,0.0798 0.12651,0.16133 0.18613,0.24283 0.0794,0.10812 0.1207,0.21789 0.18668,0.32767 0.65601,1.07448 0.74835,2.19054 0.0667,2.81427 -0.66092,0.60377 -1.82826,0.54889 -2.96869,0.003 -0.10579,-0.0516 -0.21231,-0.0815 -0.3181,-0.13972 -0.10015,-0.0582 -0.19885,-0.12641 -0.29737,-0.19127 -0.99484,1.40214 -1.6892,2.99889 -1.94768,4.73203 1.50597,0.27278 2.6066,1.08446 2.6066,2.05748 0,0.9331 -1.01265,1.72482 -2.42919,2.0292 0.39917,1.66162 1.19642,3.1802 2.27923,4.49252 1.17369,-0.60044 2.39283,-0.68527 3.0752,-0.0615 0.66037,0.60377 0.60075,1.67326 0.003,2.71614 1.46762,0.9015 3.14046,1.54186 4.95617,1.81797 0.39117,-1.09777 1.18005,-1.85789 2.10163,-1.85789 0.92086,0 1.7112,0.76012 2.10182,1.85789 1.8099,-0.27611 3.47692,-0.91481 4.94181,-1.81132 -0.01,-0.015 -0.0235,-0.0316 -0.0334,-0.0482 -0.57077,-1.02957 -0.60058,-2.0791 0.0513,-2.67456"
     style="fill:#ffffff;fill-opacity:1;fill-rule:nonzero;stroke:none"
     id="path5332"
     inkscape:connector-curvature="0" />
  <path
     d="m 665.83813,421.64775 c -3.67723,0 -6.65828,-2.72762 -6.65828,-6.09443 0,-3.36299 2.98105,-6.09044 6.65828,-6.09044 3.67541,0 6.65645,2.72745 6.65645,6.09044 0,3.36681 -2.98104,6.09443 -6.65645,6.09443 z m 7.05998,0.84128 c 0.65256,-0.59512 1.79772,-0.56851 2.92288,-0.0447 0.0545,0.0266 0.10907,0.0617 0.16541,0.0915 1.07972,-1.31233 1.87406,-2.83273 2.27033,-4.49402 -0.13452,-0.0299 -0.27448,-0.0532 -0.40172,-0.0897 -1.20151,-0.3581 -2.0322,-1.08113 -2.0322,-1.92325 0,-0.84262 0.83069,-1.56648 2.0322,-1.92442 0.18177,-0.0526 0.3799,-0.0897 0.57622,-0.12807 -0.25812,-1.73796 -0.95612,-3.34136 -1.95404,-4.74484 -0.1018,0.061 -0.19995,0.12807 -0.30174,0.18446 -0.11815,0.0664 -0.23449,0.14104 -0.35446,0.19759 -1.12516,0.52427 -2.27032,0.54905 -2.92288,-0.0461 -0.65074,-0.59712 -0.62165,-1.64315 -0.0491,-2.67489 0.0873,-0.15468 0.19813,-0.30937 0.30719,-0.46389 0.0582,-0.08 0.14178,-0.15468 0.20358,-0.23136 -1.51415,-1.02275 -3.27551,-1.75626 -5.19865,-2.08043 -0.19995,1.57696 -1.16152,2.77435 -2.32303,2.77435 -1.16152,0 -2.12309,-1.19739 -2.32486,-2.77435 -1.91404,0.32417 -3.66632,1.05119 -5.17502,2.06546 0.0636,0.0818 0.12542,0.16184 0.18541,0.24301 0.08,0.10778 0.11997,0.21955 0.18722,0.3275 0.65438,1.07464 0.74708,2.19087 0.0654,2.8146 -0.65983,0.60361 -1.8268,0.55022 -2.96832,0.003 -0.10543,-0.0501 -0.21267,-0.0798 -0.31628,-0.13971 -0.10179,-0.0566 -0.19995,-0.12658 -0.29811,-0.18962 -0.99428,1.40082 -1.69047,2.99707 -1.94858,4.72854 1.50688,0.27295 2.60659,1.08762 2.60659,2.05898 0,0.93377 -1.01246,1.72698 -2.42846,2.02787 0.39808,1.66129 1.19606,3.18169 2.27759,4.49402 1.17425,-0.60028 2.39393,-0.68544 3.07557,-0.0617 0.66165,0.6056 0.60166,1.67376 0.004,2.71647 1.46689,0.89984 3.141,1.54186 4.95508,1.81997 0.39262,-1.0981 1.18151,-1.85955 2.10309,-1.85955 0.91976,0 1.71046,0.76145 2.10127,1.85955 1.80862,-0.27628 3.47728,-0.9168 4.94235,-1.81148 -0.0109,-0.0181 -0.0236,-0.0331 -0.0327,-0.0501 -0.57258,-1.02974 -0.60167,-2.0771 0.0491,-2.67489"
     style="fill:#ffffff;fill-opacity:1;fill-rule:nonzero;stroke:none"
     id="path5334"
     inkscape:connector-curvature="0" />
  <path
     d="m 467.71367,365.5037 c -4.80566,0 -8.70229,-3.56608 -8.70229,-7.96379 0,-4.39938 3.89663,-7.96379 8.70229,-7.96379 4.80766,0 8.70356,3.56441 8.70356,7.96379 0,4.39771 -3.8959,7.96379 -8.70356,7.96379 z m 9.23124,1.10109 c 0.85124,-0.77842 2.34939,-0.74349 3.82065,-0.0582 0.0718,0.0316 0.14269,0.0782 0.21449,0.1181 1.41218,-1.71485 2.45173,-3.70247 2.96941,-5.87471 -0.17541,-0.0399 -0.36009,-0.0665 -0.52623,-0.1181 -1.56923,-0.46738 -2.65476,-1.41046 -2.65476,-2.51321 0,-1.1011 1.08553,-2.04584 2.65476,-2.51488 0.23867,-0.0699 0.49787,-0.1181 0.75417,-0.168 -0.33737,-2.27204 -1.24895,-4.36777 -2.55479,-6.20403 -0.13142,0.0832 -0.26121,0.16799 -0.39481,0.24284 -0.15396,0.0865 -0.30665,0.18462 -0.46224,0.2578 -1.47126,0.68528 -2.96941,0.71854 -3.82065,-0.0599 -0.85141,-0.77842 -0.81379,-2.14896 -0.0654,-3.49622 0.1136,-0.20458 0.2592,-0.40584 0.40335,-0.6071 0.0752,-0.10479 0.18395,-0.20126 0.26556,-0.30438 -1.97967,-1.33561 -4.28089,-2.29366 -6.7966,-2.71946 -0.26266,2.06413 -1.51942,3.62761 -3.03812,3.62761 -1.51743,0 -2.77419,-1.56348 -3.03758,-3.62761 -2.50298,0.42413 -4.79366,1.37719 -6.76679,2.70116 0.0845,0.10645 0.16541,0.21124 0.2443,0.31769 0.10216,0.14138 0.15687,0.28775 0.24358,0.43079 0.85759,1.40215 0.97774,2.86084 0.0858,3.67752 -0.86341,0.79005 -2.38847,0.71853 -3.87954,0.003 -0.13851,-0.0665 -0.27847,-0.10478 -0.4148,-0.18296 -0.13197,-0.0749 -0.25975,-0.16466 -0.38972,-0.24949 -1.30021,1.83293 -2.20906,3.92035 -2.5477,6.18408 1.97113,0.3576 3.40821,1.42044 3.40821,2.69119 0,1.22084 -1.32348,2.25707 -3.17536,2.65293 0.52186,2.17224 1.56505,4.1582 2.97941,5.87304 1.53433,-0.78506 3.12919,-0.89484 4.0195,-0.0798 0.86414,0.79006 0.78598,2.18555 0.005,3.5511 1.91769,1.17761 4.10548,2.0144 6.47905,2.37683 0.51132,-1.43508 1.54287,-2.43005 2.74656,-2.43005 1.20478,0 2.23651,0.99497 2.74856,2.43005 2.36575,-0.3611 4.54555,-1.19606 6.45996,-2.36851 -0.0136,-0.02 -0.0305,-0.0416 -0.0427,-0.0632 -0.74836,-1.34559 -0.78598,-2.71613 0.0654,-3.49621"
     style="fill:#ffffff;fill-opacity:1;fill-rule:nonzero;stroke:none"
     id="path5336"
     inkscape:connector-curvature="0" />
  <path
     d="m 684.73505,333.06972 c -0.0109,-1.41213 0.66528,-3.01553 1.2833,-4.22806 0.45261,-0.8882 1.25058,-2.08909 1.82135,-2.59639 0.47442,-0.42081 0.63619,0.0582 0.38899,0.41582 -0.66892,0.96471 -1.46144,2.7677 -1.85225,3.84551 2.03583,-2.21383 5.21501,-4.43597 7.73799,-6.05933 2.22124,-1.42543 5.17502,-2.95399 7.7489,-3.40807 1.0052,-0.1763 0.99065,0.27611 -0.0236,0.56219 -6.35108,1.79967 -10.64088,6.25727 -15.62504,10.08614 2.91197,-0.66365 4.07894,-0.78008 5.48949,-0.58714 0.86341,0.11976 0.66164,0.42746 -0.0473,0.51063 -0.48715,0.0582 -3.859,0.62539 -5.51857,1.45537 -0.68164,0.33931 -1.39964,0.53391 -1.40327,0.003"
     style="fill:#5dc6bc;fill-opacity:1;fill-rule:nonzero;stroke:none"
     id="path5338"
     inkscape:connector-curvature="0" />
  <path
     d="m 712.00979,324.76662 c -4.42976,-3.71245 0.0291,-6.45686 2.68294,-8.93515 1.40328,-1.30734 2.63205,-2.72279 3.51364,-4.37443 1.66502,-3.11699 -0.18359,-5.94456 -3.08284,-7.52801 -2.9974,-1.63833 -7.65438,-1.91942 -10.33368,1.97099 -1.08699,1.57845 -0.24176,3.85715 1.13425,4.68879 1.86133,1.12604 2.08128,0.0565 1.94313,-0.002 -0.45988,-0.62373 -1.04337,-0.8516 -1.59958,-1.75476 -1.27422,-2.05915 0.47987,-3.93366 3.43365,-4.41269 0.87796,-0.11643 2.13945,-0.0366 2.99195,0.21456 2.94469,0.87323 4.46066,2.61302 4.12075,5.05471 -0.349,2.51821 -3.17554,4.81687 -5.03869,6.44522 -2.88653,2.52819 -5.98936,7.89559 -0.38536,9.63871 0.61621,0.19294 1.08336,-0.61708 0.61984,-1.00628"
     style="fill:#5dc6bc;fill-opacity:1;fill-rule:nonzero;stroke:none"
     id="path5340"
     inkscape:connector-curvature="0" />
  <path
     d="m 714.77998,329.27744 c -0.22903,0.74348 -1.06154,1.09443 -1.85951,1.16097 -0.99611,0.0832 -1.4778,-1.06118 -1.23786,-1.78803 0.17813,-0.54223 0.78343,-0.99797 1.35237,-1.06284 1.83589,-0.2129 1.83771,1.38884 1.745,1.6899 z m -1.78681,-2.49493 c -0.80161,0.1314 -1.52324,0.55388 -1.99948,1.14101 -0.97611,1.20256 -0.1745,3.15857 1.42691,3.44965 1.2633,0.22953 2.57206,-0.49566 3.26279,-1.42876 0.72526,-0.98134 0.31628,-3.64591 -2.69022,-3.1619"
     style="fill:#5dc6bc;fill-opacity:1;fill-rule:nonzero;stroke:none"
     id="path5342"
     inkscape:connector-curvature="0" />
  <path
     d="m 539.34056,335.68439 c -0.70855,0.45741 -0.89395,1.00629 0.48423,0.58714 1.6154,-0.49067 2.66622,-0.66032 4.31634,-0.9148 1.47344,-0.22787 2.39647,-0.27611 3.3913,-0.16799 -10.91335,3.74071 -22.93096,13.74701 -27.36236,23.68512 -0.46861,1.05119 -0.27902,2.01257 0.8067,0.25448 2.83654,-4.59897 6.0019,-8.61247 10.1181,-12.38812 4.51447,-4.13824 9.88017,-6.95251 15.20915,-9.80504 -0.80015,0.89152 -1.57922,2.7045 -1.68992,3.03383 -0.37209,1.09776 0.45024,1.23581 0.84432,0.58547 1.50525,-2.48494 2.25924,-3.42137 3.90445,-4.73536 1.15806,-0.92645 1.408,-1.40714 -0.0425,-1.81797 -0.60002,-0.16799 -1.32438,-0.32101 -2.13726,-0.37257 -2.83163,-0.18629 -6.31164,1.06117 -7.84251,2.05581"
     style="fill:#5dc6bc;fill-opacity:1;fill-rule:nonzero;stroke:none"
     id="path5344"
     inkscape:connector-curvature="0" />
  <path
     d="m 628.57688,331.22015 c 0,0 -2.6266,-0.69359 -4.23345,-2.36851 -1.23059,-1.28406 -2.09764,-3.90539 -2.10127,-3.89874 -0.002,-0.007 -0.87069,2.61468 -2.10128,3.89874 -1.60504,1.67492 -4.23163,2.36851 -4.23163,2.36851 0,0 2.56116,0.83663 4.01169,2.30198 1.45599,1.46868 2.32849,3.74404 2.33212,3.74903 0,0 0.85614,-2.28035 2.31031,-3.74903 1.45053,-1.46535 4.01351,-2.30198 4.01351,-2.30198"
     style="fill:#ffffff;fill-opacity:1;fill-rule:nonzero;stroke:none"
     id="path5346"
     inkscape:connector-curvature="0" />
  <path
     d="m 466.12026,294.43003 c 0,0 -2.62641,-0.69358 -4.23326,-2.37017 -1.22986,-1.28239 -2.09819,-3.90372 -2.10109,-3.89707 -0.001,-0.007 -0.87051,2.61468 -2.09964,3.89707 -1.6074,1.67659 -4.23399,2.37017 -4.23399,2.37017 0,0 2.5626,0.83497 4.01332,2.30032 1.45489,1.47034 2.3274,3.74571 2.32958,3.7507 0,0 0.85777,-2.28036 2.31194,-3.7507 1.45126,-1.46535 4.01314,-2.30032 4.01314,-2.30032"
     style="fill:#ffffff;fill-opacity:1;fill-rule:nonzero;stroke:none"
     id="path5348"
     inkscape:connector-curvature="0" />
  <path
     d="m 547.46281,238.71012 c 0,0 -2.62641,-0.69359 -4.23326,-2.37017 -1.22987,-1.28239 -2.09819,-3.90372 -2.10109,-3.89707 -0.001,-0.007 -0.87051,2.61468 -2.09964,3.89707 -1.6074,1.67658 -4.234,2.37017 -4.234,2.37017 0,0 2.56261,0.83497 4.01333,2.30032 1.45489,1.47034 2.32739,3.74571 2.32958,3.7507 0,0 0.85777,-2.28036 2.31194,-3.7507 1.45126,-1.46535 4.01314,-2.30032 4.01314,-2.30032"
     style="fill:#ffffff;fill-opacity:1;fill-rule:nonzero;stroke:none"
     id="path5350"
     inkscape:connector-curvature="0" />
  <path
     d="m 708.66521,394.57252 c 0,0 -2.62478,-0.69325 -4.23345,-2.37017 -1.22877,-1.28189 -2.09764,-3.90339 -2.09946,-3.8969 -0.002,-0.006 -0.87068,2.61501 -2.10127,3.8969 -1.60686,1.67692 -4.23345,2.37017 -4.23345,2.37017 0,0 2.56297,0.83697 4.01351,2.30199 1.45598,1.46901 2.32848,3.74437 2.3303,3.74953 0,0 0.85614,-2.28052 2.31213,-3.74953 1.45053,-1.46502 4.01169,-2.30199 4.01169,-2.30199"
     style="fill:#ffffff;fill-opacity:1;fill-rule:nonzero;stroke:none"
     id="path5352"
     inkscape:connector-curvature="0" />
  <path
     d="m 494.8919,312.64296 c 0,0 -3.43311,-0.90649 -5.53475,-3.09869 -1.60831,-1.67825 -2.74438,-5.10627 -2.74711,-5.09629 -0.003,-0.01 -1.13897,3.41804 -2.74728,5.09629 -2.10164,2.1922 -5.53548,3.09869 -5.53548,3.09869 0,0 3.35077,1.09444 5.24791,3.01054 1.90224,1.91943 3.04467,4.8967 3.04612,4.90169 0,0 1.12044,-2.98226 3.0234,-4.90169 1.89715,-1.9161 5.24719,-3.01054 5.24719,-3.01054"
     style="fill:#ffffff;fill-opacity:1;fill-rule:nonzero;stroke:none"
     id="path5354"
     inkscape:connector-curvature="0" />
  <path
     d="m 525.81497,442.5966 c 0,0 -3.43365,-0.90632 -5.53547,-3.09852 -1.60831,-1.67692 -2.74366,-5.10611 -2.74638,-5.09646 -0.004,-0.01 -1.13825,3.41954 -2.74729,5.09646 -2.10091,2.1922 -5.53547,3.09852 -5.53547,3.09852 0,0 3.35004,1.09278 5.24718,3.01071 1.90296,1.92125 3.04539,4.89636 3.04685,4.90352 0,0 1.12043,-2.98227 3.0234,-4.90352 1.89714,-1.91793 5.24718,-3.01071 5.24718,-3.01071"
     style="fill:#ffffff;fill-opacity:1;fill-rule:nonzero;stroke:none"
     id="path5356"
     inkscape:connector-curvature="0" />
  <path
     d="m 532.61793,486.20633 c 1.63522,0 2.96378,0.72835 3.80229,1.55151 l -1.30784,1.34759 c -0.69528,-0.61724 -1.45144,-1.00961 -2.47391,-1.00961 -2.18688,0 -3.76102,1.68141 -3.76102,4.43231 0,2.78799 1.45053,4.4694 3.67941,4.4694 1.18569,0 2.06401,-0.44692 2.82109,-1.21436 l 1.30784,1.32747 c -1.08354,1.14084 -2.4739,1.77622 -4.17019,1.77622 -3.39258,0 -6.07152,-2.24543 -6.07152,-6.30351 0,-4.00168 2.74002,-6.37702 6.17385,-6.37702"
     style="fill:#ffffff;fill-opacity:1;fill-rule:nonzero;stroke:none"
     id="path5358"
     inkscape:connector-curvature="0" />
  <path
     d="m 544.33653,493.65085 -0.47006,-1.49696 c -0.40825,-1.29037 -0.81797,-2.69434 -1.20568,-4.03994 l -0.0816,0 c -0.36863,1.36572 -0.75689,2.74957 -1.18587,4.03994 l -0.47079,1.49696 3.41402,0 z m 0.53168,1.70153 -4.47665,0 -1.04246,3.31043 -2.43264,0 4.37468,-12.23227 2.77983,0 4.35396,12.23227 -2.51353,0 -1.04319,-3.31043"
     style="fill:#ffffff;fill-opacity:1;fill-rule:nonzero;stroke:none"
     id="path5360"
     inkscape:connector-curvature="0" />
  <path
     d="m 552.19177,492.15389 1.88006,0 c 1.8397,0 2.82108,-0.71138 2.82108,-2.0954 0,-1.40198 -0.98138,-1.88799 -2.82108,-1.88799 l -1.88006,0 0,3.98339 z m 4.90636,6.50892 -2.88361,-4.78908 -2.02275,0 0,4.78908 -2.37084,0 0,-12.23227 4.49592,0 c 2.78128,0 4.92691,0.89851 4.92691,3.62795 0,1.86936 -1.06282,2.99208 -2.67749,3.49822 l 3.18881,5.1061 -2.65695,0"
     style="fill:#ffffff;fill-opacity:1;fill-rule:nonzero;stroke:none"
     id="path5362"
     inkscape:connector-curvature="0" />
  <path
     d="m 566.09671,492.43399 c 2.00312,0 2.94469,-0.72902 2.94469,-2.22597 0,-1.53338 -1.00156,-2.03752 -2.94469,-2.03752 l -1.92096,0 0,4.26349 1.92096,0 z m -4.2918,-6.00345 4.4972,0 c 2.92288,0 5.0696,0.93493 5.0696,3.77748 0,2.71315 -2.20852,3.96526 -5.0696,3.96526 l -2.12636,0 0,4.48953 -2.37084,0 0,-12.23227"
     style="fill:#ffffff;fill-opacity:1;fill-rule:nonzero;stroke:none"
     id="path5364"
     inkscape:connector-curvature="0" />
  <path
     d="m 573.62749,486.43054 8.03246,0 0,1.83161 -5.66217,0 0,3.12381 4.80421,0 0,1.8341 -4.80421,0 0,3.60982 5.86575,0 0,1.83293 -8.23604,0 0,-12.23227"
     style="fill:#ffffff;fill-opacity:1;fill-rule:nonzero;stroke:none"
     id="path5366"
     inkscape:connector-curvature="0" />
  <path
     d="m 584.34471,486.43054 2.43028,0 4.15165,6.88316 1.38873,2.59954 0.0818,0 c -0.12178,-1.25278 -0.30719,-2.80629 -0.30719,-4.17134 l 0,-5.31136 2.25033,0 0,12.23227 -2.43392,0 -4.14983,-6.88315 -1.38873,-2.59955 -0.0818,0 c 0.12179,1.28905 0.30538,2.76787 0.30538,4.13359 l 0,5.34911 -2.24669,0 0,-12.23227"
     style="fill:#ffffff;fill-opacity:1;fill-rule:nonzero;stroke:none"
     id="path5368"
     inkscape:connector-curvature="0" />
  <path
     d="m 600.19151,488.26215 -3.86264,0 0,-1.83161 10.07739,0 0,1.83161 -3.84446,0 0,10.40066 -2.37029,0 0,-10.40066"
     style="fill:#ffffff;fill-opacity:1;fill-rule:nonzero;stroke:none"
     id="path5370"
     inkscape:connector-curvature="0" />
  <path
     d="m 610.76513,492.15389 1.88133,0 c 1.83952,0 2.82109,-0.71138 2.82109,-2.0954 0,-1.40198 -0.98157,-1.88799 -2.82109,-1.88799 l -1.88133,0 0,3.98339 z m 4.906,6.50892 -2.88289,-4.78908 -2.02311,0 0,4.78908 -2.37029,0 0,-12.23227 4.49701,0 c 2.77928,0 4.926,0.89851 4.926,3.62795 0,1.86936 -1.06336,2.99208 -2.67749,3.49822 l 3.18826,5.1061 -2.65749,0"
     style="fill:#ffffff;fill-opacity:1;fill-rule:nonzero;stroke:none"
     id="path5372"
     inkscape:connector-curvature="0" />
  <path
     d="m 622.28033,494.11856 -4.02623,-7.68802 2.53389,0 1.45235,3.12381 c 0.38717,0.91481 0.77616,1.75626 1.18514,2.69302 l 0.0818,0 c 0.42898,-0.93676 0.85796,-1.77821 1.24695,-2.69302 l 1.45053,-3.12381 2.47391,0 -4.02623,7.68802 0,4.54425 -2.37211,0 0,-4.54425"
     style="fill:#ffffff;fill-opacity:1;fill-rule:nonzero;stroke:none"
     id="path5374"
     inkscape:connector-curvature="0" />
</svg>
