<?xml version="1.0" standalone="no"?><!-- Generator: Gravit.io --><svg xmlns="http://www.w3.org/2000/svg" xmlns:xlink="http://www.w3.org/1999/xlink" style="isolation:isolate" viewBox="0 0 728 458" width="728" height="458"><defs><clipPath id="_clipPath_l9QCEbf9yUz5VEC4G2ywlzeKIWmcEWKA"><rect width="728" height="458"/></clipPath></defs><g clip-path="url(#_clipPath_l9QCEbf9yUz5VEC4G2ywlzeKIWmcEWKA)"><rect width="728" height="458" style="fill:rgb(24,37,56)" fill-opacity="0"/><g><path d=" M 174.655 381.393 L 163.622 381.393 C 162.606 381.393 161.783 380.628 161.783 379.688 C 161.783 378.744 162.606 377.984 163.622 377.984 L 174.655 377.984 C 175.671 377.984 176.493 378.744 176.493 379.688 C 176.493 380.628 175.671 381.393 174.655 381.393 Z  M 196.719 381.393 L 185.687 381.393 C 184.671 381.393 183.848 380.628 183.848 379.688 C 183.848 378.744 184.671 377.984 185.687 377.984 L 196.719 377.984 C 197.736 377.984 198.558 378.744 198.558 379.688 C 198.558 380.628 197.736 381.393 196.719 381.393 Z  M 218.784 381.393 L 207.752 381.393 C 206.736 381.393 205.913 380.628 205.913 379.688 C 205.913 378.744 206.736 377.984 207.752 377.984 L 218.784 377.984 C 219.801 377.984 220.623 378.744 220.623 379.688 C 220.623 380.628 219.801 381.393 218.784 381.393 Z  M 240.849 381.393 L 229.816 381.393 C 228.801 381.393 227.978 380.628 227.978 379.688 C 227.978 378.744 228.801 377.984 229.816 377.984 L 240.849 377.984 C 241.866 377.984 242.687 378.744 242.687 379.688 C 242.687 380.628 241.866 381.393 240.849 381.393 Z  M 262.913 381.393 L 251.881 381.393 C 250.865 381.393 250.042 380.628 250.042 379.688 C 250.042 378.744 250.865 377.984 251.881 377.984 L 262.913 377.984 C 263.93 377.984 264.752 378.744 264.752 379.688 C 264.752 380.628 263.93 381.393 262.913 381.393 Z  M 284.978 381.393 L 273.946 381.393 C 272.93 381.393 272.107 380.628 272.107 379.688 C 272.107 378.744 272.93 377.984 273.946 377.984 L 284.978 377.984 C 285.995 377.984 286.817 378.744 286.817 379.688 C 286.817 380.628 285.995 381.393 284.978 381.393 Z  M 307.043 381.393 L 296.01 381.393 C 294.995 381.393 294.172 380.628 294.172 379.688 C 294.172 378.744 294.995 377.984 296.01 377.984 L 307.043 377.984 C 308.06 377.984 308.882 378.744 308.882 379.688 C 308.882 380.628 308.06 381.393 307.043 381.393 Z  M 329.108 381.393 L 318.075 381.393 C 317.059 381.393 316.236 380.628 316.236 379.688 C 316.236 378.744 317.059 377.984 318.075 377.984 L 329.108 377.984 C 330.124 377.984 330.946 378.744 330.946 379.688 C 330.946 380.628 330.124 381.393 329.108 381.393 Z  M 351.172 381.393 L 340.14 381.393 C 339.124 381.393 338.301 380.628 338.301 379.688 C 338.301 378.744 339.124 377.984 340.14 377.984 L 351.172 377.984 C 352.189 377.984 353.011 378.744 353.011 379.688 C 353.011 380.628 352.189 381.393 351.172 381.393 Z  M 373.237 381.393 L 362.205 381.393 C 361.189 381.393 360.366 380.628 360.366 379.688 C 360.366 378.744 361.189 377.984 362.205 377.984 L 373.237 377.984 C 374.254 377.984 375.076 378.744 375.076 379.688 C 375.076 380.628 374.254 381.393 373.237 381.393 Z  M 395.302 381.393 L 384.269 381.393 C 383.254 381.393 382.431 380.628 382.431 379.688 C 382.431 378.744 383.254 377.984 384.269 377.984 L 395.302 377.984 C 396.319 377.984 397.14 378.744 397.14 379.688 C 397.14 380.628 396.319 381.393 395.302 381.393 Z  M 417.367 381.393 L 406.335 381.393 C 405.32 381.393 404.495 380.628 404.495 379.688 C 404.495 378.744 405.32 377.984 406.335 377.984 L 417.367 377.984 C 418.382 377.984 419.206 378.744 419.206 379.688 C 419.206 380.628 418.382 381.393 417.367 381.393 Z  M 439.432 381.393 L 428.4 381.393 C 427.385 381.393 426.561 380.628 426.561 379.688 C 426.561 378.744 427.385 377.984 428.4 377.984 L 439.432 377.984 C 440.447 377.984 441.271 378.744 441.271 379.688 C 441.271 380.628 440.447 381.393 439.432 381.393 Z " fill="rgb(93,198,188)"/><path d=" M 544.482 -40.094 C 543.467 -40.094 542.643 -40.854 542.643 -41.799 L 542.643 -43.353 C 542.643 -44.294 543.467 -45.057 544.482 -45.057 C 545.501 -45.057 546.321 -44.294 546.321 -43.353 L 546.321 -41.799 C 546.321 -40.854 545.501 -40.094 544.482 -40.094 Z  M 544.482 -19.644 C 543.467 -19.644 542.643 -20.404 542.643 -21.348 L 542.643 -31.573 C 542.643 -32.514 543.467 -33.277 544.482 -33.277 C 545.501 -33.277 546.321 -32.514 546.321 -31.573 L 546.321 -21.348 C 546.321 -20.404 545.501 -19.644 544.482 -19.644 Z  M 544.482 0.807 C 543.467 0.807 542.643 0.047 542.643 -0.897 L 542.643 -11.123 C 542.643 -12.063 543.467 -12.827 544.482 -12.827 C 545.501 -12.827 546.321 -12.063 546.321 -11.123 L 546.321 -0.897 C 546.321 0.047 545.501 0.807 544.482 0.807 Z  M 544.482 21.258 C 543.467 21.258 542.643 20.498 542.643 19.554 L 542.643 9.328 C 542.643 8.388 543.467 7.624 544.482 7.624 C 545.501 7.624 546.321 8.388 546.321 9.328 L 546.321 19.554 C 546.321 20.498 545.501 21.258 544.482 21.258 Z  M 544.482 41.709 C 543.467 41.709 542.643 40.949 542.643 40.004 L 542.643 29.779 C 542.643 28.838 543.467 28.075 544.482 28.075 C 545.501 28.075 546.321 28.838 546.321 29.779 L 546.321 40.004 C 546.321 40.949 545.501 41.709 544.482 41.709 Z  M 544.482 62.159 C 543.467 62.159 542.643 61.399 542.643 60.455 L 542.643 50.23 C 542.643 49.289 543.467 48.526 544.482 48.526 C 545.501 48.526 546.321 49.289 546.321 50.23 L 546.321 60.455 C 546.321 61.399 545.501 62.159 544.482 62.159 Z  M 544.482 82.61 C 543.467 82.61 542.643 81.85 542.643 80.906 L 542.643 70.681 C 542.643 69.74 543.467 68.976 544.482 68.976 C 545.501 68.976 546.321 69.74 546.321 70.681 L 546.321 80.906 C 546.321 81.85 545.501 82.61 544.482 82.61 Z  M 544.482 103.061 C 543.467 103.061 542.643 102.301 542.643 101.357 L 542.643 91.131 C 542.643 90.191 543.467 89.427 544.482 89.427 C 545.501 89.427 546.321 90.191 546.321 91.131 L 546.321 101.357 C 546.321 102.301 545.501 103.061 544.482 103.061 Z  M 544.482 123.512 C 543.467 123.512 542.643 122.752 542.643 121.807 L 542.643 111.582 C 542.643 110.641 543.467 109.878 544.482 109.878 C 545.501 109.878 546.321 110.641 546.321 111.582 L 546.321 121.807 C 546.321 122.752 545.501 123.512 544.482 123.512 Z  M 544.482 143.962 C 543.467 143.962 542.643 143.202 542.643 142.258 L 542.643 132.033 C 542.643 131.092 543.467 130.329 544.482 130.329 C 545.501 130.329 546.321 131.092 546.321 132.033 L 546.321 142.258 C 546.321 143.202 545.501 143.962 544.482 143.962 Z  M 544.482 164.413 C 543.467 164.413 542.643 163.653 542.643 162.709 L 542.643 152.484 C 542.643 151.543 543.467 150.779 544.482 150.779 C 545.501 150.779 546.321 151.543 546.321 152.484 L 546.321 162.709 C 546.321 163.653 545.501 164.413 544.482 164.413 Z  M 544.482 184.864 C 543.467 184.864 542.643 184.104 542.643 183.16 L 542.643 172.934 C 542.643 171.994 543.467 171.23 544.482 171.23 C 545.501 171.23 546.321 171.994 546.321 172.934 L 546.321 183.16 C 546.321 184.104 545.501 184.864 544.482 184.864 Z  M 544.482 205.315 C 543.467 205.315 542.643 204.555 542.643 203.61 L 542.643 193.385 C 542.643 192.444 543.467 191.681 544.482 191.681 C 545.501 191.681 546.321 192.444 546.321 193.385 L 546.321 203.61 C 546.321 204.555 545.501 205.315 544.482 205.315 Z  M 544.482 225.765 C 543.467 225.765 542.643 225.005 542.643 224.061 L 542.643 213.836 C 542.643 212.895 543.467 212.132 544.482 212.132 C 545.501 212.132 546.321 212.895 546.321 213.836 L 546.321 224.061 C 546.321 225.005 545.501 225.765 544.482 225.765 Z " fill="rgb(93,198,188)"/><path d=" M 548.523 234.464 C 548.523 236.611 546.648 238.349 544.335 238.349 C 542.018 238.349 540.143 236.611 540.143 234.464 C 540.143 232.32 542.018 230.578 544.335 230.578 C 546.648 230.578 548.523 232.32 548.523 234.464 Z " fill="rgb(93,198,188)"/><path d=" M 193.809 404.689 L 182.776 404.689 C 181.761 404.689 180.937 403.928 180.937 402.984 C 180.937 402.044 181.761 401.28 182.776 401.28 L 193.809 401.28 C 194.826 401.28 195.647 402.044 195.647 402.984 C 195.647 403.928 194.826 404.689 193.809 404.689 Z  M 215.873 404.689 L 204.841 404.689 C 203.826 404.689 203.002 403.928 203.002 402.984 C 203.002 402.044 203.826 401.28 204.841 401.28 L 215.873 401.28 C 216.89 401.28 217.712 402.044 217.712 402.984 C 217.712 403.928 216.89 404.689 215.873 404.689 Z  M 237.938 404.689 L 226.906 404.689 C 225.89 404.689 225.067 403.928 225.067 402.984 C 225.067 402.044 225.89 401.28 226.906 401.28 L 237.938 401.28 C 238.955 401.28 239.777 402.044 239.777 402.984 C 239.777 403.928 238.955 404.689 237.938 404.689 Z  M 260.003 404.689 L 248.97 404.689 C 247.955 404.689 247.132 403.928 247.132 402.984 C 247.132 402.044 247.955 401.28 248.97 401.28 L 260.003 401.28 C 261.02 401.28 261.841 402.044 261.841 402.984 C 261.841 403.928 261.02 404.689 260.003 404.689 Z  M 282.067 404.689 L 271.035 404.689 C 270.02 404.689 269.196 403.928 269.196 402.984 C 269.196 402.044 270.02 401.28 271.035 401.28 L 282.067 401.28 C 283.085 401.28 283.906 402.044 283.906 402.984 C 283.906 403.928 283.085 404.689 282.067 404.689 Z  M 304.132 404.689 L 293.1 404.689 C 292.084 404.689 291.261 403.928 291.261 402.984 C 291.261 402.044 292.084 401.28 293.1 401.28 L 304.132 401.28 C 305.149 401.28 305.971 402.044 305.971 402.984 C 305.971 403.928 305.149 404.689 304.132 404.689 Z  M 326.197 404.689 L 315.164 404.689 C 314.149 404.689 313.326 403.928 313.326 402.984 C 313.326 402.044 314.149 401.28 315.164 401.28 L 326.197 401.28 C 327.214 401.28 328.036 402.044 328.036 402.984 C 328.036 403.928 327.214 404.689 326.197 404.689 Z  M 348.262 404.689 L 337.229 404.689 C 336.214 404.689 335.39 403.928 335.39 402.984 C 335.39 402.044 336.214 401.28 337.229 401.28 L 348.262 401.28 C 349.279 401.28 350.1 402.044 350.1 402.984 C 350.1 403.928 349.279 404.689 348.262 404.689 Z  M 370.326 404.689 L 359.294 404.689 C 358.279 404.689 357.455 403.928 357.455 402.984 C 357.455 402.044 358.279 401.28 359.294 401.28 L 370.326 401.28 C 371.343 401.28 372.165 402.044 372.165 402.984 C 372.165 403.928 371.343 404.689 370.326 404.689 Z  M 392.391 404.689 L 381.359 404.689 C 380.343 404.689 379.52 403.928 379.52 402.984 C 379.52 402.044 380.343 401.28 381.359 401.28 L 392.391 401.28 C 393.408 401.28 394.23 402.044 394.23 402.984 C 394.23 403.928 393.408 404.689 392.391 404.689 Z  M 414.455 404.689 L 403.423 404.689 C 402.408 404.689 401.585 403.928 401.585 402.984 C 401.585 402.044 402.408 401.28 403.423 401.28 L 414.455 401.28 C 415.473 401.28 416.293 402.044 416.293 402.984 C 416.293 403.928 415.473 404.689 414.455 404.689 Z  M 436.519 404.689 L 425.487 404.689 C 424.472 404.689 423.648 403.928 423.648 402.984 C 423.648 402.044 424.472 401.28 425.487 401.28 L 436.519 401.28 C 437.538 401.28 438.358 402.044 438.358 402.984 C 438.358 403.928 437.538 404.689 436.519 404.689 Z  M 458.584 404.689 L 447.552 404.689 C 446.537 404.689 445.713 403.928 445.713 402.984 C 445.713 402.044 446.537 401.28 447.552 401.28 L 458.584 401.28 C 459.603 401.28 460.423 402.044 460.423 402.984 C 460.423 403.928 459.603 404.689 458.584 404.689 Z " fill="rgb(255,255,255)"/><path d=" M 528.022 -25.878 C 527.007 -25.878 526.183 -26.638 526.183 -27.582 L 526.183 -37.807 C 526.183 -38.748 527.007 -39.512 528.022 -39.512 C 529.04 -39.512 529.86 -38.748 529.86 -37.807 L 529.86 -27.582 C 529.86 -26.638 529.04 -25.878 528.022 -25.878 Z  M 528.022 -5.427 C 527.007 -5.427 526.183 -6.187 526.183 -7.131 L 526.183 -17.357 C 526.183 -18.297 527.007 -19.061 528.022 -19.061 C 529.04 -19.061 529.86 -18.297 529.86 -17.357 L 529.86 -7.131 C 529.86 -6.187 529.04 -5.427 528.022 -5.427 Z  M 528.022 15.024 C 527.007 15.024 526.183 14.264 526.183 13.32 L 526.183 3.094 C 526.183 2.153 527.007 1.39 528.022 1.39 C 529.04 1.39 529.86 2.153 529.86 3.094 L 529.86 13.32 C 529.86 14.264 529.04 15.024 528.022 15.024 Z  M 528.022 35.475 C 527.007 35.475 526.183 34.714 526.183 33.77 L 526.183 23.545 C 526.183 22.604 527.007 21.841 528.022 21.841 C 529.04 21.841 529.86 22.604 529.86 23.545 L 529.86 33.77 C 529.86 34.714 529.04 35.475 528.022 35.475 Z  M 528.022 55.925 C 527.007 55.925 526.183 55.165 526.183 54.221 L 526.183 43.996 C 526.183 43.055 527.007 42.291 528.022 42.291 C 529.04 42.291 529.86 43.055 529.86 43.996 L 529.86 54.221 C 529.86 55.165 529.04 55.925 528.022 55.925 Z  M 528.022 76.376 C 527.007 76.376 526.183 75.616 526.183 74.672 L 526.183 64.446 C 526.183 63.506 527.007 62.742 528.022 62.742 C 529.04 62.742 529.86 63.506 529.86 64.446 L 529.86 74.672 C 529.86 75.616 529.04 76.376 528.022 76.376 Z  M 435.177 82.348 L 424.145 82.348 C 423.13 82.348 422.306 81.588 422.306 80.643 C 422.306 79.703 423.13 78.939 424.145 78.939 L 435.177 78.939 C 436.196 78.939 437.016 79.703 437.016 80.643 C 437.016 81.588 436.196 82.348 435.177 82.348 Z  M 457.242 82.348 L 446.209 82.348 C 445.194 82.348 444.371 81.588 444.371 80.643 C 444.371 79.703 445.194 78.939 446.209 78.939 L 457.242 78.939 C 458.26 78.939 459.08 79.703 459.08 80.643 C 459.08 81.588 458.26 82.348 457.242 82.348 Z  M 479.306 82.351 L 479.306 82.351 L 468.274 82.348 C 467.259 82.348 466.435 81.588 466.435 80.643 C 466.435 79.703 467.259 78.939 468.274 78.939 L 468.274 78.939 L 479.306 78.943 C 480.325 78.943 481.145 79.706 481.145 80.647 C 481.145 81.591 480.321 82.351 479.306 82.351 Z  M 501.371 82.351 L 490.339 82.351 C 489.324 82.351 488.5 81.591 488.5 80.647 C 488.5 79.706 489.324 78.943 490.339 78.943 L 501.371 78.943 C 502.39 78.943 503.21 79.706 503.21 80.647 C 503.21 81.591 502.39 82.351 501.371 82.351 Z  M 523.436 82.351 L 512.404 82.351 C 511.389 82.351 510.565 81.591 510.565 80.647 C 510.565 79.706 511.389 78.943 512.404 78.943 L 523.436 78.943 C 524.455 78.943 525.275 79.706 525.275 80.647 C 525.275 81.591 524.455 82.351 523.436 82.351 Z  M 422.968 101.711 C 421.953 101.711 421.129 100.948 421.129 100.007 L 421.129 89.782 C 421.129 88.837 421.953 88.077 422.968 88.077 C 423.987 88.077 424.807 88.837 424.807 89.782 L 424.807 100.007 C 424.807 100.948 423.987 101.711 422.968 101.711 Z  M 422.968 122.158 C 421.953 122.158 421.129 121.395 421.129 120.454 L 421.129 110.229 C 421.129 109.285 421.953 108.525 422.968 108.525 C 423.987 108.525 424.807 109.285 424.807 110.229 L 424.807 120.454 C 424.807 121.395 423.987 122.158 422.968 122.158 Z  M 422.968 142.609 C 421.953 142.609 421.129 141.846 421.129 140.905 L 421.129 130.68 C 421.129 129.735 421.953 128.975 422.968 128.975 C 423.987 128.975 424.807 129.735 424.807 130.68 L 424.807 140.905 C 424.807 141.846 423.987 142.609 422.968 142.609 Z  M 422.968 163.06 C 421.953 163.06 421.129 162.296 421.129 161.356 L 421.129 151.13 C 421.129 150.186 421.953 149.426 422.968 149.426 C 423.987 149.426 424.807 150.186 424.807 151.13 L 424.807 161.356 C 424.807 162.296 423.987 163.06 422.968 163.06 Z " fill="rgb(255,255,255)"/><path d=" M 707.79 379.885 L 660.005 379.885 L 660.005 239.004 L 707.79 239.004 L 707.79 379.885 L 707.79 379.885 Z  M 707.79 423.773 L 556.551 423.773 L 556.551 383.007 L 707.79 383.007 L 707.79 423.773 Z  M 656.824 236.059 L 656.824 380.063 L 553.37 380.063 L 553.37 426.721 L 710.971 426.721 L 710.971 382.835 L 710.971 380.063 L 710.971 236.059 L 656.824 236.059 Z " fill="rgb(93,198,188)"/><path d=" M 418.82 261.322 L 555.165 261.322 L 555.165 337.232 L 418.82 337.232 L 418.82 261.322 Z  M 290.886 337.232 L 241.878 337.232 L 241.878 119.401 L 290.886 119.401 L 290.886 337.232 L 290.886 337.232 Z  M 555.165 159.304 L 418.82 159.304 L 418.82 119.401 L 555.165 119.401 L 555.165 159.304 Z  M 418.82 242.62 L 418.82 162.242 L 555.165 162.242 L 555.165 242.62 L 418.82 242.62 Z  M 418.82 245.555 L 555.165 245.555 L 555.165 258.391 L 418.82 258.391 L 418.82 245.555 Z  M 404.074 119.401 L 415.653 119.401 L 415.653 337.232 L 404.074 337.232 L 404.074 119.401 L 404.074 119.401 Z  M 308.798 162.504 L 400.908 162.504 L 400.908 337.232 L 308.798 337.232 L 308.798 162.504 L 308.798 162.504 Z  M 400.624 159.566 L 308.798 159.566 L 308.798 119.401 L 400.624 119.401 L 400.624 159.566 Z  M 294.054 119.401 L 305.631 119.401 L 305.631 337.232 L 294.054 337.232 L 294.054 119.401 Z  M 203.313 106.786 L 591.461 106.786 L 591.461 116.466 L 203.313 116.466 L 203.313 106.786 L 203.313 106.786 Z  M 227.133 119.401 L 238.711 119.401 L 238.711 337.232 L 227.133 337.232 L 227.133 119.401 Z  M 591.461 349.854 L 203.313 349.854 L 203.313 340.17 L 591.461 340.17 L 591.461 349.854 Z  M 568.775 337.232 L 558.331 337.232 L 558.331 119.401 L 568.775 119.401 L 568.775 337.232 Z  M 594.631 119.401 L 594.631 103.852 L 200.148 103.852 L 200.148 119.401 L 223.967 119.401 L 223.967 337.232 L 200.148 337.232 L 200.148 352.785 L 594.631 352.785 L 594.631 337.232 L 571.945 337.232 L 571.945 119.401 L 594.631 119.401 Z " fill="rgb(93,198,188)"/><path d=" M 481.381 248.207 L 479.303 224.15 L 454.473 226.052 L 428.605 223.829 L 426.528 247.886 C 426.528 247.886 435.876 259.039 454.212 259.257 L 454.212 259.271 C 454.3 259.271 454.384 259.264 454.473 259.26 C 454.561 259.264 454.642 259.271 454.734 259.271 L 454.734 259.257 C 473.066 259.039 481.381 248.207 481.381 248.207" fill="rgb(244,176,115)"/><path d=" M 453.377 171.063 C 437.979 172.031 423.269 169.781 414.616 167.535 C 408.302 165.896 402.733 162.307 400.168 160.48 C 400.173 160.555 400.174 160.626 400.177 160.701 C 397.946 159.931 395.108 160.009 392.915 163.684 C 389.282 169.781 392.915 181.65 397.762 185.338 C 400.005 187.045 402.079 188.252 403.682 189.08 C 406.11 200.1 410.049 210.441 416.422 216.774 C 432.739 232.978 447.614 236.434 451.924 237.126 C 452.73 237.255 453.211 237.3 453.211 237.3 C 453.211 237.3 454.362 237.163 454.668 237.126 L 454.896 170.968 C 454.782 170.974 453.494 171.06 453.377 171.063" fill="rgb(251,208,153)"/><path d=" M 514.989 164.168 C 512.433 159.88 508.998 160.48 506.674 161.628 C 506.674 161.611 506.674 161.598 506.674 161.584 C 506.887 157.623 506.972 154.045 506.998 150.97 C 495.34 151.846 468.697 153.789 453.726 154.447 C 448.342 154.682 444.463 154.75 443.341 154.546 C 438.737 153.69 407.236 149.941 399.92 148.881 C 399.91 152.047 399.961 156.004 400.168 160.48 C 402.733 162.307 409.633 167.416 415.848 169.362 C 430.606 173.977 443.198 175.559 453.726 175.555 L 453.726 237.245 C 456.657 236.887 472.9 234.194 490.442 216.774 C 496.576 210.68 500.47 200.822 502.927 190.198 C 504.589 189.428 507.229 188.037 510.146 185.818 C 514.989 182.13 518.626 170.262 514.989 164.168" fill="rgb(249,195,138)"/><path d=" M 400.856 168.152 L 402.412 179.864 C 402.412 179.864 398.001 177.699 397.222 172.242 C 396.755 168.967 398.001 166.871 400.856 168.152" fill="rgb(244,176,115)"/><path d=" M 507.318 167.845 L 505.762 179.557 C 505.762 179.557 510.175 177.389 510.951 171.936 C 511.422 168.66 510.175 166.564 507.318 167.845" fill="rgb(244,176,115)"/><path d=" M 401.342 171.411 C 404.435 171.51 409.847 165.064 409.626 157.586 C 409.405 150.142 413.197 151.614 413.197 151.614 L 397.88 151.069 C 397.88 151.069 397.919 167.109 401.342 171.411" fill="rgb(130,73,26)"/><path d=" M 506.715 171.956 C 503.625 172.058 497.109 165.337 497.33 157.862 C 497.547 150.415 493.755 151.89 493.755 151.89 L 509.072 151.342 C 509.072 151.342 509.811 169.635 506.715 171.956" fill="rgb(130,73,26)"/><path d=" M 483.319 136.74 C 474.518 131.464 466.068 129.684 464.986 87.869 C 463.685 87.801 462.331 87.747 460.916 87.713 C 458.996 87.668 449.306 87.672 447.029 87.74 C 445.239 87.798 443.562 87.89 441.944 87.999 C 440.848 129.688 432.404 131.47 423.615 136.74 C 413.201 142.988 400.428 136.58 400.428 136.58 L 399.946 136.218 C 400.124 140.046 400.563 142.517 400.563 142.517 C 400.563 142.517 402.899 147.085 415.617 154.546 C 426.903 161.161 449.537 159.208 454.561 158.735 C 459.584 159.208 480.513 161.281 491.799 154.665 C 504.519 147.204 506.854 142.636 506.854 142.636 C 506.854 142.636 507.329 139.951 507.49 135.84 L 506.505 136.58 C 506.505 136.58 493.733 142.988 483.319 136.74" fill="rgb(251,203,67)"/><path d=" M 499.065 104.383 C 490.854 93.688 483.889 88.885 464.986 87.869 C 466.068 129.684 474.518 131.464 483.319 136.74 C 493.733 142.988 506.505 136.58 506.505 136.58 L 507.49 135.84 C 507.803 127.915 506.92 114.619 499.065 104.383" fill="rgb(245,180,0)"/><path d=" M 507.156 139.63 C 504.041 143.959 500.665 148.53 491.582 150.936 C 470.12 156.618 437.299 156.618 415.834 150.936 C 406.75 148.53 403.376 143.959 400.262 139.63 C 398.444 139.869 394.378 139.79 394.378 139.79 L 394.551 156.229 L 409.865 158.632 C 409.865 158.632 416.345 166.935 445.213 168.094 C 447.614 168.193 459.378 168.176 462.265 168.016 C 489.728 166.513 497.554 158.632 497.554 158.632 L 512.867 156.229 L 513.04 139.79 C 513.04 139.79 508.972 139.869 507.156 139.63 Z " fill="rgb(245,180,0)"/><path d=" M 460.129 222.384 L 446.629 222.384 C 445.481 222.384 444.555 221.525 444.555 220.462 C 444.555 219.395 445.481 218.536 446.629 218.536 L 460.129 218.536 C 461.276 218.536 462.203 219.395 462.203 220.462 C 462.203 221.525 461.276 222.384 460.129 222.384 Z " fill="rgb(232,153,88)"/><path d=" M 433.114 89.045 C 433.294 94.734 433.324 105.58 431.459 114.217 C 430.407 119.087 427.447 117.666 426.601 115.444 C 424.27 109.332 423.023 97.498 422.902 92.062 C 416.992 94.7 412.66 98.65 408.35 104.264 C 400.329 114.711 399.579 128.365 399.946 136.218 L 400.428 136.58 C 400.428 136.58 413.201 142.988 423.615 136.74 C 432.404 131.47 440.848 129.688 441.944 87.999 C 438.689 88.227 435.769 88.571 433.114 89.045" fill="rgb(245,180,0)"/><path d=" M 431.459 114.217 C 433.324 105.58 433.294 94.734 433.114 89.045 C 429.183 89.747 425.847 90.743 422.902 92.062 C 423.023 97.498 424.27 109.332 426.601 115.444 C 427.447 117.666 430.407 119.087 431.459 114.217 Z " fill="rgb(251,203,67)"/><path d=" M 476.92 114.217 C 475.052 105.58 475.085 94.734 475.265 89.045 C 479.196 89.747 482.532 90.743 485.474 92.062 C 485.352 97.498 484.106 109.332 481.778 115.444 C 480.932 117.666 477.968 119.087 476.92 114.217 Z " fill="rgb(251,203,67)"/><path d=" M 537.201 347.393 L 576.748 346.76 C 574.174 318.959 569.507 295.172 560.049 284.214 C 556.875 280.539 550.693 276.115 543.136 271.507 C 541.084 270.256 538.925 268.991 536.7 267.723 L 519.442 315.05 L 498.786 308.577 L 517.427 257.461 C 507.818 252.617 498.488 248.237 491.56 245.071 C 489.453 244.11 487.603 243.275 485.999 242.555 C 483.16 246.693 459.172 258.285 453.936 260.423 C 453.84 260.416 453.759 260.392 453.667 260.385 L 453.667 306.747 L 453.667 326.553 L 453.667 346.281 L 453.667 373.706 L 453.667 393.434 L 453.667 461.273 C 453.686 461.273 453.708 461.273 453.726 461.273 C 482.789 461.273 511.536 455.891 537.311 447.104 C 536.759 438.913 537.201 347.393 537.201 347.393" fill="rgb(178,178,178)"/><path d=" M 519.442 315.05 L 536.7 267.723 C 530.585 264.24 523.943 260.746 517.427 257.461 L 498.786 308.577 L 519.442 315.05" fill="rgb(80,106,165)"/><path d=" M 453.483 260.423 C 448.247 258.285 424.259 246.693 421.42 242.555 C 419.816 243.275 417.967 244.11 415.859 245.071 C 409.005 248.203 399.802 252.525 390.304 257.304 L 409.001 308.577 L 388.346 315.05 L 371.026 267.55 C 368.693 268.876 366.429 270.198 364.283 271.507 C 356.724 276.115 350.543 280.539 347.371 284.214 C 337.912 295.172 333.247 318.959 330.672 346.76 L 364.283 346.76 L 364.283 373.706 L 364.283 393.434 L 364.283 445.247 C 391.921 455.547 422.078 461.273 453.693 461.273 C 453.715 461.273 453.733 461.273 453.752 461.273 L 453.752 393.434 L 453.752 373.706 L 453.752 346.281 L 453.752 326.553 L 453.752 306.747 L 453.752 260.385 C 453.66 260.392 453.579 260.416 453.483 260.423" fill="rgb(204,204,204)"/><path d=" M 409.001 308.577 L 390.304 257.304 C 383.794 260.579 377.154 264.073 371.026 267.55 L 388.346 315.05 L 409.001 308.577" fill="rgb(111,133,191)"/><path d=" M 453.752 256.193 C 437.593 256.053 427.318 239.945 427.318 239.945 C 427.318 239.945 425.086 240.916 421.42 242.555 C 424.546 247.109 435.129 263.115 453.752 263.19 L 453.752 256.193 Z " fill="rgb(153,153,153)"/><path d=" M 334.355 356.627 C 334.355 363.119 332.798 419.893 333.391 431.322 C 343.26 436.626 359.646 443.883 371.299 447.718 L 371.372 355.272 L 334.355 356.627 Z " fill="rgb(251,208,153)"/><path d=" M 370.93 346.76 L 330.672 346.76 C 330.321 350.546 330.008 354.401 329.728 358.309 L 370.93 358.309 L 370.93 346.76 Z " fill="rgb(178,178,178)"/><path d=" M 453.667 256.193 C 469.826 256.053 480.104 239.945 480.104 239.945 C 480.104 239.945 482.333 240.916 485.999 242.555 C 482.874 247.109 472.29 263.115 453.667 263.19 L 453.667 256.193 Z " fill="rgb(128,128,128)"/><path d=" M 573.063 356.627 C 573.063 363.119 574.575 420.064 573.982 431.493 C 564.097 436.92 547.586 444.237 535.652 447.976 L 536.759 356.81 L 573.063 356.627 Z " fill="rgb(251,208,153)"/><path d=" M 536.98 346.128 L 576.748 346.128 C 577.097 349.911 577.41 354.401 577.693 358.309 L 536.98 358.309 L 536.98 346.128" fill="rgb(153,153,153)"/><path d=" M 526.599 368.106 L 531.456 311.253 L 552.076 279.38 C 552.076 279.38 544.71 309.957 538.087 318.421 C 537.495 333.845 537.793 376.293 537.793 376.293 C 537.793 376.293 533.372 378.481 526.599 368.106" fill="rgb(153,153,153)"/><path d=" M 381.241 368.106 L 376.38 311.253 L 355.763 279.38 C 355.763 279.38 363.127 309.957 369.752 318.421 C 370.341 333.845 370.046 376.293 370.046 376.293 C 370.046 376.293 374.465 378.481 381.241 368.106" fill="rgb(178,178,178)"/><path d=" M 390.219 324.371 C 390.998 359.749 379.213 370.748 373.277 374.036 C 371.302 375.135 369.973 375.376 369.973 375.376 C 369.973 375.376 370.674 420.374 370.305 447.414 C 379.398 450.679 390.021 453.552 403.495 456.372 C 422.335 460.305 441.877 461.337 453.531 461.284 L 453.55 314.327 C 430.209 314.624 406.408 317.985 390.219 324.371 Z " fill="rgb(111,133,191)"/><path d=" M 537.815 375.376 C 537.815 375.376 536.487 375.135 534.509 374.036 C 528.573 370.748 516.791 359.749 517.57 324.371 C 503.622 317.283 478.854 313.999 453.55 314.327 L 453.55 461.337 C 484.238 460.775 508.814 456.781 533.777 448.618 C 535.005 448.214 536.244 447.843 537.462 447.425 C 537.087 420.419 537.815 375.376 537.815 375.376" fill="rgb(80,106,165)"/><path d=" M 412.8 331.591 C 412.8 334.915 409.895 337.607 406.313 337.607 C 402.727 337.607 399.822 334.915 399.822 331.591 C 399.822 328.271 402.727 325.579 406.313 325.579 C 409.895 325.579 412.8 328.271 412.8 331.591 Z " fill="rgb(251,203,67)"/><path d=" M 494.987 331.591 C 494.987 334.915 497.892 337.607 501.478 337.607 C 505.06 337.607 507.965 334.915 507.965 331.591 C 507.965 328.271 505.06 325.579 501.478 325.579 C 497.892 325.579 494.987 328.271 494.987 331.591 Z " fill="rgb(245,180,0)"/><path d=" M 401.197 355.853 C 401.197 355.853 402.256 397.122 407.946 405.169 C 417.742 419.028 452.593 418.411 453.064 418.401 L 453.064 418.442 C 453.064 418.442 453.288 418.445 453.627 418.449 L 453.627 355.873 L 401.197 355.853" fill="rgb(168,181,216)"/><path d=" M 498.227 405.21 C 503.92 397.159 504.979 355.893 504.979 355.893 L 453.627 355.873 L 453.627 418.449 C 458.025 418.466 489.07 418.167 498.227 405.21 Z " fill="rgb(111,133,191)"/><path d=" M 634.797 152.19 L 621.528 152.105 L 621.407 168.06 L 634.675 168.145 L 634.797 152.19 Z " fill="rgb(178,178,178)"/><path d=" M 620.918 232.316 L 634.19 232.405 L 634.293 218.986 L 621.021 218.901 L 620.918 232.316 Z " fill="rgb(178,178,178)"/><path d=" M 621.315 180.136 L 621.286 184.158 L 634.554 184.247 L 634.583 180.222 L 621.315 180.136 Z " fill="rgb(178,178,178)"/><path d=" M 634.675 168.145 L 621.407 168.06 L 621.315 180.136 L 634.583 180.222 L 634.675 168.145 Z " fill="rgb(128,128,128)"/><path d=" M 621.021 218.901 L 634.293 218.986 L 634.554 184.247 L 621.286 184.158 L 621.021 218.901 Z " fill="rgb(251,203,67)"/><path d=" M 627.07 226.992 L 617.421 226.928 C 617.421 226.928 613.938 262.096 612.875 274.909 C 611.812 287.724 608.205 328.629 607.591 335.409 C 606.984 342.065 617.343 342.853 626.195 342.788 L 627.07 226.992" fill="rgb(251,203,67)"/><path d=" M 626.971 226.992 L 636.624 227.054 C 636.624 227.054 639.574 262.26 640.441 275.089 C 641.309 287.919 644.295 328.861 644.81 335.654 C 645.31 342.318 634.94 342.965 626.092 342.788 L 626.971 226.992" fill="rgb(245,180,0)"/><path d=" M 649.94 128.174 C 643.847 126.784 640.791 122.513 637.437 122.128 C 631.972 121.497 618.138 121.405 609.231 129.548 C 602.178 135.99 585.405 153.1 583.426 159.348 C 581.448 165.599 585.802 164.284 591.141 159.846 C 596.485 155.408 606.333 142.139 612.912 142.619 C 617.27 142.936 618.652 153.448 621.451 156.874 L 634.841 157.037 C 638.327 153.421 639.923 142.122 647.259 142.17 C 656.078 142.231 658.387 145.278 658.884 146.188 L 663.253 126.617 C 663.253 126.617 656.685 129.708 649.94 128.174 Z " fill="rgb(204,204,204)"/><path d=" M 672.972 148.915 L 658.851 146.219 L 663.216 126.566 L 677.341 129.262 L 672.972 148.915" fill="rgb(178,178,178)"/><path d=" M 623.194 154.76 C 623.194 154.76 614.537 134.913 617.001 128.444 C 618.84 123.604 634.142 122.915 638.143 124.892 C 642.81 127.196 641.684 135.383 639.831 140.554 C 636.874 148.813 634.054 154.832 634.054 154.832 L 623.194 154.76 Z " fill="rgb(178,178,178)"/><path d=" M 702.693 111.122 C 692.966 111.122 685.086 103.814 685.086 94.799 C 685.086 85.787 692.966 78.479 702.693 78.479 C 712.416 78.479 720.297 85.787 720.297 94.799 C 720.297 103.814 712.416 111.122 702.693 111.122 Z  M 721.367 113.378 C 723.088 111.783 726.119 111.851 729.097 113.259 C 729.245 113.324 729.388 113.419 729.531 113.501 C 732.389 109.987 734.489 105.914 735.537 101.462 C 735.184 101.38 734.809 101.326 734.474 101.22 C 731.3 100.263 729.101 98.33 729.101 96.07 C 729.101 93.81 731.3 91.874 734.474 90.917 C 734.956 90.773 735.478 90.675 736 90.572 C 735.316 85.916 733.474 81.622 730.83 77.859 C 730.565 78.029 730.3 78.203 730.031 78.356 C 729.719 78.534 729.41 78.738 729.097 78.885 C 726.119 80.286 723.088 80.357 721.367 78.759 C 719.646 77.167 719.72 74.355 721.235 71.597 C 721.463 71.178 721.757 70.766 722.051 70.353 C 722.202 70.139 722.423 69.941 722.588 69.73 C 718.584 66.993 713.928 65.029 708.838 64.157 C 708.305 68.383 705.764 71.591 702.693 71.591 C 699.619 71.591 697.078 68.383 696.545 64.157 C 691.481 65.026 686.847 66.976 682.857 69.692 C 683.026 69.91 683.192 70.125 683.35 70.346 C 683.556 70.633 683.666 70.933 683.843 71.226 C 685.578 74.099 685.821 77.088 684.019 78.759 C 682.272 80.381 679.183 80.234 676.168 78.769 C 675.888 78.632 675.605 78.554 675.326 78.394 C 675.061 78.24 674.8 78.056 674.539 77.883 C 671.909 81.639 670.071 85.916 669.387 90.555 C 673.373 91.288 676.282 93.466 676.282 96.07 C 676.282 98.572 673.605 100.695 669.857 101.507 C 670.913 105.958 673.02 110.028 675.885 113.542 C 678.992 111.933 682.214 111.705 684.019 113.378 C 685.766 114.997 685.608 117.86 684.027 120.652 C 687.906 123.065 692.33 124.783 697.133 125.526 C 698.166 122.585 700.255 120.546 702.693 120.546 C 705.128 120.546 707.217 122.585 708.25 125.526 C 713.038 124.786 717.451 123.072 721.32 120.672 C 721.294 120.631 721.261 120.587 721.235 120.543 C 719.72 117.785 719.646 114.973 721.367 113.378" fill="rgb(255,255,255)"/><path d=" M 402.233 22.335 C 399.166 22.328 396.675 24.632 396.67 27.475 C 396.665 30.318 399.148 32.625 402.217 32.628 C 405.283 32.635 407.776 30.331 407.78 27.489 C 407.784 24.642 405.301 22.338 402.233 22.335 Z  M 611.195 70.868 L 604.601 77.341 L 379.536 45.826 L 390.413 15.153 L 606.473 15.45 C 606.682 21.65 607.208 34.033 608.356 46.453 C 609.51 58.996 611.195 70.868 611.195 70.868" fill="rgb(204,204,204)"/><path d=" M 626.39 70.292 C 626.39 70.292 614.346 78.043 605.509 82.225 L 602.784 87.256 L 601.744 82.191 L 599.162 86.966 L 598.107 81.85 L 595.532 86.601 L 594.47 81.438 L 591.906 86.165 L 590.844 81.001 L 588.284 85.732 L 587.24 80.671 L 584.658 85.443 L 583.603 80.326 L 581.032 85.081 L 579.966 79.914 L 577.406 84.645 L 576.321 79.375 L 573.78 84.069 L 572.736 79.007 L 570.154 83.779 L 569.103 78.663 L 566.528 83.418 L 565.466 78.247 L 562.902 82.982 L 561.887 78.05 L 559.317 82.307 L 558.522 77.204 L 555.709 81.867 L 554.904 76.713 L 552.105 81.352 L 551.293 76.148 L 548.505 80.766 L 547.703 75.636 C 547.659 75.633 547.615 75.626 547.567 75.623 L 544.875 80.224 L 544.008 75.135 L 541.261 79.829 L 540.385 74.682 L 537.649 79.358 L 536.763 74.164 L 534.042 78.816 L 533.155 73.625 L 530.43 78.278 L 529.563 73.189 L 526.819 77.883 L 525.94 72.739 L 523.208 77.412 L 522.318 72.218 L 519.597 76.87 L 518.692 71.574 L 515.993 76.189 L 515.125 71.096 L 512.378 75.79 L 511.503 70.65 L 508.767 75.323 L 507.88 70.125 L 505.159 74.781 L 504.254 69.484 L 501.555 74.096 L 500.687 69.007 L 497.94 73.7 L 497.065 68.557 L 494.329 73.23 L 493.443 68.036 L 490.721 72.691 L 489.853 67.613 L 487.147 72.085 L 486.356 66.982 L 483.539 71.642 L 482.741 66.485 L 479.935 71.12 L 479.13 65.915 L 476.335 70.531 L 475.511 65.224 L 472.742 69.801 L 471.955 64.695 L 469.135 69.355 L 468.337 64.201 L 465.531 68.837 L 464.725 63.632 L 461.931 68.247 L 461.11 62.936 L 458.338 67.517 L 457.551 62.415 L 454.73 67.071 L 453.932 61.914 L 451.126 66.549 L 450.321 61.345 L 447.526 65.963 L 446.691 60.557 L 443.848 65.258 L 443.058 60.152 L 440.241 64.811 L 439.443 59.654 L 436.637 64.29 L 435.832 59.085 L 433.037 63.7 L 432.217 58.393 L 429.444 62.971 L 428.653 57.872 L 425.836 62.524 L 425.038 57.37 L 422.232 62.006 L 421.427 56.801 L 418.632 61.42 L 417.812 56.109 L 415.039 60.687 L 414.249 55.584 L 411.432 60.24 L 410.634 55.087 L 407.828 59.722 L 407.022 54.514 L 404.228 59.136 L 403.413 53.867 L 400.769 58.236 L 399.98 53.134 L 397.16 57.79 L 396.364 52.633 L 393.559 57.272 L 392.753 52.064 L 389.958 56.682 L 389.138 51.372 L 386.358 55.963 L 385.582 50.949 L 382.906 55.373 L 382.081 50.039 L 379.249 54.715 L 378.381 49.088 L 379.977 44.807 C 379.977 44.807 534.663 67.708 602.339 75.432 C 604.623 75.691 609.676 72.081 609.345 69.91 C 608.326 63.236 608.124 61.328 607.326 46.071 C 606.675 33.62 606.682 21.65 606.473 15.45 L 617.318 15.467 L 626.39 70.292" fill="rgb(178,178,178)"/><path d=" M 675.969 83.275 C 684.144 83.104 695.68 82.723 702.973 78.336 C 703.094 76.843 702.888 75.681 702.451 74.754 C 695.36 75.463 679.341 76.778 669.015 75.459 C 655.438 73.724 659.325 66.87 658.74 46.085 C 658.402 34.057 658.207 19.622 654.725 16.53 C 650.143 12.457 639.695 10.586 625.82 14.029 C 621.804 15.024 617.421 18.228 614.14 18.282 C 612.912 27.008 613.802 41.804 614.067 49.401 C 615.769 54.385 617.351 59.242 619.204 64.378 C 626.75 68.898 637.22 74.587 649.113 78.479 C 657.77 81.315 666.732 83.462 675.969 83.275" fill="rgb(251,203,67)"/><path d=" M 675.385 86.785 C 689.374 86.639 702.123 86.278 702.958 78.653 C 702.969 78.54 702.965 78.448 702.973 78.336 C 695.68 82.723 684.144 83.104 675.969 83.275 C 666.732 83.462 657.77 81.315 649.113 78.479 C 637.22 74.587 626.75 68.898 619.204 64.378 C 619.91 66.335 620.646 68.322 621.455 70.384 C 638.919 79.362 651.621 87.038 675.385 86.785 Z " fill="rgb(245,180,0)"/><path d=" M 660.888 29.38 C 661.87 34.094 664.716 40.526 665.139 48.178 C 665.474 54.235 662.605 60.516 662.124 64.678 C 661.638 68.864 666.224 73.353 671.49 73.598 C 676.032 73.813 681.463 69.143 681.471 64.934 C 681.471 64.934 679.353 55.145 679.187 45.584 C 679.069 38.753 680.618 29.005 680.618 29.005 C 680.625 24.789 675.815 19.762 671.269 19.755 C 666.724 19.748 659.7 23.695 660.888 29.38 Z  M 668.916 7.198 C 690.352 6.278 702.34 7.007 703.061 14.005 C 703.973 22.873 696.081 19.451 692.551 25.433 C 690.694 28.579 692.521 37.363 692.661 45.512 C 692.812 54.04 689.91 64.47 693.099 68.056 C 695.717 71.001 700.766 71.171 702.451 74.754 C 695.36 75.463 685.545 78.909 670.28 78.029 C 658.089 77.327 652.967 73.966 653.092 65.718 C 653.154 61.317 655.615 55.257 655.456 48.212 C 655.28 40.352 651.466 35.87 651.474 29.343 C 651.474 25.348 652.526 21.173 651.569 19.482 C 648.363 13.783 640.169 15.245 627.618 16.561 C 623.488 16.994 617.421 18.228 614.14 18.282 C 614.254 17.488 614.24 12.461 614.953 9.066 C 629.505 8.527 643.291 8.302 668.916 7.198" fill="rgb(107,107,107)"/><path d=" M 624.308 28.716 C 623.007 29.803 621.002 29.711 619.829 28.504 C 618.656 27.304 618.759 25.443 620.057 24.36 C 621.355 23.269 623.36 23.364 624.533 24.567 C 625.706 25.774 625.607 27.628 624.308 28.716 Z " fill="rgb(128,128,128)"/><path d=" M 624.143 50.976 C 622.845 52.064 620.844 51.968 619.667 50.768 C 618.494 49.562 618.597 47.704 619.895 46.617 C 621.194 45.526 623.198 45.625 624.371 46.825 C 625.544 48.031 625.445 49.889 624.143 50.976 Z " fill="rgb(128,128,128)"/><path d=" M 642.137 64.791 C 640.835 65.878 638.831 65.786 637.658 64.579 C 636.484 63.376 636.587 61.519 637.886 60.431 C 639.184 59.344 641.188 59.436 642.361 60.643 C 643.534 61.846 643.435 63.703 642.137 64.791 Z " fill="rgb(128,128,128)"/><path d=" M 270.696 325.673 C 270.679 328.09 268.902 330.041 266.73 330.026 C 264.556 330.01 262.811 328.04 262.83 325.623 L 263.591 223.979 L 271.459 224.03 L 270.696 325.673" fill="rgb(204,204,204)"/><path d=" M 267.642 208.437 C 269.814 208.45 271.561 210.42 271.544 212.84 L 271.459 224.03 L 263.591 223.979 L 263.676 212.793 C 263.693 210.373 265.469 208.423 267.642 208.437 Z " fill="rgb(107,107,107)"/><path d=" M 249.746 358.154 C 252.603 352.639 257.014 345.685 257.523 334.775 C 257.657 331.929 257.992 329.226 257.532 326.54 C 257.157 324.348 255.951 323.403 255.981 321.601 C 256.037 318.441 256.071 309.693 256.071 309.693 C 256.087 307.504 258.018 305.738 260.382 305.751 L 266.947 305.795 L 265.852 451.896 C 265.805 451.896 265.756 451.902 265.71 451.902 C 250.97 451.808 240.482 427.997 240.7 398.959 C 240.824 382.339 243.194 370.796 249.746 358.154" fill="rgb(107,107,107)"/><path d=" M 283.289 358.368 C 280.515 352.819 276.211 345.808 275.863 334.891 C 275.774 332.045 275.48 329.338 275.98 326.656 C 276.386 324.471 277.609 323.541 277.604 321.74 C 277.597 318.577 277.693 309.831 277.693 309.831 C 277.711 307.643 275.806 305.85 273.441 305.837 L 266.877 305.795 L 265.782 451.896 C 265.828 451.896 265.875 451.902 265.923 451.902 C 280.664 451.998 291.506 428.327 291.725 399.29 C 291.849 382.671 289.651 371.095 283.289 358.368 Z " fill="rgb(128,128,128)"/><path d=" M 270.087 358.137 C 273.871 358.16 276.916 361.023 276.89 364.53 L 276.379 432.791 C 276.352 436.295 273.265 439.118 269.481 439.094 L 265.638 439.07 L 266.247 358.109 L 270.087 358.137 Z " fill="rgb(251,203,67)"/><path d=" M 255.541 432.655 L 256.052 364.394 C 256.08 360.89 259.168 358.068 262.952 358.093 L 266.247 358.109 L 265.638 439.07 L 262.345 439.05 C 258.562 439.026 255.514 436.162 255.541 432.655 Z " fill="rgb(245,180,0)"/><path d=" M 265.783 423.299 C 268.145 423.317 270.044 425.106 270.028 427.291 C 270.012 429.482 268.083 431.244 265.722 431.231 C 265.716 431.227 265.707 431.227 265.699 431.227 L 265.759 423.302 C 265.767 423.302 265.775 423.299 265.783 423.299 Z " fill="rgb(155,155,155)"/><path d=" M 261.477 427.239 C 261.494 425.058 263.409 423.299 265.759 423.302 L 265.699 431.227 C 263.35 431.2 261.461 429.417 261.477 427.239 Z " fill="rgb(128,128,128)"/><path d=" M 355.922 87.406 L 242.126 87.406 L 242.126 92.495 L 355.922 92.495 L 355.922 87.406 Z " fill="rgb(251,203,67)"/><path d=" M 360.154 72.524 L 353.519 72.524 L 353.519 86.806 L 337.502 86.806 L 337.502 92.989 L 360.078 92.461 L 360.154 72.524" fill="rgb(107,107,107)"/><path d=" M 296.964 46.579 C 296.964 53.621 296.796 67.869 296.653 78.67 C 296.547 86.601 290.695 92.72 282.881 92.774 C 271.416 92.853 255.529 92.955 246.931 92.955 C 237.319 92.955 219.269 92.72 207.68 92.553 C 201.313 92.461 196.897 88.248 196.897 82.351 C 196.897 71.359 196.897 54.269 196.897 46.579 C 196.897 20.968 219.298 0.207 246.931 0.207 C 274.563 0.207 296.964 20.968 296.964 46.579" fill="rgb(107,107,107)"/><path d=" M 290.099 46.579 C 290.099 68.676 270.772 86.591 246.931 86.591 C 223.089 86.591 203.762 68.676 203.762 46.579 C 203.762 24.486 223.089 6.571 246.931 6.571 C 270.772 6.571 290.099 24.486 290.099 46.579" fill="rgb(251,203,67)"/><path d=" M 271.643 46.579 C 271.643 59.231 260.58 69.488 246.931 69.488 C 233.282 69.488 222.22 59.231 222.22 46.579 C 222.22 33.931 233.282 23.674 246.931 23.674 C 260.58 23.674 271.643 33.931 271.643 46.579 Z " fill="rgb(107,107,107)"/><path d=" M 246.931 19.151 C 230.613 19.151 217.337 31.459 217.337 46.579 C 217.337 61.706 230.613 74.011 246.931 74.011 C 263.248 74.011 276.523 61.706 276.523 46.579 C 276.523 31.459 263.248 19.151 246.931 19.151 Z  M 246.931 75.708 C 229.605 75.708 215.507 62.64 215.507 46.579 C 215.507 30.522 229.605 17.454 246.931 17.454 C 264.259 17.454 278.354 30.522 278.354 46.579 C 278.354 62.64 264.259 75.708 246.931 75.708 Z " fill="rgb(255,255,255)"/><path d=" M 294.219 20.177 C 286.219 8.67 275.915 2.893 265.273 0.03 C 265.273 0.03 263.519 2.637 262.422 5.702 C 268.448 7.287 279.753 11.527 287.279 22.086 C 293.926 31.418 295.332 44.043 294.957 54.8 C 298.402 54.971 300.626 53.897 300.626 53.897 C 300.626 53.897 304.173 34.493 294.219 20.177" fill="rgb(251,203,67)"/><path d=" M 289.642 20.603 C 281.851 10.208 269.583 4.475 263.558 2.893 C 260.698 8.193 260.661 13.054 263.787 14.666 C 274.084 19.963 285.982 23.146 286.669 46.9 C 286.844 52.987 292.502 55.278 296.964 54.852 C 297.341 44.095 297.194 30.675 289.642 20.603" fill="rgb(245,180,0)"/><path d=" M 265.921 41.313 L 245.481 41.313 L 245.481 36.224 L 265.921 36.224 L 265.921 41.313 Z " fill="rgb(232,76,67)"/><path d=" M 265.921 56.021 L 236.635 56.021 L 236.635 45.414 L 265.921 45.414 L 265.921 56.021 Z " fill="rgb(178,178,178)"/><path d=" M 343.059 203.811 C 335.619 203.811 329.589 198.222 329.589 191.33 C 329.589 184.434 335.619 178.848 343.059 178.848 C 350.496 178.848 356.527 184.434 356.527 191.33 C 356.527 198.222 350.496 203.811 343.059 203.811 Z  M 357.345 205.54 C 358.662 204.316 360.98 204.374 363.256 205.444 C 363.369 205.499 363.478 205.574 363.588 205.632 C 365.773 202.946 367.382 199.83 368.185 196.425 C 367.912 196.361 367.626 196.32 367.369 196.241 C 364.942 195.505 363.262 194.026 363.262 192.301 C 363.262 190.573 364.942 189.094 367.369 188.358 C 367.739 188.248 368.14 188.17 368.536 188.095 C 368.014 184.533 366.604 181.251 364.582 178.367 C 364.379 178.497 364.178 178.633 363.971 178.749 C 363.733 178.882 363.497 179.039 363.256 179.155 C 360.98 180.225 358.662 180.283 357.345 179.059 C 356.026 177.839 356.086 175.688 357.241 173.578 C 357.418 173.258 357.643 172.941 357.868 172.627 C 357.984 172.464 358.151 172.314 358.277 172.15 C 355.213 170.058 351.652 168.554 347.759 167.89 C 347.354 171.121 345.407 173.575 343.059 173.575 C 340.71 173.575 338.763 171.121 338.357 167.89 C 334.483 168.551 330.937 170.047 327.885 172.123 C 328.014 172.287 328.141 172.454 328.261 172.621 C 328.422 172.842 328.506 173.067 328.639 173.292 C 329.966 175.494 330.153 177.781 328.774 179.059 C 327.437 180.297 325.075 180.184 322.768 179.066 C 322.554 178.96 322.338 178.899 322.124 178.78 C 321.922 178.66 321.722 178.521 321.523 178.388 C 319.51 181.261 318.105 184.533 317.582 188.085 C 320.629 188.644 322.856 190.307 322.856 192.301 C 322.856 194.213 320.807 195.836 317.941 196.459 C 318.749 199.864 320.362 202.976 322.552 205.666 C 324.927 204.435 327.393 204.261 328.774 205.54 C 330.11 206.777 329.989 208.968 328.78 211.106 C 331.749 212.953 335.133 214.265 338.807 214.831 C 339.598 212.581 341.194 211.024 343.059 211.024 C 344.922 211.024 346.521 212.581 347.311 214.831 C 350.973 214.265 354.345 212.956 357.309 211.119 C 357.289 211.089 357.261 211.054 357.241 211.02 C 356.086 208.911 356.026 206.76 357.345 205.54" fill="rgb(255,255,255)"/><path d=" M 609.731 397.719 C 602.292 397.719 596.26 392.129 596.26 385.23 C 596.26 378.338 602.292 372.749 609.731 372.749 C 617.167 372.749 623.198 378.338 623.198 385.23 C 623.198 392.129 617.167 397.719 609.731 397.719 Z  M 624.014 399.443 C 625.334 398.223 627.651 398.278 629.928 399.351 C 630.038 399.406 630.148 399.477 630.262 399.538 C 632.447 396.849 634.054 393.734 634.855 390.329 C 634.583 390.268 634.3 390.22 634.043 390.145 C 631.612 389.412 629.931 387.93 629.931 386.204 C 629.931 384.478 631.612 382.994 634.043 382.261 C 634.41 382.153 634.811 382.077 635.208 381.998 C 634.686 378.437 633.274 375.151 631.255 372.275 C 631.049 372.4 630.851 372.537 630.645 372.653 C 630.406 372.789 630.17 372.942 629.928 373.058 C 627.651 374.132 625.334 374.183 624.014 372.963 C 622.698 371.74 622.757 369.596 623.915 367.482 C 624.091 367.165 624.316 366.848 624.536 366.531 C 624.654 366.367 624.823 366.214 624.948 366.057 C 621.885 363.961 618.322 362.458 614.431 361.794 C 614.026 365.025 612.081 367.479 609.731 367.479 C 607.381 367.479 605.436 365.025 605.028 361.794 C 601.155 362.458 597.61 363.948 594.558 366.026 C 594.687 366.194 594.812 366.358 594.933 366.524 C 595.095 366.745 595.176 366.974 595.312 367.196 C 596.636 369.398 596.823 371.685 595.444 372.963 C 594.109 374.2 591.748 374.091 589.439 372.97 C 589.226 372.867 589.009 372.806 588.799 372.684 C 588.593 372.568 588.394 372.424 588.196 372.295 C 586.184 375.166 584.776 378.437 584.254 381.985 C 587.302 382.544 589.527 384.214 589.527 386.204 C 589.527 388.118 587.479 389.743 584.614 390.36 C 585.419 393.764 587.034 396.88 589.222 399.569 C 591.597 398.339 594.065 398.165 595.444 399.443 C 596.783 400.684 596.661 402.873 595.451 405.009 C 598.419 406.853 601.806 408.169 605.476 408.739 C 606.271 406.489 607.867 404.928 609.731 404.928 C 611.592 404.928 613.191 406.489 613.982 408.739 C 617.641 408.173 621.017 406.86 623.981 405.027 C 623.959 404.99 623.933 404.959 623.915 404.924 C 622.757 402.814 622.698 400.668 624.014 399.443" fill="rgb(255,255,255)"/><path d=" M 208.901 282.666 C 199.178 282.666 191.295 275.358 191.295 266.346 C 191.295 257.331 199.178 250.027 208.901 250.027 C 218.627 250.027 226.509 257.331 226.509 266.346 C 226.509 275.358 218.627 282.666 208.901 282.666 L 208.901 282.666 Z  M 227.577 284.923 C 229.299 283.327 232.33 283.399 235.306 284.803 C 235.452 284.868 235.595 284.963 235.74 285.045 C 238.597 281.531 240.7 277.458 241.748 273.007 C 241.393 272.925 241.019 272.87 240.683 272.765 C 237.508 271.807 235.312 269.874 235.312 267.614 C 235.312 265.358 237.508 263.422 240.683 262.461 C 241.166 262.318 241.69 262.219 242.209 262.117 C 241.526 257.461 239.682 253.166 237.04 249.403 C 236.774 249.573 236.512 249.747 236.242 249.901 C 235.93 250.078 235.621 250.279 235.306 250.429 C 232.33 251.833 229.299 251.901 227.577 250.306 C 225.854 248.711 225.93 245.903 227.444 243.142 C 227.674 242.722 227.969 242.31 228.26 241.898 C 228.413 241.683 228.633 241.485 228.798 241.274 C 224.793 238.537 220.137 236.574 215.047 235.701 C 214.516 239.931 211.973 243.135 208.901 243.135 C 205.831 243.135 203.288 239.931 202.755 235.701 C 197.692 236.57 193.057 238.523 189.065 241.236 C 189.236 241.454 189.4 241.669 189.56 241.887 C 189.766 242.177 189.877 242.477 190.052 242.77 C 191.787 245.643 192.031 248.633 190.226 250.306 C 188.479 251.925 185.394 251.779 182.377 250.313 C 182.097 250.177 181.814 250.098 181.538 249.938 C 181.271 249.785 181.013 249.601 180.75 249.427 C 178.119 253.183 176.28 257.461 175.595 262.1 C 179.583 262.832 182.49 265.01 182.49 267.614 C 182.49 270.116 179.813 272.24 176.066 273.051 C 177.122 277.502 179.233 281.572 182.094 285.086 C 185.198 283.477 188.425 283.252 190.226 284.923 C 191.974 286.542 191.816 289.401 190.236 292.2 C 194.116 294.613 198.542 296.328 203.344 297.07 C 204.379 294.129 206.466 292.091 208.901 292.091 C 211.338 292.091 213.426 294.129 214.462 297.07 C 219.248 296.33 223.658 294.619 227.531 292.217 C 227.503 292.176 227.469 292.131 227.444 292.087 C 225.93 289.33 225.854 286.521 227.577 284.923" fill="rgb(255,255,255)"/><path d=" M 647.962 216.201 C 647.94 213.307 649.308 210.022 650.558 207.537 C 651.474 205.717 653.088 203.256 654.243 202.216 C 655.203 201.354 655.53 202.336 655.03 203.068 C 653.677 205.045 652.073 208.74 651.283 210.949 C 655.401 206.412 661.833 201.858 666.937 198.532 C 671.431 195.611 677.407 192.478 682.614 191.548 C 684.648 191.187 684.619 192.114 682.567 192.7 C 669.718 196.388 661.039 205.523 650.955 213.369 C 656.847 212.009 659.207 211.77 662.061 212.166 C 663.808 212.411 663.4 213.042 661.966 213.212 C 660.98 213.331 654.158 214.494 650.801 216.194 C 649.422 216.89 647.969 217.289 647.962 216.201 Z " fill="rgb(93,198,188)"/><path d=" M 703.142 199.186 C 694.18 191.579 703.201 185.955 708.57 180.876 C 711.409 178.197 713.895 175.296 715.678 171.912 C 719.047 165.524 715.307 159.73 709.441 156.485 C 703.377 153.128 693.956 152.552 688.535 160.524 C 686.336 163.759 688.046 168.428 690.83 170.133 C 694.596 172.44 695.041 170.248 694.761 170.129 C 693.831 168.851 692.65 168.384 691.525 166.533 C 688.947 162.313 692.496 158.472 698.472 157.491 C 700.248 157.252 702.8 157.416 704.525 157.93 C 710.482 159.72 713.549 163.285 712.861 168.289 C 712.155 173.449 706.437 178.159 702.668 181.496 C 696.828 186.677 690.55 197.676 701.888 201.248 C 703.135 201.644 704.08 199.984 703.142 199.186" fill="rgb(93,198,188)"/><path d=" M 708.746 208.43 C 708.283 209.954 706.599 210.673 704.984 210.809 C 702.969 210.979 701.995 208.634 702.48 207.145 C 702.84 206.034 704.065 205.1 705.216 204.967 C 708.93 204.531 708.934 207.813 708.746 208.43 Z  M 705.131 203.317 C 703.51 203.587 702.05 204.452 701.086 205.655 C 699.111 208.12 700.733 212.128 703.973 212.725 C 706.529 213.195 709.177 211.709 710.574 209.797 C 712.041 207.786 711.214 202.325 705.131 203.317 Z " fill="rgb(93,198,188)"/><path d=" M 353.811 221.559 C 352.377 222.497 352.002 223.621 354.791 222.763 C 358.059 221.757 360.185 221.409 363.523 220.888 C 366.504 220.421 368.371 220.322 370.384 220.544 C 348.305 228.209 323.992 248.715 315.027 269.08 C 314.079 271.234 314.462 273.204 316.659 269.602 C 322.397 260.177 328.801 251.953 337.129 244.215 C 346.262 235.735 357.118 229.968 367.899 224.122 C 366.28 225.949 364.704 229.665 364.48 230.34 C 363.727 232.589 365.391 232.872 366.188 231.539 C 369.233 226.447 370.759 224.528 374.087 221.835 C 376.43 219.937 376.936 218.952 374.001 218.11 C 372.787 217.766 371.322 217.452 369.677 217.346 C 363.948 216.965 356.908 219.521 353.811 221.559" fill="rgb(93,198,188)"/><path d=" M 534.347 212.411 C 534.347 212.411 529.033 210.99 525.782 207.557 C 523.292 204.926 521.538 199.554 521.531 199.568 C 521.527 199.554 519.769 204.926 517.28 207.557 C 514.033 210.99 508.719 212.411 508.719 212.411 C 508.719 212.411 513.9 214.125 516.835 217.128 C 519.781 220.138 521.546 224.801 521.553 224.811 C 521.553 224.811 523.285 220.138 526.227 217.128 C 529.162 214.125 534.347 212.411 534.347 212.411 Z " fill="rgb(255,255,255)"/><path d=" M 205.677 137.019 C 205.677 137.019 200.364 135.598 197.113 132.162 C 194.625 129.534 192.868 124.163 192.862 124.176 C 192.859 124.163 191.101 129.534 188.614 132.162 C 185.362 135.598 180.048 137.019 180.048 137.019 C 180.048 137.019 185.233 138.73 188.168 141.733 C 191.111 144.746 192.876 149.409 192.881 149.419 C 192.881 149.419 194.616 144.746 197.558 141.733 C 200.494 138.73 205.677 137.019 205.677 137.019" fill="rgb(255,255,255)"/><path d=" M 370.243 22.836 C 370.243 22.836 364.93 21.415 361.679 17.979 C 359.191 15.351 357.434 9.979 357.428 9.993 C 357.425 9.979 355.667 15.351 353.18 17.979 C 349.928 21.415 344.614 22.836 344.614 22.836 C 344.614 22.836 349.799 24.547 352.734 27.55 C 355.677 30.563 357.442 35.226 357.447 35.236 C 357.447 35.236 359.182 30.563 362.124 27.55 C 365.06 24.547 370.243 22.836 370.243 22.836 Z " fill="rgb(255,255,255)"/><path d=" M 696.375 342.235 C 696.375 342.235 691.065 340.814 687.811 337.378 C 685.325 334.751 683.567 329.379 683.563 329.392 C 683.56 329.379 681.802 334.751 679.312 337.378 C 676.061 340.814 670.747 342.235 670.747 342.235 C 670.747 342.235 675.932 343.95 678.867 346.952 C 681.813 349.963 683.578 354.626 683.582 354.636 C 683.582 354.636 685.314 349.963 688.259 346.952 C 691.194 343.95 696.375 342.235 696.375 342.235 Z " fill="rgb(255,255,255)"/><path d=" M 263.886 174.342 C 263.886 174.342 256.94 172.484 252.688 167.992 C 249.434 164.553 247.136 157.528 247.131 157.548 C 247.125 157.528 244.826 164.553 241.572 167.992 C 237.321 172.484 230.373 174.342 230.373 174.342 C 230.373 174.342 237.152 176.585 240.991 180.511 C 244.839 184.445 247.15 190.546 247.153 190.556 C 247.153 190.556 249.42 184.445 253.27 180.511 C 257.108 176.585 263.886 174.342 263.886 174.342 Z " fill="rgb(255,255,255)"/><path d=" M 326.447 440.648 C 326.447 440.648 319.5 438.791 315.248 434.298 C 311.994 430.862 309.697 423.835 309.692 423.854 C 309.684 423.835 307.389 430.862 304.134 434.298 C 299.883 438.791 292.935 440.648 292.935 440.648 C 292.935 440.648 299.712 442.887 303.55 446.818 C 307.4 450.755 309.712 456.851 309.715 456.866 C 309.715 456.866 311.981 450.755 315.831 446.818 C 319.669 442.887 326.447 440.648 326.447 440.648 Z " fill="rgb(255,255,255)"/><path d=" M 340.21 530.015 C 343.518 530.015 346.206 531.507 347.903 533.194 L 345.257 535.956 C 343.85 534.691 342.32 533.887 340.252 533.887 C 335.827 533.887 332.643 537.332 332.643 542.969 C 332.643 548.683 335.577 552.128 340.087 552.128 C 342.485 552.128 344.262 551.212 345.794 549.64 L 348.44 552.36 C 346.248 554.698 343.435 556 340.003 556 C 333.14 556 327.72 551.399 327.72 543.083 C 327.72 534.882 333.263 530.015 340.21 530.015" fill="rgb(255,255,255)"/><path d=" M 363.918 545.27 L 362.967 542.203 C 362.141 539.558 361.312 536.681 360.528 533.924 L 360.363 533.924 C 359.617 536.722 358.832 539.558 357.964 542.203 L 357.011 545.27 L 363.918 545.27 Z  M 364.994 548.757 L 355.937 548.757 L 353.828 555.541 L 348.907 555.541 L 357.757 530.474 L 363.381 530.474 L 372.19 555.541 L 367.104 555.541 L 364.994 548.757" fill="rgb(255,255,255)"/><path d=" M 379.81 542.203 L 383.614 542.203 C 387.336 542.203 389.321 540.745 389.321 537.909 C 389.321 535.036 387.336 534.04 383.614 534.04 L 379.81 534.04 L 379.81 542.203 Z  M 389.737 555.541 L 383.903 545.727 L 379.81 545.727 L 379.81 555.541 L 375.014 555.541 L 375.014 530.474 L 384.11 530.474 C 389.737 530.474 394.077 532.315 394.077 537.909 C 394.077 541.739 391.927 544.04 388.661 545.077 L 395.112 555.541 L 389.737 555.541" fill="rgb(255,255,255)"/><path d=" M 407.942 542.777 C 411.994 542.777 413.899 541.283 413.899 538.215 C 413.899 535.073 411.873 534.04 407.942 534.04 L 404.056 534.04 L 404.056 542.777 L 407.942 542.777 Z  M 399.259 530.474 L 408.357 530.474 C 414.271 530.474 418.614 532.39 418.614 538.215 C 418.614 543.775 414.146 546.341 408.357 546.341 L 404.056 546.341 L 404.056 555.541 L 399.259 555.541 L 399.259 530.474 Z " fill="rgb(255,255,255)"/><path d=" M 423.178 530.474 L 439.428 530.474 L 439.428 534.227 L 427.973 534.227 L 427.973 540.629 L 437.692 540.629 L 437.692 544.387 L 427.973 544.387 L 427.973 551.785 L 439.84 551.785 L 439.84 555.541 L 423.178 555.541 L 423.178 530.474 Z " fill="rgb(255,255,255)"/><path d=" M 444.86 530.474 L 449.777 530.474 L 458.176 544.579 L 460.985 549.906 L 461.151 549.906 C 460.905 547.339 460.529 544.156 460.529 541.358 L 460.529 530.474 L 465.082 530.474 L 465.082 555.541 L 460.158 555.541 L 451.762 541.436 L 448.953 536.109 L 448.787 536.109 C 449.034 538.75 449.405 541.781 449.405 544.579 L 449.405 555.541 L 444.86 555.541 L 444.86 530.474" fill="rgb(255,255,255)"/><path d=" M 476.92 534.227 L 469.105 534.227 L 469.105 530.474 L 489.493 530.474 L 489.493 534.227 L 481.715 534.227 L 481.715 555.541 L 476.92 555.541 L 476.92 534.227 Z " fill="rgb(255,255,255)"/><path d=" M 498.312 542.203 L 502.118 542.203 C 505.839 542.203 507.825 540.745 507.825 537.909 C 507.825 535.036 505.839 534.04 502.118 534.04 L 498.312 534.04 L 498.312 542.203 Z  M 508.237 555.541 L 502.405 545.727 L 498.312 545.727 L 498.312 555.541 L 493.516 555.541 L 493.516 530.474 L 502.614 530.474 C 508.237 530.474 512.58 532.315 512.58 537.909 C 512.58 541.739 510.429 544.04 507.163 545.077 L 513.613 555.541 L 508.237 555.541" fill="rgb(255,255,255)"/><path d=" M 521.608 546.229 L 513.463 530.474 L 518.589 530.474 L 521.527 536.875 C 522.311 538.75 523.098 540.474 523.925 542.394 L 524.09 542.394 C 524.958 540.474 525.826 538.75 526.613 536.875 L 529.548 530.474 L 534.553 530.474 L 526.407 546.229 L 526.407 555.541 L 521.608 555.541 L 521.608 546.229" fill="rgb(255,255,255)"/></g></g></svg>