<?xml version="1.0" encoding="UTF-8" standalone="no"?>
<svg
   xmlns:dc="http://purl.org/dc/elements/1.1/"
   xmlns:cc="http://creativecommons.org/ns#"
   xmlns:rdf="http://www.w3.org/1999/02/22-rdf-syntax-ns#"
   xmlns:svg="http://www.w3.org/2000/svg"
   xmlns="http://www.w3.org/2000/svg"
   xmlns:sodipodi="http://sodipodi.sourceforge.net/DTD/sodipodi-0.dtd"
   xmlns:inkscape="http://www.inkscape.org/namespaces/inkscape"
   width="1439"
   height="324"
   id="svg7769"
   version="1.1"
   inkscape:version="0.91 r13725"
   sodipodi:docname="header-illustration-dark.svg">
  <metadata
     id="metadata7807">
    <rdf:RDF>
      <cc:Work
         rdf:about="">
        <dc:format>image/svg+xml</dc:format>
        <dc:type
           rdf:resource="http://purl.org/dc/dcmitype/StillImage" />
        <dc:title></dc:title>
      </cc:Work>
    </rdf:RDF>
  </metadata>
  <sodipodi:namedview
     pagecolor="#ffffff"
     bordercolor="#666666"
     borderopacity="1"
     objecttolerance="10"
     gridtolerance="10"
     guidetolerance="10"
     inkscape:pageopacity="0"
     inkscape:pageshadow="2"
     inkscape:window-width="1366"
     inkscape:window-height="723"
     id="namedview7805"
     showgrid="false"
     inkscape:zoom="0.29603892"
     inkscape:cx="719.5"
     inkscape:cy="162"
     inkscape:window-x="0"
     inkscape:window-y="19"
     inkscape:window-maximized="1"
     inkscape:current-layer="svg7769" />
  <defs
     id="defs7771">
    <linearGradient
       x1="88.517%"
       y1="90.281%"
       x2="2.797%"
       y2="52.227%"
       id="a">
      <stop
         stop-color="#93F4FE"
         offset="0%"
         id="stop7774" />
      <stop
         stop-color="#5ECCF4"
         offset="38.08%"
         id="stop7776" />
      <stop
         stop-color="#535FD7"
         offset="100%"
         id="stop7778" />
    </linearGradient>
    <linearGradient
       x1="50%"
       y1="0%"
       x2="50%"
       y2="97.351%"
       id="b">
      <stop
         stop-color="#212880"
         offset="0%"
         id="stop7781" />
      <stop
         stop-color="#212880"
         stop-opacity="0"
         offset="100%"
         id="stop7783" />
    </linearGradient>
    <linearGradient
       x1="4.987%"
       y1="31.296%"
       x2="29.552%"
       y2="79.275%"
       id="c">
      <stop
         stop-color="#212880"
         offset="0%"
         id="stop7786" />
      <stop
         stop-color="#212880"
         stop-opacity="0"
         offset="100%"
         id="stop7788" />
    </linearGradient>
    <linearGradient
       x1="50%"
       y1="0%"
       x2="50%"
       y2="100%"
       id="d">
      <stop
         stop-color="#535FD7"
         offset="0%"
         id="stop7791" />
      <stop
         stop-color="#535FD7"
         stop-opacity=".24"
         offset="100%"
         id="stop7793" />
    </linearGradient>
  </defs>
  <g
     transform="matrix(0.36928599,0,0,-0.34764026,-98.879686,658.52664)"
     id="g5940">
    <path
       inkscape:connector-curvature="0"
       id="path4862"
       style="fill:#d8d8d8;fill-opacity:1;fill-rule:nonzero;stroke:none"
       d="m 3729.9,1559.29 -28.06,32.43 28.06,0 0,-32.43 z m -24.18,-196.04 24.18,0 0,-27.94 -24.18,27.94 z m -5.45,-35.97 0,28.53 24.69,-28.53 -24.69,0 z m -59.12,282.43 0,22.57 27.23,-22.57 -27.23,0 z m -623.69,25.34 47.69,-25.34 -47.69,0 0,25.34 z m 611.86,-25.34 -54.55,28.98 57.39,0 0,-28.98 -2.84,0 z m -65.73,24.74 46.57,-24.74 -46.57,0 0,24.74 z m -11.83,-24.74 -54.56,28.98 57.4,0 0,-28.98 -2.84,0 z m -65.72,24.74 46.55,-24.74 -46.55,0 0,24.74 z m -11.84,-24.74 -54.55,28.98 57.39,0 0,-28.98 -2.84,0 z m -65.72,24.74 46.55,-24.74 -46.55,0 0,24.74 z m -11.84,-24.74 -54.55,28.98 57.39,0 0,-28.98 -2.84,0 z m -67.81,25.85 48.64,-25.85 -48.64,0 0,25.85 z m -11.84,-25.85 -54.55,28.98 57.39,0 0,-28.98 -2.84,0 z m -65.72,24.74 46.55,-24.74 -46.55,0 0,24.74 z m -11.84,-24.74 -54.56,28.98 57.41,0 0,-28.98 -2.85,0 z m -65.73,24.74 46.56,-24.74 -46.56,0 0,24.74 z m -11.83,-24.74 -54.56,28.98 57.4,0 0,-28.98 -2.84,0 z m -65.73,24.74 46.57,-24.74 -46.57,0 0,24.74 z m -11.83,-24.74 -54.55,28.98 57.39,0 0,-28.98 -2.84,0 z m 613.38,254.55 -8.37,-248.56 -49.43,40.98 -588.71,0 646.51,207.58 z m 2.58,-313.01 0,28.54 24.69,-28.54 -24.69,0 z m 5.45,-8.98 24.18,0 0,-27.94 -24.18,27.94 z m -0.43,-44.98 24.61,0 0,-28.42 -24.61,28.42 z m 0.43,-45.45 24.18,0 0,-27.94 -24.18,27.94 z m 1.16,-44.97 23.02,0 0,-26.6 -23.02,26.6 z m -6.61,-6.1 24.69,-28.52 -24.69,0 0,28.52 z m 0,134.05 24.69,-28.53 -24.69,0 0,28.53 z m 0,-45.45 24.69,-28.54 -24.69,0 0,28.54 z m 0,-44.98 24.69,-28.53 -24.69,0 0,28.53 z m 23.4,421.61 8.4,-256.29 -33.95,0 8.63,256.29 16.92,0 z m 146.82,-256.29 -129.42,0 -7.96,242.66 137.38,-242.66 z m 10.34,0 -148.47,265.28 -34.31,0 -676.28,-218.31 -22.3,0 0,-64.96 682.82,0 0,-424.9 17.98,0 0,151.46 29.63,0 0,-151.46 17.99,0 0,424.9 133.36,0 -0.42,17.99" />
    <path
       inkscape:connector-curvature="0"
       id="path4864"
       style="fill:#d8d8d8;fill-opacity:1;fill-rule:nonzero;stroke:none"
       d="m 3402.7,906.699 213.17,0 0,-245.051 -213.17,0 0,245.051 z m 294.18,0 213.17,0 0,-245.051 -213.17,0 0,245.051 z m -652.26,-284.269 933.81,0 0,325.179 -933.81,0 0,-325.179" />
    <path
       inkscape:connector-curvature="0"
       id="path4866"
       style="fill:#d8d8d8;fill-opacity:1;fill-rule:nonzero;stroke:none"
       d="m 3944.55,1293.6 -283.48,0 0,23.09 283.48,0 0,-23.09 z m -34.5,-285.95 -213.17,0 0,245.06 213.17,0 0,-245.06 z m -294.18,0 -213.17,0 0,245.06 213.17,0 0,-245.06 z m -248.86,309.04 283.48,0 0,-23.09 -283.48,0 0,23.09 z m -42.96,-309.04 -213.17,0 0,245.06 213.17,0 0,-245.06 z m -240.56,309.04 272.94,0 0,-23.09 -272.94,0 0,23.09 z m 909.46,0 0,10.59 -37.81,0 0,20.66 -10.59,0 0,-20.66 -283.48,0 0,20.66 -10.58,0 0,-20.66 -283.48,0 0,20.66 -10.58,0 0,-20.66 -272.94,0 0,20.66 -10.59,0 0,-20.66 -35.91,0 0,-10.59 35.91,0 0,-23.09 -28.28,0 0,-325.159 933.81,0 0,325.159 -23.29,0 0,23.09 37.81,0" />
    <path
       inkscape:connector-curvature="0"
       id="path4868"
       style="fill:#9b9b9b;fill-opacity:1;fill-rule:nonzero;stroke:none"
       d="m 2621.55,781.281 -30,0 c -2.76,0 -5,2.239 -5,5 0,2.758 2.24,5 5,5 l 30,0 c 2.77,0 5,-2.242 5,-5 0,-2.761 -2.23,-5 -5,-5 z m 60,0 -30,0 c -2.76,0 -5,2.239 -5,5 0,2.758 2.24,5 5,5 l 30,0 c 2.77,0 5,-2.242 5,-5 0,-2.761 -2.23,-5 -5,-5 z m 60,0 -30,0 c -2.76,0 -5,2.239 -5,5 0,2.758 2.24,5 5,5 l 30,0 c 2.77,0 5,-2.242 5,-5 0,-2.761 -2.23,-5 -5,-5 z m 60,0 -30,0 c -2.76,0 -5,2.239 -5,5 0,2.758 2.24,5 5,5 l 30,0 c 2.77,0 5,-2.242 5,-5 0,-2.761 -2.23,-5 -5,-5 z m 60,0 -30,0 c -2.76,0 -5,2.239 -5,5 0,2.758 2.24,5 5,5 l 30,0 c 2.77,0 5,-2.242 5,-5 0,-2.761 -2.23,-5 -5,-5 z m 60,0 -30,0 c -2.76,0 -5,2.239 -5,5 0,2.758 2.24,5 5,5 l 30,0 c 2.77,0 5,-2.242 5,-5 0,-2.761 -2.23,-5 -5,-5 z m 60,0 -30,0 c -2.76,0 -5,2.239 -5,5 0,2.758 2.24,5 5,5 l 30,0 c 2.77,0 5,-2.242 5,-5 0,-2.761 -2.23,-5 -5,-5 z m 60,0 -30,0 c -2.76,0 -5,2.239 -5,5 0,2.758 2.24,5 5,5 l 30,0 c 2.77,0 5,-2.242 5,-5 0,-2.761 -2.23,-5 -5,-5 z m 60,0 -30,0 c -2.76,0 -5,2.239 -5,5 0,2.758 2.24,5 5,5 l 30,0 c 2.77,0 5,-2.242 5,-5 0,-2.761 -2.23,-5 -5,-5 z m 60,0 -30,0 c -2.76,0 -5,2.239 -5,5 0,2.758 2.24,5 5,5 l 30,0 c 2.77,0 5,-2.242 5,-5 0,-2.761 -2.23,-5 -5,-5 z m 60,0 -30,0 c -2.76,0 -5,2.239 -5,5 0,2.758 2.24,5 5,5 l 30,0 c 2.77,0 5,-2.242 5,-5 0,-2.761 -2.23,-5 -5,-5 z m 60,0 -30,0 c -2.76,0 -5,2.239 -5,5 0,2.758 2.24,5 5,5 l 30,0 c 2.77,0 5,-2.242 5,-5 0,-2.761 -2.23,-5 -5,-5 z m 60,0 -30,0 c -2.76,0 -5,2.239 -5,5 0,2.758 2.24,5 5,5 l 30,0 c 2.77,0 5,-2.242 5,-5 0,-2.761 -2.23,-5 -5,-5" />
    <path
       inkscape:connector-curvature="0"
       id="path4870"
       style="fill:#9b9b9b;fill-opacity:1;fill-rule:nonzero;stroke:none"
       d="m 2626.26,733.672 -30,0 c -2.76,0 -5,2.238 -5,5 0,2.769 2.24,5 5,5 l 30,0 c 2.76,0 5,-2.231 5,-5 0,-2.762 -2.24,-5 -5,-5 z m 60,0 -30,0 c -2.76,0 -5,2.238 -5,5 0,2.769 2.24,5 5,5 l 30,0 c 2.76,0 5,-2.231 5,-5 0,-2.762 -2.24,-5 -5,-5 z m 60,0 -30,0 c -2.76,0 -5,2.238 -5,5 0,2.769 2.24,5 5,5 l 30,0 c 2.76,0 5,-2.231 5,-5 0,-2.762 -2.24,-5 -5,-5 z m 60,0 -30,0 c -2.76,0 -5,2.238 -5,5 0,2.769 2.24,5 5,5 l 30,0 c 2.76,0 5,-2.231 5,-5 0,-2.762 -2.24,-5 -5,-5 z m 60,0 -30,0 c -2.76,0 -5,2.238 -5,5 0,2.769 2.24,5 5,5 l 30,0 c 2.76,0 5,-2.231 5,-5 0,-2.762 -2.24,-5 -5,-5 z m 60,0 -30,0 c -2.76,0 -5,2.238 -5,5 0,2.769 2.24,5 5,5 l 30,0 c 2.76,0 5,-2.231 5,-5 0,-2.762 -2.24,-5 -5,-5 z m 60,0 -30,0 c -2.76,0 -5,2.238 -5,5 0,2.769 2.24,5 5,5 l 30,0 c 2.76,0 5,-2.231 5,-5 0,-2.762 -2.24,-5 -5,-5 z m 60,0 -30,0 c -2.76,0 -5,2.238 -5,5 0,2.769 2.24,5 5,5 l 30,0 c 2.76,0 5,-2.231 5,-5 0,-2.762 -2.24,-5 -5,-5 z m 60,0 -30,0 c -2.76,0 -5,2.238 -5,5 0,2.769 2.24,5 5,5 l 30,0 c 2.76,0 5,-2.231 5,-5 0,-2.762 -2.24,-5 -5,-5 z m 60,0 -30,0 c -2.76,0 -5,2.238 -5,5 0,2.769 2.24,5 5,5 l 30,0 c 2.76,0 5,-2.231 5,-5 0,-2.762 -2.24,-5 -5,-5 z m 60,0 -30,0 c -2.76,0 -5,2.238 -5,5 0,2.769 2.24,5 5,5 l 30,0 c 2.76,0 5,-2.231 5,-5 0,-2.762 -2.24,-5 -5,-5 z m 60,0 -30,0 c -2.76,0 -5,2.238 -5,5 0,2.769 2.24,5 5,5 l 30,0 c 2.76,0 5,-2.231 5,-5 0,-2.762 -2.24,-5 -5,-5 z m 60,0 -30,0 c -2.76,0 -5,2.238 -5,5 0,2.769 2.24,5 5,5 l 30,0 c 2.76,0 5,-2.231 5,-5 0,-2.762 -2.24,-5 -5,-5 z m 60,0 -30,0 c -2.76,0 -5,2.238 -5,5 0,2.769 2.24,5 5,5 l 30,0 c 2.76,0 5,-2.231 5,-5 0,-2.762 -2.24,-5 -5,-5" />
    <path
       inkscape:connector-curvature="0"
       id="path4872"
       style="fill:#9b9b9b;fill-opacity:1;fill-rule:nonzero;stroke:none"
       d="m 3631.38,1022.19 -1.31,0 c -2.77,0 -5,2.23 -5,5 0,2.76 2.23,5 5,5 l 1.31,0 c 2.76,0 5,-2.24 5,-5 0,-2.77 -2.24,-5 -5,-5 z m 60,0 -30,0 c -2.77,0 -5,2.23 -5,5 0,2.76 2.23,5 5,5 l 30,0 c 2.76,0 5,-2.24 5,-5 0,-2.77 -2.24,-5 -5,-5 z m 60,0 -30,0 c -2.77,0 -5,2.23 -5,5 0,2.76 2.23,5 5,5 l 30,0 c 2.76,0 5,-2.24 5,-5 0,-2.77 -2.24,-5 -5,-5 z m 60,0 -30,0 c -2.77,0 -5,2.23 -5,5 0,2.76 2.23,5 5,5 l 30,0 c 2.76,0 5,-2.24 5,-5 0,-2.77 -2.24,-5 -5,-5 z m 37.3,-22.702 c -2.76,0 -5,2.242 -5,5.002 l 0,17.7 -2.3,0 c -2.77,0 -5,2.23 -5,5 0,2.76 2.23,5 5,5 l 12.3,0 0,-27.7 c 0,-2.76 -2.23,-5.002 -5,-5.002 z m 0,-60 c -2.76,0 -5,2.242 -5,5 l 0,30 c 0,2.774 2.24,5 5,5 2.77,0 5,-2.226 5,-5 l 0,-30 c 0,-2.758 -2.23,-5 -5,-5 z m 0.01,-60 c -2.76,0 -5,2.242 -5,5 l -0.01,30 c 0,2.774 2.24,5 5,5 2.77,0 5,-2.226 5,-5 l 0.01,-30 c 0,-2.758 -2.23,-5 -5,-5 z m 0,-60 c -2.76,0 -5,2.242 -5,5 l 0,30 c 0,2.774 2.24,5 5,5 2.77,0 5,-2.226 5,-5 l 0,-30 c 0,-2.758 -2.23,-5 -5,-5 z m 10.39,-49.609 -15.39,0 0,24.609 c 0,2.774 2.24,5 5,5 2.77,0 5,-2.226 5,-5 l 0,-14.609 5.39,0 c 2.77,0 5,-2.231 5,-5 0,-2.758 -2.23,-5 -5,-5 z m 60,0 -30,0 c -2.76,0 -5,2.242 -5,5 0,2.769 2.24,5 5,5 l 30,0 c 2.77,0 5,-2.231 5,-5 0,-2.758 -2.23,-5 -5,-5 z m 60,0 -30,0 c -2.76,0 -5,2.242 -5,5 0,2.769 2.24,5 5,5 l 30,0 c 2.77,0 5,-2.231 5,-5 0,-2.758 -2.23,-5 -5,-5 z m 60,0 -30,0 c -2.76,0 -5,2.242 -5,5 0,2.769 2.24,5 5,5 l 30,0 c 2.77,0 5,-2.231 5,-5 0,-2.758 -2.23,-5 -5,-5 z m 60,0 -30,0 c -2.76,0 -5,2.242 -5,5 0,2.769 2.24,5 5,5 l 30,0 c 2.77,0 5,-2.231 5,-5 0,-2.758 -2.23,-5 -5,-5 z m 60,0 -30,0 c -2.76,0 -5,2.242 -5,5 0,2.769 2.24,5 5,5 l 30,0 c 2.77,0 5,-2.231 5,-5 0,-2.758 -2.23,-5 -5,-5" />
    <path
       inkscape:connector-curvature="0"
       id="path4874"
       style="fill:#9b9b9b;fill-opacity:1;fill-rule:nonzero;stroke:none"
       d="m 3783.89,1882.55 c -2.77,0 -5,2.24 -5,5 l 0,30 c 0,2.76 2.23,5 5,5 2.76,0 5,-2.24 5,-5 l 0,-30 c 0,-2.76 -2.24,-5 -5,-5 z m 0,-60 c -2.77,0 -5,2.24 -5,5 l 0,30 c 0,2.76 2.23,5 5,5 2.76,0 5,-2.24 5,-5 l 0,-30 c 0,-2.76 -2.24,-5 -5,-5 z m 0,-60 c -2.77,0 -5,2.24 -5,5 l 0,30 c 0,2.76 2.23,5 5,5 2.76,0 5,-2.24 5,-5 l 0,-30 c 0,-2.76 -2.24,-5 -5,-5 z m 0,-60 c -2.77,0 -5,2.24 -5,5 l 0,30 c 0,2.76 2.23,5 5,5 2.76,0 5,-2.24 5,-5 l 0,-30 c 0,-2.76 -2.24,-5 -5,-5 z m 0,-60 c -2.77,0 -5,2.24 -5,5 l 0,30 c 0,2.76 2.23,5 5,5 2.76,0 5,-2.24 5,-5 l 0,-30 c 0,-2.76 -2.24,-5 -5,-5 z m 0,-60 c -2.77,0 -5,2.24 -5,5 l 0,30 c 0,2.76 2.23,5 5,5 2.76,0 5,-2.24 5,-5 l 0,-30 c 0,-2.76 -2.24,-5 -5,-5 z m 0,-60 c -2.77,0 -5,2.24 -5,5 l 0,30 c 0,2.76 2.23,5 5,5 2.76,0 5,-2.24 5,-5 l 0,-30 c 0,-2.76 -2.24,-5 -5,-5 z m 0,-60 c -2.77,0 -5,2.24 -5,5 l 0,30 c 0,2.76 2.23,5 5,5 2.76,0 5,-2.24 5,-5 l 0,-30 c 0,-2.76 -2.24,-5 -5,-5 z m 0,-60 c -2.77,0 -5,2.24 -5,5 l 0,30 c 0,2.76 2.23,5 5,5 2.76,0 5,-2.24 5,-5 l 0,-30 c 0,-2.76 -2.24,-5 -5,-5 z m 0,-60 c -2.77,0 -5,2.24 -5,5 l 0,30 c 0,2.76 2.23,5 5,5 2.76,0 5,-2.24 5,-5 l 0,-30 c 0,-2.76 -2.24,-5 -5,-5 z m 0,-60 c -2.77,0 -5,2.24 -5,5 l 0,30 c 0,2.76 2.23,5 5,5 2.76,0 5,-2.24 5,-5 l 0,-30 c 0,-2.76 -2.24,-5 -5,-5 z m 0,-60 c -2.77,0 -5,2.24 -5,5 l 0,30 c 0,2.76 2.23,5 5,5 2.76,0 5,-2.24 5,-5 l 0,-30 c 0,-2.76 -2.24,-5 -5,-5 z m -183.8,-26.2 -26.38,0 c -2.76,0 -5,2.23 -5,5 0,2.76 2.24,5 5,5 l 26.38,0 c 2.76,0 5,-2.24 5,-5 0,-2.77 -2.24,-5 -5,-5 z m 60,0 -30,0 c -2.77,0 -5,2.23 -5,5 0,2.76 2.23,5 5,5 l 30,0 c 2.76,0 5,-2.24 5,-5 0,-2.77 -2.24,-5 -5,-5 z m 60,0 -30,0 c -2.77,0 -5,2.23 -5,5 0,2.76 2.23,5 5,5 l 30,0 c 2.76,0 5,-2.24 5,-5 0,-2.77 -2.24,-5 -5,-5 z m 60,0 -30,0 c -2.77,0 -5,2.23 -5,5 0,2.76 2.23,5 5,5 l 30,0 c 2.76,0 5,-2.24 5,-5 0,-2.77 -2.24,-5 -5,-5" />
    <path
       inkscape:connector-curvature="0"
       id="path4876"
       style="fill:#9b9b9b;fill-opacity:1;fill-rule:nonzero;stroke:none"
       d="m 3554.73,1202.27 c 0,-6.3 -5.1,-11.4 -11.4,-11.4 -6.29,0 -11.4,5.1 -11.4,11.4 0,6.28 5.11,11.38 11.4,11.38 6.3,0 11.4,-5.1 11.4,-11.38" />
    <path
       inkscape:connector-curvature="0"
       id="path4878"
       style="fill:#f4b073;fill-opacity:1;fill-rule:nonzero;stroke:none"
       d="m 3495.24,1151.83 -5.64,70.57 -67.52,-5.57 -70.35,6.51 -5.65,-70.58 c 0,0 25.42,-32.72 75.29,-33.35 l 0,-0.05 c 0.24,0 0.47,0.02 0.71,0.02 0.23,0 0.46,-0.02 0.7,-0.02 l 0,0.05 c 49.87,0.63 72.46,32.42 72.46,32.42" />
    <path
       inkscape:connector-curvature="0"
       id="path4880"
       style="fill:#fbd099;fill-opacity:1;fill-rule:nonzero;stroke:none"
       d="m 3419.1,1378.14 c -41.87,-2.82 -81.87,3.77 -105.4,10.37 -17.18,4.8 -32.31,15.33 -39.29,20.69 0.01,-0.23 0.01,-0.43 0.02,-0.66 -6.07,2.27 -13.79,2.04 -19.74,-8.75 -9.89,-17.88 0,-52.69 13.17,-63.52 6.1,-5.01 11.74,-8.56 16.1,-10.97 6.61,-32.34 17.31,-62.68 34.64,-81.25 44.38,-47.55 84.83,-57.69 96.55,-59.72 2.19,-0.38 3.49,-0.51 3.49,-0.51 0,0 0.57,0.06 1.4,0.16 l 0,194.23 c -0.3,-0.02 -0.63,-0.05 -0.94,-0.07" />
    <path
       inkscape:connector-curvature="0"
       id="path4882"
       style="fill:#f9c38a;fill-opacity:1;fill-rule:nonzero;stroke:none"
       d="m 3586.64,1398.39 c -6.95,12.58 -16.29,10.81 -22.62,7.45 0,0.04 0.81,22.24 0.88,31.26 -31.7,-2.57 -104.14,-8.27 -144.86,-10.2 -14.63,-0.69 -25.19,-0.89 -28.23,-0.28 -12.52,2.5 -98.19,13.5 -118.08,16.61 -0.03,-9.29 0.12,-20.9 0.68,-34.03 6.97,-5.36 22.11,-15.89 39.29,-20.69 23.53,-6.6 63.53,-13.19 105.4,-10.37 0.31,0.02 0.64,0.05 0.94,0.07 l 0,-194.23 c 7.97,1.05 52.15,8.96 99.85,60.07 16.68,17.87 27.26,46.79 33.95,77.96 4.51,2.26 11.7,6.35 19.63,12.85 13.17,10.82 23.05,45.65 13.17,63.53" />
    <path
       inkscape:connector-curvature="0"
       id="path4884"
       style="fill:#fbcb43;fill-opacity:1;fill-rule:nonzero;stroke:none"
       d="m 3500.52,1478.85 c -23.94,15.48 -46.92,20.7 -49.86,143.38 -3.53,0.2 -7.21,0.36 -11.07,0.47 -5.21,0.13 -31.56,0.11 -37.75,-0.09 -4.88,-0.16 -9.43,-0.43 -13.83,-0.76 -2.98,-122.3 -25.94,-127.53 -49.85,-143 -28.32,-18.33 -63.04,0.47 -63.04,0.47 l -1.32,1.07 c 0.49,-11.24 1.69,-18.49 1.69,-18.49 0,0 6.35,-13.4 40.94,-35.28 30.68,-19.41 92.22,-13.68 105.88,-12.3 13.67,-1.38 70.58,-7.47 101.26,11.95 34.59,21.87 40.94,35.28 40.94,35.28 0,0 1.3,7.89 1.74,19.95 l -2.69,-2.18 c 0,0 -34.72,-18.8 -63.04,-0.47" />
    <path
       inkscape:connector-curvature="0"
       id="path4886"
       style="fill:#f5b400;fill-opacity:1;fill-rule:nonzero;stroke:none"
       d="m 3543.34,1573.78 c -22.33,31.39 -41.27,45.48 -92.68,48.45 2.94,-122.68 25.92,-127.9 49.86,-143.38 28.32,-18.33 63.04,0.47 63.04,0.47 l 2.69,2.18 c 0.84,23.24 -1.54,62.25 -22.91,92.28" />
    <path
       inkscape:connector-curvature="0"
       id="path4888"
       style="fill:#f5b400;fill-opacity:1;fill-rule:nonzero;stroke:none"
       d="m 3565.33,1470.38 c -8.46,-12.7 -17.63,-26.12 -42.34,-33.17 -58.37,-16.68 -147.62,-16.68 -205.98,0 -24.71,7.05 -33.88,20.47 -42.35,33.17 -4.94,-0.71 -16,-0.47 -16,-0.47 l 0.47,-48.23 41.64,-7.06 c 0,0 17.63,-24.36 96.12,-27.76 6.54,-0.29 38.53,-0.23 46.38,0.23 74.67,4.41 95.95,27.53 95.95,27.53 l 41.65,7.06 0.47,48.23 c 0,0 -11.07,-0.24 -16.01,0.47" />
    <path
       inkscape:connector-curvature="0"
       id="path4890"
       style="fill:#dcdee0;fill-opacity:1;fill-rule:nonzero;stroke:none"
       d="m 3500.42,1376.19 c -14.92,-1.96 -30.1,-3.67 -45.18,-4.67 -11.4,-0.75 -57.81,-0.75 -69.21,0 -15.08,1 -30.27,2.71 -45.18,4.67 -18.24,2.4 -32.87,3.98 -33.04,-14.74 -0.12,-13.99 -1.7,-30.49 6.28,-41.75 4.23,-5.98 30.3,-7.91 59.24,-6.98 11.35,0.37 15.52,7.07 18.29,16.06 4.01,13.01 13.69,19.85 28.53,20.14 l 0,0.11 c 0.17,0 0.31,-0.06 0.48,-0.06 0.18,0 0.31,0.06 0.48,0.06 l 0,-0.11 c 14.84,-0.29 24.52,-7.13 28.54,-20.14 2.76,-8.99 6.93,-15.69 18.29,-16.06 28.94,-0.93 55,1 59.24,6.98 7.98,11.26 6.4,27.76 6.28,41.75 -0.17,18.72 -14.8,17.14 -33.04,14.74" />
    <path
       inkscape:connector-curvature="0"
       id="path4892"
       style="fill:#8e8e8e;fill-opacity:1;fill-rule:nonzero;stroke:none"
       d="m 3527.18,1319.7 c -4.24,-5.98 -30.3,-7.91 -59.24,-6.98 -11.36,0.37 -15.53,7.07 -18.29,16.06 -4.02,13.01 -13.7,19.85 -28.54,20.14 l 0,0.11 c -0.17,0 -0.3,-0.06 -0.48,-0.06 -0.17,0 -0.31,0.06 -0.48,0.06 l 0,-0.11 c -14.84,-0.29 -24.52,-7.13 -28.53,-20.14 -2.77,-8.99 -6.94,-15.69 -18.29,-16.06 -28.94,-0.93 -55.01,1 -59.24,6.98 -7.98,11.26 -6.4,27.76 -6.28,41.75 0.17,18.72 14.8,17.14 33.04,14.74 14.91,-1.96 30.1,-3.67 45.18,-4.67 11.4,-0.75 57.81,-0.75 69.21,0 15.08,1 30.26,2.71 45.18,4.67 18.24,2.4 32.87,3.98 33.04,-14.74 0.12,-13.99 1.7,-30.49 -6.28,-41.75 z m -25.65,65.08 c -44.08,-5.85 -82.15,-10.58 -161.8,0 -21.29,2.83 -39.49,-0.93 -39.94,-18.67 -0.42,-15.96 0.41,-32.66 4.47,-46.3 1.3,-4.32 5.35,-11.07 16.31,-13.06 15.79,-2.87 38.9,-2.5 55.5,-1.37 9.02,0.63 14.26,4.68 17.42,9.96 10.23,17.1 7.22,23.76 27.14,25.38 19.93,-1.62 16.92,-8.28 27.14,-25.38 3.17,-5.28 8.41,-9.33 17.43,-9.96 16.6,-1.13 38.58,-0.38 54.48,1.87 11.41,1.62 16.03,8.24 17.32,12.56 4.07,13.64 4.89,30.34 4.48,46.3 -0.45,17.74 -18.65,21.5 -39.95,18.67" />
    <path
       inkscape:connector-curvature="0"
       id="path4894"
       style="fill:#f4b073;fill-opacity:1;fill-rule:nonzero;stroke:none"
       d="m 3274.18,1386.39 4.23,-34.36 c 0,0 -12,6.36 -14.11,22.35 -1.28,9.61 2.11,15.77 9.88,12.01" />
    <path
       inkscape:connector-curvature="0"
       id="path4896"
       style="fill:#f4b073;fill-opacity:1;fill-rule:nonzero;stroke:none"
       d="m 3565.18,1386.39 -4.23,-34.36 c 0,0 11.99,6.36 14.11,22.35 1.27,9.61 -2.12,15.77 -9.88,12.01" />
    <path
       inkscape:connector-curvature="0"
       id="path4898"
       style="fill:#e89958;fill-opacity:1;fill-rule:nonzero;stroke:none"
       d="m 3437.45,1227.58 -36.7,0 c -3.12,0 -5.64,2.53 -5.64,5.64 0,3.13 2.52,5.65 5.64,5.65 l 36.7,0 c 3.13,0 5.66,-2.52 5.66,-5.65 0,-3.11 -2.53,-5.64 -5.66,-5.64" />
    <path
       inkscape:connector-curvature="0"
       id="path4900"
       style="fill:#f0851d;fill-opacity:1;fill-rule:nonzero;stroke:none"
       d="m 3420.12,725.738 -243.29,0 0,-152.008 c 75.15,-30.218 157.15,-47.019 243.13,-47.019 0.05,0 0.11,0.008 0.16,0.008 l 0,199.019" />
    <path
       inkscape:connector-curvature="0"
       id="path4902"
       style="fill:#f0851d;fill-opacity:1;fill-rule:nonzero;stroke:none"
       d="m 3420.12,864.078 -243.29,0 0,-80.457 243.29,0 0,80.457" />
    <path
       inkscape:connector-curvature="0"
       id="path4904"
       style="fill:#f0851d;fill-opacity:1;fill-rule:nonzero;stroke:none"
       d="m 3420.12,980.082 -103.04,180.938 c -36.28,-17.89 -96.72,-48.93 -140.25,-77.56 l 0,-161.499 243.29,0 0,58.121" />
    <path
       inkscape:connector-curvature="0"
       id="path4906"
       style="fill:#fbcb43;fill-opacity:1;fill-rule:nonzero;stroke:none"
       d="m 3420.12,921.961 -243.29,0 0,-57.883 243.29,0 0,57.883" />
    <path
       inkscape:connector-curvature="0"
       id="path4908"
       style="fill:#fbcb43;fill-opacity:1;fill-rule:nonzero;stroke:none"
       d="m 3420.12,783.621 -243.29,0 0,-57.883 243.29,0 0,57.883" />
    <path
       inkscape:connector-curvature="0"
       id="path4910"
       style="fill:#6f85bf;fill-opacity:1;fill-rule:nonzero;stroke:none"
       d="m 3420.12,1116.09 c -0.26,-0.02 -0.48,-0.08 -0.74,-0.11 -14.23,6.27 -79.46,40.29 -87.18,52.42 -4.37,-2.11 -9.4,-4.55 -15.12,-7.38 l 103.04,-180.938 0,136.008" />
    <path
       inkscape:connector-curvature="0"
       id="path4912"
       style="fill:#506aa5;fill-opacity:1;fill-rule:nonzero;stroke:none"
       d="m 3420.12,1128.4 c -43.94,0.4 -71.89,47.65 -71.89,47.65 0,0 -6.07,-2.83 -16.03,-7.65 8.49,-13.35 37.28,-60.32 87.92,-60.54 l 0,20.54" />
    <path
       inkscape:connector-curvature="0"
       id="path4914"
       style="fill:#fbd099;fill-opacity:1;fill-rule:nonzero;stroke:none"
       d="m 3095.44,833.738 c 0,-19.058 -4.23,-185.629 -2.62,-219.156 26.84,-15.562 54.93,-29.16 84.01,-40.852 l 0,152.008 0,57.883 -0.22,50.82 -81.17,-0.703" />
    <path
       inkscape:connector-curvature="0"
       id="path4916"
       style="fill:#6f85bf;fill-opacity:1;fill-rule:nonzero;stroke:none"
       d="m 3176.83,864.078 0,219.382 c -20.56,-13.52 -37.37,-26.5 -45.99,-37.28 -25.72,-32.15 -38.41,-101.938 -45.41,-183.5 l 91.4,0 0,1.398" />
    <path
       inkscape:connector-curvature="0"
       id="path4918"
       style="fill:#506aa5;fill-opacity:1;fill-rule:nonzero;stroke:none"
       d="m 3176.83,862.68 -91.4,0 c -0.96,-11.11 -1.81,-22.418 -2.57,-33.879 l 93.97,0 0,33.879" />
    <path
       inkscape:connector-curvature="0"
       id="path4920"
       style="fill:#e8721b;fill-opacity:1;fill-rule:nonzero;stroke:none"
       d="m 3419.88,725.738 243.3,0 0,-152.008 c -75.16,-30.218 -157.16,-47.019 -243.14,-47.019 -0.05,0 -0.1,0.008 -0.16,0.008 l 0,199.019" />
    <path
       inkscape:connector-curvature="0"
       id="path4922"
       style="fill:#e8721b;fill-opacity:1;fill-rule:nonzero;stroke:none"
       d="m 3419.88,864.078 243.3,0 0,-80.457 -243.3,0 0,80.457" />
    <path
       inkscape:connector-curvature="0"
       id="path4924"
       style="fill:#e8721b;fill-opacity:1;fill-rule:nonzero;stroke:none"
       d="m 3419.88,980.082 103.05,180.938 c 36.27,-17.89 96.71,-48.93 140.25,-77.56 l 0,-161.499 -243.3,0 0,58.121" />
    <path
       inkscape:connector-curvature="0"
       id="path4926"
       style="fill:#f5b400;fill-opacity:1;fill-rule:nonzero;stroke:none"
       d="m 3419.88,921.961 243.3,0 0,-57.883 -243.3,0 0,57.883" />
    <path
       inkscape:connector-curvature="0"
       id="path4928"
       style="fill:#f5b400;fill-opacity:1;fill-rule:nonzero;stroke:none"
       d="m 3419.88,783.621 243.3,0 0,-57.883 -243.3,0 0,57.883" />
    <path
       inkscape:connector-curvature="0"
       id="path4930"
       style="fill:#506aa5;fill-opacity:1;fill-rule:nonzero;stroke:none"
       d="m 3419.88,1116.09 c 0.27,-0.02 0.48,-0.08 0.75,-0.11 14.22,6.27 79.45,40.29 87.17,52.42 4.37,-2.11 9.4,-4.55 15.13,-7.38 l -103.05,-180.938 0,136.008" />
    <path
       inkscape:connector-curvature="0"
       id="path4932"
       style="fill:#35558c;fill-opacity:1;fill-rule:nonzero;stroke:none"
       d="m 3419.88,1128.4 c 43.95,0.4 71.9,47.65 71.9,47.65 0,0 6.06,-2.83 16.02,-7.65 -8.49,-13.35 -37.27,-60.32 -87.92,-60.54 l 0,20.54" />
    <path
       inkscape:connector-curvature="0"
       id="path4934"
       style="fill:#fbd099;fill-opacity:1;fill-rule:nonzero;stroke:none"
       d="m 3744.56,833.738 c 0,-19.058 4.23,-185.629 2.63,-219.156 -26.85,-15.562 -54.94,-29.16 -84.01,-40.852 l 0,152.008 0,57.883 0.21,50.82 81.17,-0.703" />
    <path
       inkscape:connector-curvature="0"
       id="path4936"
       style="fill:#6f85bf;fill-opacity:1;fill-rule:nonzero;stroke:none"
       d="m 3663.18,864.078 0,219.382 c 20.55,-13.52 37.36,-26.5 45.98,-37.28 25.72,-32.15 38.41,-101.938 45.41,-183.5 l -91.39,0 0,1.398" />
    <path
       inkscape:connector-curvature="0"
       id="path4938"
       style="fill:#35558c;fill-opacity:1;fill-rule:nonzero;stroke:none"
       d="m 3663.18,862.68 91.39,0 c 0.96,-11.11 1.81,-22.418 2.57,-33.879 l -93.96,0 0,33.879" />
    <path
       inkscape:connector-curvature="0"
       id="path4940"
       style="fill:#f5b400;fill-opacity:1;fill-rule:nonzero;stroke:none"
       d="m 3363.99,1618.78 c 0.49,-16.69 0.58,-48.5 -4.49,-73.85 -2.86,-14.29 -10.92,-10.13 -13.22,-3.6 -6.33,17.94 -9.72,52.65 -10.05,68.61 -16.07,-7.75 -27.86,-19.34 -39.57,-35.81 -21.82,-30.65 -23.86,-70.71 -22.86,-93.74 l 1.32,-1.07 c 0,0 34.72,-18.8 63.04,-0.47 23.91,15.47 46.87,20.7 49.85,143 -8.86,-0.67 -16.8,-1.67 -24.02,-3.07" />
    <path
       inkscape:connector-curvature="0"
       id="path4942"
       style="fill:#fbcb43;fill-opacity:1;fill-rule:nonzero;stroke:none"
       d="m 3359.5,1544.93 c 5.07,25.35 4.98,57.16 4.49,73.85 -10.69,-2.06 -19.75,-4.98 -27.76,-8.84 0.33,-15.96 3.72,-50.67 10.05,-68.61 2.3,-6.53 10.36,-10.69 13.22,3.6" />
    <path
       inkscape:connector-curvature="0"
       id="path4944"
       style="fill:#fbcb43;fill-opacity:1;fill-rule:nonzero;stroke:none"
       d="m 3483.12,1544.93 c -5.07,25.35 -4.99,57.16 -4.51,73.85 10.7,-2.06 19.76,-4.98 27.77,-8.84 -0.33,-15.96 -3.72,-50.67 -10.05,-68.61 -2.31,-6.53 -10.36,-10.69 -13.21,3.6" />
    <path
       inkscape:connector-curvature="0"
       id="path4946"
       style="fill:#cccccc;fill-opacity:1;fill-rule:nonzero;stroke:none"
       d="m 3967.02,1763.44 -0.04,0 0.04,0 0,0 z" />
    <path
       inkscape:connector-curvature="0"
       id="path4948"
       style="fill:#b2b2b2;fill-opacity:1;fill-rule:nonzero;stroke:none"
       d="m 3966.94,1763.44 0,0 0.04,0 -0.04,0 z" />
    <path
       inkscape:connector-curvature="0"
       id="path4950"
       style="fill:#b2b2b2;fill-opacity:1;fill-rule:nonzero;stroke:none"
       d="m 3967.02,1624.07 c -0.03,0 -0.05,0.01 -0.08,0.01 l 0,-35.75 0.04,0 0.04,0 0,35.74" />
    <path
       inkscape:connector-curvature="0"
       id="path4952"
       style="fill:#b2b2b2;fill-opacity:1;fill-rule:nonzero;stroke:none"
       d="m 3966.94,1666.46 c 0.03,0 0.05,0 0.08,0 l 0,0.06 -0.04,0.01 -0.04,-0.01 0,-0.06" />
    <path
       inkscape:connector-curvature="0"
       id="path4954"
       style="fill:#808080;fill-opacity:1;fill-rule:nonzero;stroke:none"
       d="m 3967.52,1624.01 c 10.77,0 19.51,9.53 19.51,21.26 0,11.74 -8.74,21.25 -19.51,21.25 -0.18,0 -0.33,-0.05 -0.5,-0.06 l 0,-42.39 c 0.17,-0.01 0.32,-0.06 0.5,-0.06" />
    <path
       inkscape:connector-curvature="0"
       id="path4956"
       style="fill:#808080;fill-opacity:1;fill-rule:nonzero;stroke:none"
       d="m 3966.94,1624.08 c 0.03,0 0.05,-0.01 0.08,-0.01 l 0,42.39 c -0.03,0 -0.05,0 -0.08,0 l 0,-42.38" />
    <path
       inkscape:connector-curvature="0"
       id="path4958"
       style="fill:#9b9b9b;fill-opacity:1;fill-rule:nonzero;stroke:none"
       d="m 3966.48,1624.01 c -10.77,0 -19.51,9.53 -19.51,21.26 0,11.74 8.74,21.25 19.51,21.25 0.18,0 0.34,-0.05 0.5,-0.06 l 0,-42.39 c -0.16,-0.01 -0.32,-0.06 -0.5,-0.06" />
    <path
       inkscape:connector-curvature="0"
       id="path4960"
       style="fill:#cccccc;fill-opacity:1;fill-rule:nonzero;stroke:none"
       d="m 3912.53,1685.77 c 12.03,39.3 31.28,76.98 31.28,76.98 l 23.17,0.69 0,-49.37 c -0.1,0.01 -0.18,0.03 -0.28,0.03 -11.3,0 -19.4,-5.82 -19.92,-17.11 -1.07,-23.11 19.82,-30.36 20.24,-30.46 l -0.04,-0.01 0,-0.06 c -0.16,0.01 -0.32,0.06 -0.5,0.06 -10.77,0 -19.51,-9.51 -19.51,-21.25 0,-11.73 8.74,-21.26 19.51,-21.26 0.18,0 0.34,0.05 0.5,0.06 l 0,-35.74 0.04,0 -52.89,-0.4 c 0,0 -13.48,59.04 -1.6,97.84" />
    <path
       inkscape:connector-curvature="0"
       id="path4962"
       style="fill:#cccccc;fill-opacity:1;fill-rule:nonzero;stroke:none"
       d="m 3968.31,1619.21 c -0.43,0 -0.86,-0.06 -1.29,-0.07 l 0,-30.81 -0.04,0 44.59,-0.34 c -6.03,18.13 -23.1,31.22 -43.26,31.22" />
    <path
       inkscape:connector-curvature="0"
       id="path4964"
       style="fill:#cccccc;fill-opacity:1;fill-rule:nonzero;stroke:none"
       d="m 3919.65,1566.01 c 0.17,-5.87 0.77,-22.24 2.08,-28.33 1.53,-7.16 6.87,-27.03 4.09,-48.36 l 25.31,-13.67 14.44,59.35 0,31.01 -45.92,0" />
    <path
       inkscape:connector-curvature="0"
       id="path4966"
       style="fill:#9b9b9b;fill-opacity:1;fill-rule:nonzero;stroke:none"
       d="m 3921.73,1537.68 c -1.31,6.09 -1.91,22.46 -2.08,28.33 l -2.2,0 0,-72.18 8.37,-4.51 c 2.78,21.33 -2.56,41.2 -4.09,48.36" />
    <path
       inkscape:connector-curvature="0"
       id="path4968"
       style="fill:#b2b2b2;fill-opacity:1;fill-rule:nonzero;stroke:none"
       d="m 4016.84,1564.94 c -0.18,-5.88 -0.78,-22.24 -2.08,-28.34 -1.54,-7.15 -6.88,-27.01 -4.1,-48.36 l -25.31,-13.66 -14.43,59.35 0,31.01 45.92,0" />
    <path
       inkscape:connector-curvature="0"
       id="path4970"
       style="fill:#808080;fill-opacity:1;fill-rule:nonzero;stroke:none"
       d="m 4014.76,1536.6 c 1.3,6.1 1.9,22.46 2.08,28.34 l 2.19,0 0,-72.18 -8.37,-4.52 c -2.78,21.35 2.56,41.21 4.1,48.36" />
    <path
       inkscape:connector-curvature="0"
       id="path4972"
       style="fill:#b2b2b2;fill-opacity:1;fill-rule:nonzero;stroke:none"
       d="m 4010.82,1573.59 c 0,-23.47 -19.03,-42.5 -42.51,-42.5 -23.47,0 -42.5,19.03 -42.5,42.5 0,23.48 19.03,42.5 42.5,42.5 23.48,0 42.51,-19.02 42.51,-42.5" />
    <path
       inkscape:connector-curvature="0"
       id="path4974"
       style="fill:#b2b2b2;fill-opacity:1;fill-rule:nonzero;stroke:none"
       d="m 4021.47,1685.77 c -12.03,39.3 -31.27,76.98 -31.27,76.98 l -23.18,0.69 0,-49.37 c 0.1,0.01 0.19,0.03 0.28,0.03 11.3,0 19.4,-5.82 19.93,-17.11 1.06,-23.11 -19.83,-30.36 -20.25,-30.46 l 0.04,-0.01 0,-0.06 c 0.17,0.01 0.32,0.06 0.5,0.06 10.77,0 19.51,-9.51 19.51,-21.25 0,-11.73 -8.74,-21.26 -19.51,-21.26 -0.18,0 -0.33,0.05 -0.5,0.06 l 0,-4.93 c 0.43,0.01 0.86,0.07 1.29,0.07 20.16,0 37.23,-13.09 43.26,-31.22 l 8.3,-0.06 c 0,0 13.48,59.04 1.6,97.84" />
    <path
       inkscape:connector-curvature="0"
       id="path4976"
       style="fill:#cccccc;fill-opacity:1;fill-rule:nonzero;stroke:none"
       d="m 3968.31,1539.51 c -18.79,0 -34.08,15.28 -34.08,34.08 0,18.79 15.29,34.09 34.08,34.09 18.8,0 34.08,-15.3 34.08,-34.09 0,-18.8 -15.28,-34.08 -34.08,-34.08" />
    <path
       inkscape:connector-curvature="0"
       id="path4978"
       style="fill:#fbcb43;fill-opacity:1;fill-rule:nonzero;stroke:none"
       d="m 3949.34,1439.99 c 5.1,11.19 11.95,46.88 11.95,46.88 0,0 -36.29,15.73 -52.01,20.27 -7.14,2.06 -12.33,-4.74 -20.32,-11.41 -8,-6.65 -19.2,-3.05 -24.89,-12.08 6.41,-3.24 29.47,-16.19 33.6,-36.86 4.81,-24.07 -2.52,-49.67 -11.22,-68.98 -18.45,-40.9 -30.48,-87.41 -28.08,-141.14 3.63,-81 20.41,-140.76 29.46,-167.73 7.83,-0.18 13.34,4.95 11.89,11.24 -19.74,84.88 -30,194.7 -10.87,247.92 23.35,64.95 44.91,77.78 60.49,111.89" />
    <path
       inkscape:connector-curvature="0"
       id="path4980"
       style="fill:#9b9b9b;fill-opacity:1;fill-rule:nonzero;stroke:none"
       d="m 3886.45,1377.81 c 8.7,19.31 16.03,44.91 11.22,68.98 -4.13,20.67 -27.19,33.62 -33.6,36.86 -0.26,-0.43 -0.58,-0.73 -0.83,-1.22 -6.25,-12.51 15.77,-29.52 11.97,-48.14 -7.78,-38.01 -25,-55.91 -35.87,-102.63 -23.92,-102.62 2.98,-184.97 17.25,-229.03 8.1,-24.98 21.49,-33.47 31.24,-33.69 -9.05,26.97 -25.83,86.73 -29.46,167.73 -2.4,53.73 9.63,100.24 28.08,141.14" />
    <path
       inkscape:connector-curvature="0"
       id="path4982"
       style="fill:#f5b400;fill-opacity:1;fill-rule:nonzero;stroke:none"
       d="m 3986.91,1439.99 c -5.11,11.19 -11.96,46.88 -11.96,46.88 0,0 36.3,15.73 52.01,20.27 7.15,2.06 12.33,-4.74 20.33,-11.41 7.99,-6.65 19.19,-3.05 24.88,-12.08 -6.4,-3.24 -29.46,-16.19 -33.6,-36.86 -4.8,-24.07 2.53,-49.67 11.23,-68.98 18.45,-40.9 30.48,-87.41 28.07,-141.14 -3.62,-81 -20.41,-140.76 -29.46,-167.73 -7.83,-0.18 -13.34,4.95 -11.88,11.24 19.73,84.88 30,194.7 10.87,247.92 -23.36,64.95 -44.91,77.78 -60.49,111.89" />
    <path
       inkscape:connector-curvature="0"
       id="path4984"
       style="fill:#808080;fill-opacity:1;fill-rule:nonzero;stroke:none"
       d="m 4049.8,1377.81 c -8.7,19.31 -16.03,44.91 -11.23,68.98 4.14,20.67 27.2,33.62 33.6,36.86 0.27,-0.43 0.58,-0.73 0.83,-1.22 6.25,-12.51 -15.76,-29.52 -11.96,-48.14 7.78,-38.01 25,-55.91 35.87,-102.63 23.92,-102.62 -2.98,-184.97 -17.26,-229.03 -8.1,-24.98 -21.48,-33.47 -31.24,-33.69 9.05,26.97 25.84,86.73 29.46,167.73 2.41,53.73 -9.62,100.24 -28.07,141.14" />
    <path
       inkscape:connector-curvature="0"
       id="path4986"
       style="fill:#9b9b9b;fill-opacity:1;fill-rule:nonzero;stroke:none"
       d="m 3068.32,1394.88 c -26.44,0 -47.88,21.44 -47.88,47.88 0,26.44 21.44,47.87 47.88,47.87 26.45,0 47.88,-21.43 47.88,-47.87 0,-26.44 -21.43,-47.88 -47.88,-47.88 z m 50.78,-6.63 c 4.69,4.69 12.93,4.47 21.02,0.36 0.4,-0.2 0.79,-0.49 1.18,-0.72 7.77,10.31 13.49,22.27 16.34,35.32 -0.97,0.24 -1.98,0.41 -2.89,0.71 -8.64,2.81 -14.61,8.49 -14.61,15.11 0,6.63 5.97,12.31 14.61,15.12 1.3,0.43 2.73,0.72 4.15,1.02 -1.86,13.65 -6.88,26.25 -14.07,37.29 -0.72,-0.49 -1.43,-1.01 -2.16,-1.45 -0.85,-0.52 -1.69,-1.12 -2.55,-1.56 -8.09,-4.11 -16.33,-4.31 -21.02,0.36 -4.68,4.69 -4.47,12.93 -0.36,21.03 0.63,1.22 1.44,2.43 2.23,3.64 0.41,0.64 1,1.21 1.45,1.84 -10.89,8.03 -23.55,13.79 -37.38,16.35 -1.45,-12.41 -8.37,-21.82 -16.72,-21.82 -8.35,0 -15.26,9.41 -16.71,21.82 -13.77,-2.55 -26.38,-8.29 -37.23,-16.24 0.46,-0.64 0.91,-1.27 1.34,-1.92 0.57,-0.85 0.86,-1.72 1.35,-2.58 4.71,-8.44 5.37,-17.21 0.47,-22.12 -4.75,-4.74 -13.15,-4.31 -21.35,-0.02 -0.76,0.41 -1.52,0.63 -2.28,1.1 -0.73,0.45 -1.43,0.99 -2.14,1.5 -7.16,-11.01 -12.15,-23.57 -14.02,-37.18 10.84,-2.14 18.75,-8.53 18.75,-16.18 0,-7.34 -7.28,-13.56 -17.47,-15.94 2.87,-13.06 8.61,-25 16.39,-35.31 8.45,4.71 17.22,5.37 22.12,0.47 4.75,-4.74 4.33,-13.14 0.03,-21.35 10.55,-7.07 22.58,-12.11 35.63,-14.29 2.82,8.64 8.5,14.61 15.12,14.61 6.63,0 12.31,-5.97 15.12,-14.61 13.02,2.18 25.01,7.2 35.53,14.24 -0.06,0.13 -0.16,0.26 -0.23,0.39 -4.11,8.09 -4.32,16.32 0.36,21.01" />
    <path
       inkscape:connector-curvature="0"
       id="path4988"
       style="fill:#9b9b9b;fill-opacity:1;fill-rule:nonzero;stroke:none"
       d="m 3277.44,1817.27 -20.79,-16.38 -15.86,0 20.8,16.38 15.85,0" />
    <path
       inkscape:connector-curvature="0"
       id="path4990"
       style="fill:#9b9b9b;fill-opacity:1;fill-rule:nonzero;stroke:none"
       d="m 3310.21,1817.27 -20.81,-16.38 -16.34,0 20.8,16.38 16.35,0" />
    <path
       inkscape:connector-curvature="0"
       id="path4992"
       style="fill:#9b9b9b;fill-opacity:1;fill-rule:nonzero;stroke:none"
       d="m 3374.25,1817.27 -20.79,-16.38 -15.86,0 20.8,16.38 15.85,0" />
    <path
       inkscape:connector-curvature="0"
       id="path4994"
       style="fill:#9b9b9b;fill-opacity:1;fill-rule:nonzero;stroke:none"
       d="m 3341.98,1817.27 -20.8,-16.38 -15.36,0 20.79,16.38 15.37,0" />
    <path
       inkscape:connector-curvature="0"
       id="path4996"
       style="fill:#9b9b9b;fill-opacity:1;fill-rule:nonzero;stroke:none"
       d="m 3245.18,1817.27 -20.8,-16.38 -16.34,0 20.79,16.38 16.35,0" />
    <path
       inkscape:connector-curvature="0"
       id="path4998"
       style="fill:#9b9b9b;fill-opacity:1;fill-rule:nonzero;stroke:none"
       d="m 3148.15,1817.27 64.27,0 -20.8,-16.38 -43.47,0 0,16.38" />
    <path
       inkscape:connector-curvature="0"
       id="path5000"
       style="fill:#b2b2b2;fill-opacity:1;fill-rule:nonzero;stroke:none"
       d="m 3228.83,1817.27 -20.79,-16.38 -16.42,0 20.8,16.38 16.41,0" />
    <path
       inkscape:connector-curvature="0"
       id="path5002"
       style="fill:#b2b2b2;fill-opacity:1;fill-rule:nonzero;stroke:none"
       d="m 3261.59,1817.27 -20.8,-16.38 -16.41,0 20.8,16.38 16.41,0" />
    <path
       inkscape:connector-curvature="0"
       id="path5004"
       style="fill:#b2b2b2;fill-opacity:1;fill-rule:nonzero;stroke:none"
       d="m 3293.86,1817.27 -20.8,-16.38 -16.41,0 20.79,16.38 16.42,0" />
    <path
       inkscape:connector-curvature="0"
       id="path5006"
       style="fill:#b2b2b2;fill-opacity:1;fill-rule:nonzero;stroke:none"
       d="m 3326.61,1817.27 -20.79,-16.38 -16.42,0 20.81,16.38 16.4,0" />
    <path
       inkscape:connector-curvature="0"
       id="path5008"
       style="fill:#b2b2b2;fill-opacity:1;fill-rule:nonzero;stroke:none"
       d="m 3358.4,1817.27 -20.8,-16.38 -16.42,0 20.8,16.38 16.42,0" />
    <path
       inkscape:connector-curvature="0"
       id="path5010"
       style="fill:#b2b2b2;fill-opacity:1;fill-rule:nonzero;stroke:none"
       d="m 3374.22,1817.34 -0.25,-16.45 -20.51,0 20.76,16.45 z" />
    <path
       inkscape:connector-curvature="0"
       id="path5012"
       style="fill:#9b9b9b;fill-opacity:1;fill-rule:nonzero;stroke:none"
       d="m 2976.8,1809.08 c 0.24,39.76 20.3,71.87 76.26,71.87 17.08,0 58.83,-2.99 72.98,-8.27 0.03,-0.02 0.07,-0.04 0.11,-0.05 l 0,-63.55 -149.35,0" />
    <path
       inkscape:connector-curvature="0"
       id="path5014"
       style="fill:#808080;fill-opacity:1;fill-rule:nonzero;stroke:none"
       d="m 3126.15,1809.08 0,-63.55 c -0.04,-0.01 -0.08,-0.03 -0.11,-0.04 -14.15,-5.29 -55.9,-8.28 -72.98,-8.28 -55.96,0 -76.02,32.11 -76.26,71.87 l 149.35,0" />
    <path
       inkscape:connector-curvature="0"
       id="path5016"
       style="fill:#cccccc;fill-opacity:1;fill-rule:nonzero;stroke:none"
       d="m 3171.87,1837.83 0,-28.75 -45.72,0 0,63.55 c 20.21,-7.58 36.39,-19.87 45.72,-34.8" />
    <path
       inkscape:connector-curvature="0"
       id="path5018"
       style="fill:#b2b2b2;fill-opacity:1;fill-rule:nonzero;stroke:none"
       d="m 3171.87,1809.08 0,-28.76 c -9.33,-14.93 -25.51,-27.21 -45.72,-34.79 l 0,63.55 45.72,0" />
    <path
       inkscape:connector-curvature="0"
       id="path5020"
       style="fill:#cccccc;fill-opacity:1;fill-rule:nonzero;stroke:none"
       d="m 2980.21,1731.89 73.58,3.79 0,148.88 -73.58,1.84 0,-154.51" />
    <path
       inkscape:connector-curvature="0"
       id="path5022"
       style="fill:#b2b2b2;fill-opacity:1;fill-rule:nonzero;stroke:none"
       d="m 2940.85,1858.89 c 0,-7.08 5.74,-12.84 12.83,-12.84 l 58.67,0 c 7.09,0 12.84,5.76 12.84,12.84 l 0,0 c 0,7.09 -5.75,12.84 -12.84,12.84 l -58.67,0 c -7.09,0 -12.83,-5.75 -12.83,-12.84 l 0,0" />
    <path
       inkscape:connector-curvature="0"
       id="path5024"
       style="fill:#b2b2b2;fill-opacity:1;fill-rule:nonzero;stroke:none"
       d="m 2940.85,1810.49 c 0,-7.09 5.74,-12.83 12.83,-12.83 l 58.67,0 c 7.09,0 12.84,5.74 12.84,12.83 l 0,0 c 0,7.09 -5.75,12.83 -12.84,12.83 l -58.67,0 c -7.09,0 -12.83,-5.74 -12.83,-12.83 l 0,0" />
    <path
       inkscape:connector-curvature="0"
       id="path5026"
       style="fill:#b2b2b2;fill-opacity:1;fill-rule:nonzero;stroke:none"
       d="m 2940.85,1759.15 c 0,-7.09 5.74,-12.83 12.83,-12.83 l 58.67,0 c 7.09,0 12.84,5.74 12.84,12.83 l 0,0 c 0,7.09 -5.75,12.83 -12.84,12.83 l -58.67,0 c -7.09,0 -12.83,-5.74 -12.83,-12.83 l 0,0" />
    <path
       inkscape:connector-curvature="0"
       id="path5028"
       style="fill:#fbcb43;fill-opacity:1;fill-rule:nonzero;stroke:none"
       d="m 2911.76,1658.63 c 0,-6.47 5.25,-11.73 11.74,-11.73 l 30.31,0 c 6.47,0 11.73,5.26 11.73,11.73 l 0,31.29 c 0,6.49 -5.26,11.74 -11.73,11.74 l -30.31,0 c -6.49,0 -11.74,-5.25 -11.74,-11.74 l 0,-31.29" />
    <path
       inkscape:connector-curvature="0"
       id="path5030"
       style="fill:#d3362d;fill-opacity:1;fill-rule:nonzero;stroke:none"
       d="m 2769.44,1547.06 c 5.17,1.63 10.62,4.29 16.18,8.41 28.35,21.02 28.35,80.67 29.82,116.85 1.19,29.35 -4.93,62.09 18.58,62.09 25.42,0 44.98,1.97 82.63,1.48 32.3,-0.42 40.09,4.39 40.58,18.57 1.31,37.95 0.88,104.2 0.62,131.94 l 25.17,0 c 0,0 0.13,-170.27 0.36,-179.11 0.33,-12.78 -6.3,-15.41 -12.95,-15.41 -16.62,0 -45.71,0 -45.71,0 0,0 -0.25,-32.26 -0.25,-45.95 0,-3.92 -2.15,-5.4 -4.89,-7.09 -2.33,-1.45 -5.63,-2.4 -6.72,-5.82 -6.14,0.75 -11.45,1.39 -13.82,1.66 -21.53,2.45 -24.09,-29.44 -16.21,-31.83 7.06,-2.14 18.22,-4.28 29.3,-6.09 -0.02,-3.34 -0.03,-6.83 -0.05,-10.42 -11.68,2.27 -24.81,4.77 -28.68,5.31 -17.62,2.45 -24.93,-30.31 -11.82,-33.29 9.61,-2.18 26.35,-5.05 40.39,-7.33 -0.01,-4.09 -0.02,-8.14 -0.03,-12.09 -12.79,2.44 -33.24,6.26 -38.26,6.69 -17.65,1.53 -20.27,-28.3 -12.28,-30.25 14.04,-3.43 36.26,-7.86 50.49,-10.61 -0.01,-10.46 -0.01,-17.13 -0.01,-17.13 l -149.98,-0.37 c 0,0 3.61,25.39 7.54,59.79" />
    <path
       inkscape:connector-curvature="0"
       id="path5032"
       style="fill:#e84c43;fill-opacity:1;fill-rule:nonzero;stroke:none"
       d="m 2873.68,1545.63 c 5.02,-0.43 25.47,-4.25 38.26,-6.69 -0.02,-13.02 -0.04,-25.04 -0.05,-34.17 -14.23,2.75 -36.45,7.18 -50.49,10.61 -7.99,1.95 -5.37,31.78 12.28,30.25" />
    <path
       inkscape:connector-curvature="0"
       id="path5034"
       style="fill:#e84c43;fill-opacity:1;fill-rule:nonzero;stroke:none"
       d="m 2883.4,1591.65 c 3.87,-0.54 17,-3.04 28.68,-5.31 -0.05,-11.21 -0.08,-23.42 -0.11,-35.31 -14.04,2.28 -30.78,5.15 -40.39,7.33 -13.11,2.98 -5.8,35.74 11.82,33.29" />
    <path
       inkscape:connector-curvature="0"
       id="path5036"
       style="fill:#e84c43;fill-opacity:1;fill-rule:nonzero;stroke:none"
       d="m 2899.04,1634.68 c 2.37,-0.27 7.68,-0.91 13.82,-1.66 -0.19,-0.6 -0.33,-1.24 -0.37,-2 -0.16,-3.32 -0.27,-16.8 -0.36,-34.26 -11.08,1.81 -22.24,3.95 -29.3,6.09 -7.88,2.39 -5.32,34.28 16.21,31.83" />
    <path
       inkscape:connector-curvature="0"
       id="path5038"
       style="fill:#e84c43;fill-opacity:1;fill-rule:nonzero;stroke:none"
       d="m 2769.79,1732.2 -47.83,0.09 c -25.53,0 -46.23,20.71 -46.23,46.24 l 0,61.64 c 0,25.52 20.7,46.23 46.23,46.23 l 235.89,0 c 0.26,-27.74 0.69,-93.99 -0.62,-131.94 -0.49,-14.18 -8.28,-18.99 -40.58,-18.57 -37.65,0.49 -57.21,-1.48 -82.63,-1.48 -23.51,0 -17.39,-32.74 -18.58,-62.09 -1.47,-36.18 -1.47,-95.83 -29.82,-116.85 -5.56,-4.12 -11.01,-6.78 -16.18,-8.41 7.67,67.17 7.62,174.16 0.35,185.14" />
    <path
       inkscape:connector-curvature="0"
       id="path5040"
       style="fill:#808080;fill-opacity:1;fill-rule:nonzero;stroke:none"
       d="m 2789.04,1464.17 c -5.91,1.61 -18.78,4.07 -29.16,5.97 l 6.43,52.33 c 0,0 131.64,-19.8 174.9,-43.63 4.19,-2.32 11.3,-13.55 11.01,-27.51 -0.19,-9.03 -0.29,-19.05 -0.34,-27.64 -28.46,2.33 -117.27,9.75 -128.74,12.61 -16.13,4.03 -23.35,24.93 -34.1,27.87" />
    <path
       inkscape:connector-curvature="0"
       id="path5042"
       style="fill:#d3362d;fill-opacity:1;fill-rule:nonzero;stroke:none"
       d="m 2951.85,1402.93 -200.21,0 8.24,67.21 c 10.38,-1.9 23.25,-4.36 29.16,-5.97 10.75,-2.94 17.97,-23.84 34.1,-27.87 11.47,-2.86 100.28,-10.28 128.74,-12.61 -0.05,-11.73 -0.03,-20.76 -0.03,-20.76" />
    <path
       inkscape:connector-curvature="0"
       id="path5044"
       style="fill:#fbcb43;fill-opacity:1;fill-rule:nonzero;stroke:none"
       d="m 2898.07,1712.41 c 0,-12.7 -7.83,-18.92 -21.52,-18.57 -19.06,0.49 -38.17,9.97 -40.09,19.56 -1.46,7.33 17.11,9.29 36.67,9.29 13.7,0 24.94,-0.97 24.94,-10.28" />
    <path
       inkscape:connector-curvature="0"
       id="path5046"
       style="fill:#cccccc;fill-opacity:1;fill-rule:nonzero;stroke:none"
       d="m 2815.41,1855.44 c 15.26,-0.23 30.13,-0.67 42.57,-1.48 45.47,-2.93 57.93,-45.47 68.93,-70.41 7.2,-16.31 0,-27.87 -41.12,-29.71 -13.11,-0.59 -27.78,-1.01 -42.78,-1.29 -4.19,7.46 -11.4,23.02 -19.02,51.71 -5.11,19.3 -7.49,37.83 -8.58,51.18" />
    <path
       inkscape:connector-curvature="0"
       id="path5048"
       style="fill:#cccccc;fill-opacity:1;fill-rule:nonzero;stroke:none"
       d="m 2772.36,1855.64 c 9,0.03 18.6,0.03 28.29,-0.03 1.1,-14.08 3.58,-34.03 9.17,-55.11 6.15,-23.18 12.1,-38.44 16.79,-48.21 -8.9,-0.12 -17.76,-0.19 -26.36,-0.23 -4.14,7.27 -11.5,22.88 -19.28,52.2 -5.15,19.4 -7.51,38.03 -8.61,51.38" />
    <path
       inkscape:connector-curvature="0"
       id="path5050"
       style="fill:#cccccc;fill-opacity:1;fill-rule:nonzero;stroke:none"
       d="m 2729.37,1855.38 c 6.41,0.01 16.36,0.12 28.27,0.2 1.09,-14.08 3.56,-34.01 9.16,-55.08 6.2,-23.38 12.21,-38.71 16.91,-48.48 -9.61,0 -18.57,0.04 -26.52,0.12 -4.15,7.3 -11.5,22.9 -19.24,52.12 -5.12,19.28 -7.49,37.78 -8.58,51.12" />
    <path
       inkscape:connector-curvature="0"
       id="path5052"
       style="fill:#cccccc;fill-opacity:1;fill-rule:nonzero;stroke:none"
       d="m 2714.72,1854.23 c 1.14,-13.99 3.64,-33.33 9.05,-53.73 6.13,-23.13 12.08,-38.37 16.77,-48.16 -6.74,0.13 -11.81,0.27 -14.57,0.41 -27.87,1.47 -24.93,40.34 -24.93,56.47 0,14.05 -2.22,39.23 13.68,45.01" />
    <path
       inkscape:connector-curvature="0"
       id="path5054"
       style="fill:#e84c43;fill-opacity:1;fill-rule:nonzero;stroke:none"
       d="m 2757.64,1855.58 c 4.65,0.03 9.58,0.05 14.72,0.06 1.1,-13.35 3.46,-31.98 8.61,-51.38 7.78,-29.32 15.14,-44.93 19.28,-52.2 -5.65,-0.03 -11.19,-0.04 -16.54,-0.04 -4.7,9.77 -10.71,25.1 -16.91,48.48 -5.6,21.07 -8.07,41 -9.16,55.08" />
    <path
       inkscape:connector-curvature="0"
       id="path5056"
       style="fill:#e84c43;fill-opacity:1;fill-rule:nonzero;stroke:none"
       d="m 2800.65,1855.61 c 4.93,-0.04 9.86,-0.09 14.76,-0.17 1.09,-13.35 3.47,-31.88 8.58,-51.18 7.62,-28.69 14.83,-44.25 19.02,-51.71 -5.44,-0.11 -10.92,-0.2 -16.4,-0.26 -4.69,9.77 -10.64,25.03 -16.79,48.21 -5.59,21.08 -8.07,41.03 -9.17,55.11" />
    <path
       inkscape:connector-curvature="0"
       id="path5058"
       style="fill:#e84c43;fill-opacity:1;fill-rule:nonzero;stroke:none"
       d="m 2714.72,1854.23 c 2.35,0.85 5.09,1.29 8.32,1.2 1.31,-0.04 3.49,-0.06 6.33,-0.05 1.09,-13.34 3.46,-31.84 8.58,-51.12 7.74,-29.22 15.09,-44.82 19.24,-52.12 -6.27,0.05 -11.89,0.13 -16.65,0.2 -4.69,9.79 -10.64,25.03 -16.77,48.16 -5.41,20.4 -7.91,39.74 -9.05,53.73" />
    <path
       inkscape:connector-curvature="0"
       id="path5060"
       style="fill:#6b6b6b;fill-opacity:1;fill-rule:nonzero;stroke:none"
       d="m 2914.19,958.781 -20.14,61.339 -144.23,20.5 c 0,0 -21.32,-9.61 -29.1,-38.26 -5.06,-18.649 -8.08,-45.751 5.65,-84.028 32.44,-90.453 32.94,-105.473 71.74,-118.41 23.07,-7.692 89.59,-34.203 89.59,-34.203 0,0 23.15,201.531 26.49,193.062" />
    <path
       inkscape:connector-curvature="0"
       id="path5062"
       style="fill:#6b6b6b;fill-opacity:1;fill-rule:nonzero;stroke:none"
       d="m 3054.05,1027.79 -32.62,-49.501 -27.73,33.071 36.9,32.5 23.45,-16.07" />
    <path
       inkscape:connector-curvature="0"
       id="path5064"
       style="fill:#cccccc;fill-opacity:1;fill-rule:nonzero;stroke:none"
       d="m 2900.08,1028.94 c 84.74,33.44 126.33,129.27 92.87,214.02 -15.3,38.76 -43.68,68.46 -78.05,86.1 -0.08,-0.23 -0.15,-0.48 -0.23,-0.72 -3.06,-8.75 -8.59,-14.79 -12.37,-13.47 -3.77,1.31 -4.36,9.48 -1.31,18.24 0.24,0.68 0.49,1.34 0.77,2 -3.3,1.34 -6.63,2.6 -10.02,3.73 -0.05,-0.3 -0.1,-0.59 -0.17,-0.89 -1.95,-9.06 -6.7,-15.72 -10.6,-14.88 -3.92,0.84 -5.5,8.86 -3.55,17.93 0.13,0.61 0.28,1.22 0.43,1.8 -3.79,0.91 -7.61,1.71 -11.46,2.36 -0.02,-0.38 -0.05,-0.76 -0.08,-1.14 -0.92,-9.22 -4.89,-16.37 -8.87,-15.98 -3.98,0.4 -6.46,8.19 -5.55,17.42 0.05,0.49 0.11,0.97 0.18,1.43 -4.52,0.36 -9.07,0.48 -13.63,0.45 0.07,-0.4 0.13,-0.79 0.19,-1.2 1.3,-9.18 -0.85,-17.08 -4.81,-17.63 -3.96,-0.57 -8.22,6.42 -9.52,15.6 -0.12,0.85 -0.2,1.69 -0.27,2.51 -3.55,-0.33 -7.11,-0.78 -10.66,-1.36 0.12,-0.38 0.23,-0.76 0.34,-1.15 2.41,-8.95 1.25,-17.05 -2.62,-18.09 -3.85,-1.05 -8.94,5.36 -11.36,14.31 -0.18,0.68 -0.34,1.34 -0.48,2 -3.77,-0.95 -7.53,-2.02 -11.27,-3.25 0.16,-0.38 0.33,-0.76 0.49,-1.15 3.41,-8.62 3.16,-16.81 -0.56,-18.27 -3.72,-1.48 -9.5,4.31 -12.91,12.94 -0.18,0.46 -0.34,0.91 -0.5,1.36 -4,-1.72 -7.92,-3.54 -11.71,-5.53 0.28,-0.35 0.55,-0.71 0.81,-1.08 5.4,-7.54 7.14,-15.53 3.89,-17.86 -3.25,-2.33 -10.26,1.9 -15.65,9.44 -0.55,0.75 -1.04,1.5 -1.51,2.26 -3.32,-2.14 -6.55,-4.38 -9.69,-6.73 0.28,-0.27 0.54,-0.54 0.81,-0.83 6.28,-6.81 8.99,-14.54 6.05,-17.25 -2.94,-2.71 -10.42,0.62 -16.7,7.44 -0.47,0.51 -0.91,1.01 -1.33,1.53 -2.93,-2.62 -5.71,-5.35 -8.42,-8.15 0.3,-0.24 0.58,-0.47 0.87,-0.73 7.02,-6.06 10.58,-13.42 7.96,-16.45 -2.61,-3.03 -10.42,-0.56 -17.43,5.51 -0.34,0.29 -0.65,0.58 -0.98,0.88 -2.93,-3.64 -5.75,-7.37 -8.36,-11.21 0.33,-0.16 0.65,-0.3 0.97,-0.46 8.31,-4.11 13.63,-10.34 11.86,-13.93 -1.78,-3.58 -9.95,-3.16 -18.26,0.94 -0.75,0.37 -1.46,0.76 -2.15,1.16 -1.75,-3.13 -3.38,-6.32 -4.91,-9.55 0.36,-0.12 0.72,-0.24 1.09,-0.36 8.75,-3.05 14.78,-8.59 13.47,-12.36 -1.32,-3.77 -9.49,-4.36 -18.24,-1.31 -0.68,0.23 -1.33,0.49 -1.98,0.76 -1.37,-3.67 -2.58,-7.39 -3.69,-11.15 0.43,-0.08 0.87,-0.17 1.31,-0.27 9.04,-2.04 15.65,-6.86 14.77,-10.76 -0.88,-3.91 -8.92,-5.41 -17.97,-3.36 -0.53,0.12 -1.06,0.25 -1.59,0.39 -0.88,-4.35 -1.62,-8.74 -2.15,-13.17 0.45,0.02 0.9,0.04 1.35,0.05 9.27,0.1 16.83,-3.05 16.88,-7.04 0.04,-4.01 -7.43,-7.34 -16.71,-7.45 -0.88,-0.01 -1.73,0.02 -2.58,0.07 -0.11,-3.57 -0.1,-7.17 0.03,-10.76 0.4,0.07 0.79,0.14 1.19,0.19 9.19,1.25 17.07,-0.95 17.61,-4.92 0.54,-3.96 -6.47,-8.18 -15.66,-9.43 -0.68,-0.09 -1.36,-0.16 -2.03,-0.21 0.48,-3.86 1.14,-7.71 1.9,-11.57 0.35,0.11 0.7,0.21 1.06,0.31 9,2.27 17.07,0.97 18.06,-2.9 0.97,-3.88 -5.51,-8.87 -14.5,-11.15 -0.41,-0.1 -0.83,-0.19 -1.24,-0.28 1.19,-4.12 2.57,-8.21 4.11,-12.29 0.3,0.16 0.59,0.32 0.91,0.47 8.32,4.09 16.49,4.49 18.26,0.89 1.76,-3.58 -3.57,-9.8 -11.89,-13.88 -0.54,-0.28 -1.08,-0.52 -1.63,-0.76 1.69,-3.53 3.48,-6.99 5.39,-10.35 0.25,0.17 0.49,0.33 0.74,0.5 7.82,5 15.89,6.32 18.05,2.95 2.16,-3.37 -2.43,-10.15 -10.24,-15.15 -0.29,-0.18 -0.58,-0.35 -0.86,-0.52 42.61,-61.71 123.48,-88.33 196.24,-59.6" />
    <path
       inkscape:connector-curvature="0"
       id="path5066"
       style="fill:#9b9b9b;fill-opacity:1;fill-rule:nonzero;stroke:none"
       d="m 2902.3,1314.87 c 3.78,-1.32 9.31,4.72 12.37,13.47 0.08,0.24 0.15,0.49 0.23,0.72 -4.29,2.21 -8.68,4.22 -13.14,6.05 -0.28,-0.66 -0.53,-1.32 -0.77,-2 -3.05,-8.76 -2.46,-16.93 1.31,-18.24" />
    <path
       inkscape:connector-curvature="0"
       id="path5068"
       style="fill:#9b9b9b;fill-opacity:1;fill-rule:nonzero;stroke:none"
       d="m 2880.97,1323.07 c 3.9,-0.84 8.65,5.82 10.6,14.88 0.07,0.3 0.12,0.59 0.17,0.89 -4.56,1.52 -9.2,2.84 -13.89,3.96 -0.15,-0.58 -0.3,-1.19 -0.43,-1.8 -1.95,-9.07 -0.37,-17.09 3.55,-17.93" />
    <path
       inkscape:connector-curvature="0"
       id="path5070"
       style="fill:#9b9b9b;fill-opacity:1;fill-rule:nonzero;stroke:none"
       d="m 2857.44,1328.04 c 3.98,-0.39 7.95,6.76 8.87,15.98 0.03,0.38 0.06,0.76 0.08,1.14 -4.73,0.78 -9.51,1.36 -14.32,1.73 -0.07,-0.46 -0.13,-0.94 -0.18,-1.43 -0.91,-9.23 1.57,-17.02 5.55,-17.42" />
    <path
       inkscape:connector-curvature="0"
       id="path5072"
       style="fill:#9b9b9b;fill-opacity:1;fill-rule:nonzero;stroke:none"
       d="m 2833.82,1328.51 c 3.96,0.55 6.11,8.45 4.81,17.63 -0.06,0.41 -0.12,0.8 -0.19,1.2 -4.79,-0.03 -9.59,-0.26 -14.41,-0.72 0.07,-0.82 0.15,-1.66 0.27,-2.51 1.3,-9.18 5.56,-16.17 9.52,-15.6" />
    <path
       inkscape:connector-curvature="0"
       id="path5074"
       style="fill:#9b9b9b;fill-opacity:1;fill-rule:nonzero;stroke:none"
       d="m 2811.09,1326.02 c 3.87,1.04 5.03,9.14 2.62,18.09 -0.11,0.39 -0.22,0.77 -0.34,1.15 -4.72,-0.76 -9.42,-1.74 -14.12,-2.93 0.14,-0.66 0.3,-1.32 0.48,-2 2.42,-8.95 7.51,-15.36 11.36,-14.31" />
    <path
       inkscape:connector-curvature="0"
       id="path5076"
       style="fill:#9b9b9b;fill-opacity:1;fill-rule:nonzero;stroke:none"
       d="m 2787.91,1319.66 c 3.72,1.46 3.97,9.65 0.56,18.27 -0.16,0.39 -0.33,0.77 -0.49,1.15 -3.03,-0.99 -6.06,-2.07 -9.05,-3.25 -1.51,-0.6 -2.96,-1.25 -4.43,-1.87 0.16,-0.45 0.32,-0.9 0.5,-1.36 3.41,-8.63 9.19,-14.42 12.91,-12.94" />
    <path
       inkscape:connector-curvature="0"
       id="path5078"
       style="fill:#9b9b9b;fill-opacity:1;fill-rule:nonzero;stroke:none"
       d="m 2767.49,1309.49 c 3.25,2.33 1.51,10.32 -3.89,17.86 -0.26,0.37 -0.53,0.73 -0.81,1.08 -4.28,-2.25 -8.43,-4.67 -12.46,-7.24 0.47,-0.76 0.96,-1.51 1.51,-2.26 5.39,-7.54 12.4,-11.77 15.65,-9.44" />
    <path
       inkscape:connector-curvature="0"
       id="path5080"
       style="fill:#9b9b9b;fill-opacity:1;fill-rule:nonzero;stroke:none"
       d="m 2747.5,1296.38 c 2.94,2.71 0.23,10.44 -6.05,17.25 -0.27,0.29 -0.53,0.56 -0.81,0.83 -3.86,-2.9 -7.6,-5.92 -11.17,-9.11 0.42,-0.52 0.86,-1.02 1.33,-1.53 6.28,-6.82 13.76,-10.15 16.7,-7.44" />
    <path
       inkscape:connector-curvature="0"
       id="path5082"
       style="fill:#9b9b9b;fill-opacity:1;fill-rule:nonzero;stroke:none"
       d="m 2729.88,1280.02 c 2.62,3.03 -0.94,10.39 -7.96,16.45 -0.29,0.26 -0.57,0.49 -0.87,0.73 -3.35,-3.47 -6.55,-7.06 -9.58,-10.79 0.33,-0.3 0.64,-0.59 0.98,-0.88 7.01,-6.07 14.82,-8.54 17.43,-5.51" />
    <path
       inkscape:connector-curvature="0"
       id="path5084"
       style="fill:#9b9b9b;fill-opacity:1;fill-rule:nonzero;stroke:none"
       d="m 2715.94,1260.81 c 1.77,3.59 -3.55,9.82 -11.86,13.93 -0.32,0.16 -0.64,0.3 -0.97,0.46 -2.71,-4 -5.24,-8.09 -7.58,-12.29 0.69,-0.4 1.4,-0.79 2.15,-1.16 8.31,-4.1 16.48,-4.52 18.26,-0.94" />
    <path
       inkscape:connector-curvature="0"
       id="path5086"
       style="fill:#9b9b9b;fill-opacity:1;fill-rule:nonzero;stroke:none"
       d="m 2705.18,1240.64 c 1.31,3.77 -4.72,9.31 -13.47,12.36 -0.37,0.12 -0.73,0.24 -1.09,0.36 -2.08,-4.35 -3.98,-8.77 -5.66,-13.27 0.65,-0.27 1.3,-0.53 1.98,-0.76 8.75,-3.05 16.92,-2.46 18.24,1.31" />
    <path
       inkscape:connector-curvature="0"
       id="path5088"
       style="fill:#9b9b9b;fill-opacity:1;fill-rule:nonzero;stroke:none"
       d="m 2697.35,1217.91 c 0.88,3.9 -5.73,8.72 -14.77,10.76 -0.44,0.1 -0.88,0.19 -1.31,0.27 -1.36,-4.61 -2.52,-9.27 -3.48,-14 0.53,-0.14 1.06,-0.27 1.59,-0.39 9.05,-2.05 17.09,-0.55 17.97,3.36" />
    <path
       inkscape:connector-curvature="0"
       id="path5090"
       style="fill:#9b9b9b;fill-opacity:1;fill-rule:nonzero;stroke:none"
       d="m 2693.87,1194.78 c -0.05,3.99 -7.61,7.14 -16.88,7.04 -0.45,-0.01 -0.9,-0.03 -1.35,-0.05 -0.56,-4.76 -0.9,-9.55 -1.06,-14.37 0.85,-0.05 1.7,-0.08 2.58,-0.07 9.28,0.11 16.75,3.44 16.71,7.45" />
    <path
       inkscape:connector-curvature="0"
       id="path5092"
       style="fill:#9b9b9b;fill-opacity:1;fill-rule:nonzero;stroke:none"
       d="m 2693.41,1171.91 c -0.54,3.97 -8.42,6.17 -17.61,4.92 -0.4,-0.05 -0.79,-0.12 -1.19,-0.19 0.17,-4.78 0.52,-9.58 1.11,-14.37 0.67,0.05 1.35,0.12 2.03,0.21 9.19,1.25 16.2,5.47 15.66,9.43" />
    <path
       inkscape:connector-curvature="0"
       id="path5094"
       style="fill:#9b9b9b;fill-opacity:1;fill-rule:nonzero;stroke:none"
       d="m 2696.74,1148.11 c -0.99,3.87 -9.06,5.17 -18.06,2.9 -0.36,-0.1 -0.71,-0.2 -1.06,-0.31 0.92,-4.68 2.03,-9.36 3.38,-14.02 0.41,0.09 0.83,0.18 1.24,0.28 8.99,2.28 15.47,7.27 14.5,11.15" />
    <path
       inkscape:connector-curvature="0"
       id="path5096"
       style="fill:#9b9b9b;fill-opacity:1;fill-rule:nonzero;stroke:none"
       d="m 2704.28,1125.75 c -1.77,3.6 -9.94,3.2 -18.26,-0.89 -0.32,-0.15 -0.61,-0.31 -0.91,-0.47 0.32,-0.86 0.6,-1.72 0.93,-2.58 1.45,-3.67 3.05,-7.21 4.72,-10.7 0.55,0.24 1.09,0.48 1.63,0.76 8.32,4.08 13.65,10.3 11.89,13.88" />
    <path
       inkscape:connector-curvature="0"
       id="path5098"
       style="fill:#9b9b9b;fill-opacity:1;fill-rule:nonzero;stroke:none"
       d="m 2714.94,1104.21 c -2.16,3.37 -10.23,2.05 -18.05,-2.95 -0.25,-0.17 -0.49,-0.33 -0.74,-0.5 2.39,-4.22 4.96,-8.29 7.69,-12.22 0.28,0.17 0.57,0.34 0.86,0.52 7.81,5 12.4,11.78 10.24,15.15" />
    <path
       inkscape:connector-curvature="0"
       id="path5100"
       style="fill:#b2b2b2;fill-opacity:1;fill-rule:nonzero;stroke:none"
       d="m 2887.8,1060.02 c -67.58,-26.68 -143.99,6.47 -170.66,74.05 -26.68,67.58 6.47,144 74.05,170.68 67.58,26.67 144,-6.49 170.67,-74.07 26.68,-67.57 -6.48,-143.98 -74.06,-170.66" />
    <path
       inkscape:connector-curvature="0"
       id="path5102"
       style="fill:#cccccc;fill-opacity:1;fill-rule:nonzero;stroke:none"
       d="m 2857.77,1136.08 c -25.56,-10.09 -54.48,2.46 -64.58,28.02 -10.08,25.58 2.46,54.48 28.03,64.58 25.57,10.09 54.48,-2.45 64.58,-28.03 10.09,-25.56 -2.45,-54.48 -28.03,-64.57" />
    <path
       inkscape:connector-curvature="0"
       id="path5104"
       style="fill:#ffffff;fill-opacity:1;fill-rule:nonzero;stroke:none"
       d="m 2845.51,1167.17 c -8.41,-3.32 -17.91,0.8 -21.22,9.21 -3.32,8.4 0.8,17.9 9.21,21.22 8.39,3.31 17.9,-0.81 21.21,-9.21 3.32,-8.41 -0.8,-17.9 -9.2,-21.22" />
    <path
       inkscape:connector-curvature="0"
       id="path5106"
       style="fill:#808080;fill-opacity:1;fill-rule:nonzero;stroke:none"
       d="m 2892.35,1153.25 c 63.66,71.7 67.64,139.12 65.84,167.58 -12.03,10.19 -25.27,18.77 -39.38,25.5 30.76,-89.99 -81.9,-254.87 -231.56,-263.6 8.58,-13.29 18.74,-25.18 30.1,-35.55 1.75,0.43 3.44,0.87 5.21,1.3 45.8,11.05 97.72,23.58 169.79,104.77" />
    <path
       inkscape:connector-curvature="0"
       id="path5108"
       style="fill:#808080;fill-opacity:1;fill-rule:nonzero;stroke:none"
       d="m 2907.23,1012.27 c 93.65,36.96 139.59,142.85 102.62,236.49 -9.16,23.2 -22.58,43.45 -38.97,60.25 -0.11,-34.92 -10.36,-97.24 -69.45,-163.81 -72.81,-82.01 -125.85,-96.36 -172.55,-107.67 49.16,-37.889 116.42,-49.721 178.35,-25.26" />
    <path
       inkscape:connector-curvature="0"
       id="path5110"
       style="fill:#6b6b6b;fill-opacity:1;fill-rule:nonzero;stroke:none"
       d="m 2901.43,1145.2 c 59.09,66.57 69.34,128.89 69.45,163.81 -4.05,4.16 -8.28,8.1 -12.69,11.82 1.8,-28.46 -2.18,-95.88 -65.84,-167.58 -72.07,-81.19 -123.99,-93.72 -169.79,-104.77 -1.77,-0.43 -3.46,-0.87 -5.21,-1.3 3.72,-3.38 7.57,-6.59 11.53,-9.65 46.7,11.31 99.74,25.66 172.55,107.67" />
    <path
       inkscape:connector-curvature="0"
       id="path5112"
       style="fill:#b2b2b2;fill-opacity:1;fill-rule:nonzero;stroke:none"
       d="m 2718.22,963.172 c -1.19,3.019 -0.99,6.539 0.83,9.508 0.15,0.242 15.19,24.699 32.39,49.22 32.5,46.35 44.83,54.05 53.31,55.45 35.17,5.86 89.43,12.38 125.34,16.69 l 14.65,1.77 c 32.11,3.9 95.11,-43.51 107.42,-53.06 4.66,-3.6 5.51,-10.3 1.89,-14.96 -3.6,-4.66 -10.31,-5.5 -14.96,-1.89 -27.73,21.49 -74.54,50.83 -91.78,48.73 l -14.67,-1.77 c -35.63,-4.28 -89.4,-10.74 -124.1,-16.5 -10.34,-4.08 -45.12,-52.2 -71.3,-94.848 -3.09,-5.012 -9.65,-6.582 -14.68,-3.5 -2.04,1.258 -3.52,3.09 -4.34,5.16" />
    <path
       inkscape:connector-curvature="0"
       id="path5114"
       style="fill:#808080;fill-opacity:1;fill-rule:nonzero;stroke:none"
       d="m 3014.22,913.422 c 17.71,-56.82 28.72,-102.473 35.05,-132.082 16.88,7.308 30.72,20.93 20.17,59.031 -7.31,26.418 -30.52,126.711 -58.87,163.679 -10.36,13.5 -23.99,17.29 -35.34,14.31 7.83,-17.6 23.35,-54.79 38.99,-104.938" />
    <path
       inkscape:connector-curvature="0"
       id="path5116"
       style="fill:#808080;fill-opacity:1;fill-rule:nonzero;stroke:none"
       d="m 2967.36,1015.07 c -9.39,-5.08 -20.08,-10.71 -32.48,-15.699 9.07,-26.23 27.94,-80.633 31.88,-90.59 5.21,-13.23 -7.86,-29.48 -23.66,-33.043 -25.66,-5.777 -32.43,-16.617 -28.72,-43.449 2.25,-16.25 11.58,-65.809 15.24,-83.98 31.89,8.461 60.1,14.07 105.46,28.05 2.01,0.61 4.06,1.25 6.11,1.942 -6.23,29.32 -17.23,75.219 -35.12,132.578 -15.59,50.019 -31.03,86.93 -38.71,104.191" />
    <path
       inkscape:connector-curvature="0"
       id="path5118"
       style="fill:#f5b400;fill-opacity:1;fill-rule:nonzero;stroke:none"
       d="m 3049.27,781.34 c -6.33,29.609 -17.34,75.262 -35.05,132.082 -15.64,50.148 -31.16,87.338 -38.99,104.938 -2.23,-0.59 -4.39,-1.41 -6.41,-2.5 -0.47,-0.26 -0.97,-0.53 -1.46,-0.79 7.68,-17.261 23.12,-54.172 38.71,-104.191 17.89,-57.359 28.89,-103.258 35.12,-132.578 2.72,0.898 5.43,1.898 8.08,3.039" />
    <path
       inkscape:connector-curvature="0"
       id="path5120"
       style="fill:#fbcb43;fill-opacity:1;fill-rule:nonzero;stroke:none"
       d="m 2874.68,627.98 c -39.92,-7.609 -44.69,-2.511 -48.3,8.102 -5.15,15.109 -9.54,45.52 -9.75,57.469 -0.31,18.238 9.28,24.429 22.51,27.238 16.26,3.461 47.68,8.762 65.81,11.461 31.05,4.609 18.3,-43.059 18.28,-78.578 -0.01,-20.602 -30.12,-22.184 -48.55,-25.692 z m 69.26,10.34 c 9.49,18.078 15.38,112.879 15.02,117.512 -3.57,-0.121 -6.71,0.258 -8.86,1.508 -21.58,12.582 -29.87,75.219 -25.89,96.57 6.13,32.981 34.01,34.629 21.35,66.711 -4.59,11.629 -20.61,52.207 -28.46,72.09 -35.55,-12.09 -77.65,-18.391 -120.73,-6.699 -15.27,4.129 -31.15,5.277 -37.33,-16.703 -4.86,-17.34 -8.68,-45.02 0.2,-89.7 8.16,-41.078 21.25,-111.617 22.74,-118.148 10.01,-48.121 26.37,-128.82 28.72,-139.051 4.73,-20.539 18.11,-19.601 31.39,-19.25 16.73,0.442 45.79,5.918 66.48,11.449 26.98,7.211 29.16,11.871 35.37,23.711" />
    <path
       inkscape:connector-curvature="0"
       id="path5122"
       style="fill:#f5b400;fill-opacity:1;fill-rule:nonzero;stroke:none"
       d="m 2924.21,853.91 c -3.98,-21.351 4.31,-83.988 25.89,-96.57 2.15,-1.25 5.29,-1.629 8.86,-1.508 -4.77,13.938 -16.63,52.828 -13.11,85.828 3.56,33.43 30.92,33.512 23.81,67.5 -5.17,24.719 -25.71,63.981 -34.78,90.211 -5.7,-2.359 -11.66,-4.59 -17.78,-6.66 7.85,-19.883 23.87,-60.461 28.46,-72.09 12.66,-32.082 -15.22,-33.73 -21.35,-66.711" />
    <path
       inkscape:connector-curvature="0"
       id="path5124"
       style="fill:#808080;fill-opacity:1;fill-rule:nonzero;stroke:none"
       d="m 2728.04,986.379 18.96,-8.82 c 0,0 -11.2,-38.778 -34.34,-44.129 -7.46,-1.719 -10.97,9.211 -14.55,18.3 -5.44,13.782 -6.38,22.348 2.57,25.481 9.67,3.379 27.36,9.168 27.36,9.168" />
    <path
       inkscape:connector-curvature="0"
       id="path5126"
       style="fill:#f5b400;fill-opacity:1;fill-rule:nonzero;stroke:none"
       d="m 2895.41,946.469 c -36.04,-12.449 -54.17,-4.137 -71.4,-2.918 -40.26,2.871 -44.73,-20.91 -37.67,-69.75 6.45,-44.75 2.74,-87.5 27,-109.723 11.63,-10.637 36.41,-8.777 57.28,-6.726 16.48,1.609 34.22,2.097 37.38,14.757 5.43,21.782 -18.66,44.532 -9.51,76.403 9.16,31.867 17.73,39.75 28.68,52.617 8.35,9.832 1.09,28 -4.76,38.891 -6.14,11.429 -10.51,12.16 -27,6.449" />
    <path
       inkscape:connector-curvature="0"
       id="path5128"
       style="fill:#6b6b6b;fill-opacity:1;fill-rule:nonzero;stroke:none"
       d="m 3056.47,819.43 c -4.03,-1.141 -8.21,1.211 -9.35,5.242 l -7.8,27.726 c -1.15,4.043 1.21,8.223 5.23,9.364 l 0,0 c 4.03,1.129 8.22,-1.211 9.36,-5.25 l 7.81,-27.731 c 1.13,-4.019 -1.21,-8.211 -5.25,-9.351 l 0,0" />
    <path
       inkscape:connector-curvature="0"
       id="path5130"
       style="fill:#9b9b9b;fill-opacity:1;fill-rule:nonzero;stroke:none"
       d="m 3162.91,1232.28 c -20.22,0 -36.62,16.39 -36.62,36.62 0,20.23 16.4,36.63 36.62,36.63 20.22,0 36.62,-16.4 36.62,-36.63 0,-20.23 -16.4,-36.62 -36.62,-36.62 z m 38.85,-5.07 c 3.58,3.58 9.88,3.41 16.07,0.27 0.3,-0.16 0.61,-0.37 0.91,-0.55 5.94,7.89 10.31,17.03 12.49,27.02 -0.73,0.18 -1.51,0.31 -2.21,0.54 -6.6,2.15 -11.17,6.5 -11.17,11.56 0,5.07 4.57,9.42 11.17,11.57 1,0.32 2.09,0.54 3.18,0.77 -1.43,10.45 -5.27,20.09 -10.75,28.53 -0.56,-0.38 -1.11,-0.78 -1.66,-1.11 -0.66,-0.4 -1.3,-0.85 -1.96,-1.19 -6.19,-3.15 -12.49,-3.3 -16.07,0.28 -3.59,3.59 -3.43,9.89 -0.28,16.08 0.48,0.93 1.09,1.86 1.69,2.79 0.33,0.48 0.78,0.93 1.13,1.4 -8.33,6.14 -18.02,10.54 -28.61,12.51 -1.1,-9.49 -6.39,-16.69 -12.78,-16.69 -6.39,0 -11.68,7.2 -12.78,16.69 -10.54,-1.96 -20.18,-6.34 -28.48,-12.43 0.35,-0.48 0.69,-0.97 1.03,-1.46 0.43,-0.66 0.66,-1.32 1.02,-1.97 3.6,-6.47 4.11,-13.17 0.36,-16.92 -3.63,-3.64 -10.05,-3.31 -16.33,-0.02 -0.58,0.31 -1.17,0.48 -1.74,0.84 -0.55,0.34 -1.1,0.75 -1.64,1.15 -5.47,-8.43 -9.29,-18.03 -10.72,-28.44 8.29,-1.64 14.35,-6.54 14.35,-12.38 0,-5.61 -5.58,-10.38 -13.37,-12.2 2.2,-9.98 6.58,-19.12 12.54,-27 6.45,3.6 13.16,4.11 16.91,0.36 3.64,-3.64 3.31,-10.06 0.02,-16.33 8.08,-5.41 17.28,-9.28 27.27,-10.94 2.15,6.6 6.49,11.17 11.56,11.17 5.07,0 9.41,-4.57 11.56,-11.17 9.96,1.66 19.13,5.51 27.19,10.89 -0.06,0.11 -0.13,0.2 -0.18,0.3 -3.15,6.19 -3.31,12.49 0.28,16.08" />
    <path
       inkscape:connector-curvature="0"
       id="path5132"
       style="fill:#9b9b9b;fill-opacity:1;fill-rule:nonzero;stroke:none"
       d="m 3621.93,1710.83 c -20.23,0 -36.63,16.4 -36.63,36.62 0,20.23 16.4,36.63 36.63,36.63 20.23,0 36.62,-16.4 36.62,-36.63 0,-20.22 -16.39,-36.62 -36.62,-36.62 z m 38.84,-5.07 c 3.59,3.59 9.89,3.42 16.09,0.28 0.3,-0.16 0.6,-0.38 0.89,-0.55 5.95,7.89 10.33,17.02 12.5,27.01 -0.74,0.19 -1.51,0.31 -2.21,0.55 -6.6,2.15 -11.17,6.49 -11.17,11.56 0,5.07 4.57,9.4 11.17,11.56 1,0.32 2.09,0.55 3.17,0.77 -1.42,10.45 -5.25,20.08 -10.75,28.54 -0.55,-0.38 -1.1,-0.78 -1.66,-1.12 -0.65,-0.4 -1.29,-0.85 -1.94,-1.19 -6.2,-3.14 -12.5,-3.31 -16.09,0.28 -3.57,3.58 -3.42,9.89 -0.27,16.08 0.48,0.94 1.09,1.87 1.7,2.79 0.31,0.48 0.77,0.92 1.11,1.4 -8.33,6.14 -18.01,10.55 -28.59,12.5 -1.11,-9.48 -6.4,-16.68 -12.79,-16.68 -6.38,0 -11.68,7.2 -12.79,16.68 -10.53,-1.94 -20.17,-6.33 -28.48,-12.42 0.37,-0.48 0.71,-0.97 1.03,-1.46 0.44,-0.65 0.66,-1.31 1.03,-1.97 3.61,-6.46 4.12,-13.17 0.37,-16.92 -3.64,-3.64 -10.06,-3.3 -16.33,-0.02 -0.59,0.31 -1.17,0.49 -1.75,0.85 -0.56,0.34 -1.09,0.75 -1.64,1.14 -5.47,-8.43 -9.3,-18.03 -10.71,-28.44 8.28,-1.65 14.33,-6.53 14.33,-12.37 0,-5.63 -5.56,-10.38 -13.36,-12.21 2.2,-9.98 6.58,-19.12 12.54,-27 6.46,3.6 13.17,4.11 16.92,0.36 3.63,-3.63 3.3,-10.06 0.02,-16.33 8.06,-5.41 17.27,-9.27 27.26,-10.93 2.15,6.6 6.5,11.17 11.56,11.17 5.07,0 9.41,-4.57 11.57,-11.17 9.95,1.66 19.13,5.5 27.18,10.88 -0.05,0.1 -0.13,0.2 -0.18,0.3 -3.15,6.19 -3.3,12.5 0.27,16.08" />
    <path
       inkscape:connector-curvature="0"
       id="path5134"
       style="fill:#9b9b9b;fill-opacity:1;fill-rule:nonzero;stroke:none"
       d="m 4002.82,831.859 c -20.23,0 -36.63,16.391 -36.63,36.621 0,20.231 16.4,36.629 36.63,36.629 20.23,0 36.62,-16.398 36.62,-36.629 0,-20.23 -16.39,-36.621 -36.62,-36.621 z m 38.84,-5.07 c 3.59,3.582 9.89,3.422 16.08,0.27 0.31,-0.161 0.61,-0.368 0.9,-0.547 5.95,7.886 10.32,17.027 12.5,27.019 -0.74,0.18 -1.51,0.309 -2.21,0.539 -6.61,2.149 -11.18,6.5 -11.18,11.559 0,5.07 4.57,9.41 11.18,11.57 1,0.321 2.09,0.539 3.17,0.77 -1.42,10.453 -5.25,20.09 -10.75,28.531 -0.55,-0.379 -1.1,-0.781 -1.66,-1.121 -0.65,-0.391 -1.29,-0.848 -1.95,-1.18 -6.19,-3.148 -12.49,-3.308 -16.08,0.27 -3.57,3.59 -3.42,9.902 -0.27,16.09 0.48,0.929 1.09,1.863 1.7,2.793 0.31,0.48 0.77,0.918 1.11,1.398 -8.33,6.141 -18.01,10.539 -28.59,12.5 -1.12,-9.488 -6.4,-16.68 -12.79,-16.68 -6.39,0 -11.68,7.192 -12.79,16.68 -10.53,-1.949 -20.17,-6.328 -28.47,-12.43 0.35,-0.468 0.7,-0.961 1.02,-1.449 0.44,-0.66 0.66,-1.32 1.03,-1.973 3.61,-6.468 4.11,-13.179 0.36,-16.929 -3.63,-3.629 -10.05,-3.297 -16.32,-0.008 -0.59,0.309 -1.18,0.48 -1.75,0.84 -0.56,0.34 -1.1,0.75 -1.64,1.148 -5.47,-8.429 -9.3,-18.027 -10.72,-28.437 8.29,-1.653 14.34,-6.543 14.34,-12.383 0,-5.617 -5.57,-10.379 -13.36,-12.199 2.2,-9.981 6.58,-19.121 12.54,-27 6.46,3.601 13.16,4.109 16.91,0.359 3.64,-3.641 3.32,-10.059 0.02,-16.328 8.07,-5.41 17.28,-9.281 27.27,-10.941 2.15,6.601 6.49,11.171 11.56,11.171 5.07,0 9.41,-4.57 11.56,-11.171 9.96,1.66 19.14,5.511 27.19,10.89 -0.06,0.102 -0.12,0.199 -0.18,0.289 -3.15,6.192 -3.3,12.5 0.27,16.09" />
    <path
       inkscape:connector-curvature="0"
       id="path5136"
       style="fill:#9b9b9b;fill-opacity:1;fill-rule:nonzero;stroke:none"
       d="m 2585.6,922.262 c -3.12,13.5 -53.83,142.088 -87.89,115.338 -16.34,-12.83 0.94,-40.639 8.75,-52.631 7.5,-11.52 15.55,-23.168 24.17,-33.867 11.91,-14.762 27.95,-29.641 42.53,-41.77 5.97,-4.98 5.22,-1 0.13,4.828 -20.13,23.07 -73.5,88.18 -74.99,105.34 -1.04,12.04 8.59,15 15.17,10.94 11.69,-7.21 24.65,-28.44 28.6,-34.819 16.66,-26.851 27.79,-47.371 38.06,-72.609 3.23,-7.961 6.96,-7.223 5.47,-0.75" />
    <path
       inkscape:connector-curvature="0"
       id="path5138"
       style="fill:#9b9b9b;fill-opacity:1;fill-rule:nonzero;stroke:none"
       d="m 2598.42,893.07 c -1.96,-2.398 0.69,-5.379 5.66,-1.23 3.12,2.59 11.63,1.832 12.43,-5.149 0.28,-2.339 -0.97,-5.812 -2.31,-7.632 -3.95,-5.309 -10.62,-8.45 -18.57,-6.457 -7.93,1.98 -11.87,8.359 -9.77,16.5 1.34,5.207 8.51,13.91 14.57,9.859 1.99,-1.32 4.32,-0.332 3.77,1.719 -0.96,3.629 -4.93,4.531 -8.08,4.25 -5.63,-0.5 -9.09,-3.391 -12.59,-7.629 -9.11,-10.969 -3.02,-26.211 9.28,-30.172 10.39,-3.348 24.01,1.75 27.85,12.601 5.38,15.161 -13.27,24.258 -22.24,13.34" />
    <path
       inkscape:connector-curvature="0"
       id="path5140"
       style="fill:#9b9b9b;fill-opacity:1;fill-rule:nonzero;stroke:none"
       d="m 2696.77,1019.34 c -8.38,1.31 -18.47,-0.92 -26.19,-3.2 -5.64,-1.67 -13.44,-4.93 -16.93,-7.59 -2.89,-2.2 -0.16,-3.51 2.16,-2.48 6.29,2.78 17.65,5.47 24.38,6.64 -14.84,-9.1 -30.66,-24.401 -42.37,-36.679 -10.3,-10.812 -21.8,-25.5 -26.61,-39.101 -1.87,-5.309 0.83,-5.641 3.37,-0.379 15.9,32.937 45.92,52.289 72.75,75.979 -6.31,-15.241 -7.97,-21.491 -7.97,-29.339 0,-4.812 1.99,-3.98 3.07,-0.199 0.74,2.598 6.88,20.428 13.17,28.718 2.57,3.41 4.31,7.13 1.17,7.63" />
    <path
       inkscape:connector-curvature="0"
       id="path5142"
       style="fill:#9b9b9b;fill-opacity:1;fill-rule:nonzero;stroke:none"
       d="m 3871.07,1825.86 c 3.66,3.09 7.1,3.25 2.77,-3.47 -5.08,-7.87 -7.5,-13.21 -11.25,-21.62 -3.34,-7.51 -4.88,-12.35 -5.63,-17.82 36.74,52.55 111.48,101.59 175.41,110.32 6.77,0.92 12.1,-1.53 0.37,-4.68 -30.65,-8.23 -58.36,-19.08 -85.98,-35.36 -30.3,-17.85 -54.04,-42.22 -77.94,-66.36 6.29,2.94 17.91,4.37 19.98,4.47 6.9,0.34 6.58,-4.25 2.25,-5.37 -16.53,-4.3 -23.01,-6.92 -32.92,-13.71 -6.98,-4.79 -10.11,-5.4 -10.52,2.95 -0.17,3.44 -0.06,7.53 0.75,11.94 2.8,15.36 14.83,32.04 22.71,38.71" />
  </g>
</svg>
