<?xml version="1.0" standalone="no"?><!-- Generator: Gravit.io --><svg xmlns="http://www.w3.org/2000/svg" xmlns:xlink="http://www.w3.org/1999/xlink" style="isolation:isolate" viewBox="0 0 200 90" width="200" height="90"><defs><clipPath id="_clipPath_UVmHtjZN7FAEEVo3olb1xKdYqaGA49D2"><rect width="200" height="90"/></clipPath></defs><g clip-path="url(#_clipPath_UVmHtjZN7FAEEVo3olb1xKdYqaGA49D2)"><clipPath id="_clipPath_jg0xtxlzrHhp1DfiHblu4bXh4NQO9aPG"><rect x="0" y="0" width="90" height="90" transform="matrix(1,0,0,1,0,0)" fill="rgb(255,255,255)"/></clipPath><g clip-path="url(#_clipPath_jg0xtxlzrHhp1DfiHblu4bXh4NQO9aPG)"><g><g><path d=" M 44.591 6 Q 46.226 6.582 90 32.255 L 78.444 36.847 L 78.444 36.847 L 44.825 17.303 Q 17.704 32.994 10.272 36.847 L 10.272 36.847 L 10.272 36.847 L 0 32.255 L 44.591 6 L 44.591 6 Z  M 26.381 35.905 Q 28.132 36.782 31.284 38.731 L 42.84 46.148 L 35.837 48.739 L 35.72 60.159 L 27.782 56.391 L 27.665 66.399 L 35.837 71.815 L 35.72 83 C 30.078 79.618 24.553 76.557 18.794 72.521 L 18.794 72.521 L 18.56 40.261 L 26.381 35.905 L 26.381 35.905 Z  M 62.802 35.905 Q 69.611 39.352 71.089 40.261 Q 71.167 67.609 71.089 72.521 L 58.482 80.528 L 54.163 83 L 54.047 71.815 L 62.218 66.399 L 62.101 56.391 L 54.163 60.159 Q 54.047 59.034 53.93 48.621 L 47.043 46.148 L 62.802 35.905 L 62.802 35.905 Z " fill-rule="evenodd" fill="rgb(254,254,254)"/></g></g></g><g><path d=" M 148.936 66.777 L 148.936 66.777 L 148.936 66.777 Q 147.445 66.777 146.248 66.305 L 146.248 66.305 L 146.248 66.305 Q 145.051 65.832 144.211 64.898 L 144.211 64.898 L 144.211 64.898 Q 143.371 63.963 142.909 62.567 L 142.909 62.567 L 142.909 62.567 Q 142.447 61.17 142.447 59.301 L 142.447 59.301 L 142.447 59.301 Q 142.447 57.453 142.909 56.015 L 142.909 56.015 L 142.909 56.015 Q 143.371 54.576 144.211 53.6 L 144.211 53.6 L 144.211 53.6 Q 145.051 52.623 146.248 52.119 L 146.248 52.119 L 146.248 52.119 Q 147.445 51.615 148.936 51.615 L 148.936 51.615 L 148.936 51.615 Q 150.973 51.615 152.296 52.445 L 152.296 52.445 L 152.296 52.445 Q 153.619 53.274 154.417 55.059 L 154.417 55.059 L 151.666 56.487 L 151.666 56.487 Q 151.372 55.563 150.753 55.007 L 150.753 55.007 L 150.753 55.007 Q 150.133 54.45 148.936 54.45 L 148.936 54.45 L 148.936 54.45 Q 147.529 54.45 146.679 55.364 L 146.679 55.364 L 146.679 55.364 Q 145.828 56.277 145.828 58.02 L 145.828 58.02 L 145.828 60.372 L 145.828 60.372 Q 145.828 62.115 146.679 63.029 L 146.679 63.029 L 146.679 63.029 Q 147.529 63.942 148.936 63.942 L 148.936 63.942 L 148.936 63.942 Q 150.112 63.942 150.816 63.302 L 150.816 63.302 L 150.816 63.302 Q 151.519 62.661 151.855 61.758 L 151.855 61.758 L 154.459 63.27 L 154.459 63.27 Q 153.64 64.95 152.307 65.864 L 152.307 65.864 L 152.307 65.864 Q 150.973 66.777 148.936 66.777 Z  M 158.009 66.525 L 158.009 57.915 L 154.817 57.915 L 154.817 55.5 L 164.309 55.5 L 164.309 57.915 L 161.117 57.915 L 161.117 66.525 L 158.009 66.525 L 158.009 66.525 Z  M 164.846 70.725 L 164.846 55.5 L 167.954 55.5 L 167.954 57.348 L 168.059 57.348 L 168.059 57.348 Q 168.29 56.424 169.12 55.836 L 169.12 55.836 L 169.12 55.836 Q 169.949 55.248 171.02 55.248 L 171.02 55.248 L 171.02 55.248 Q 173.12 55.248 174.191 56.718 L 174.191 56.718 L 174.191 56.718 Q 175.262 58.188 175.262 61.002 L 175.262 61.002 L 175.262 61.002 Q 175.262 63.816 174.191 65.297 L 174.191 65.297 L 174.191 65.297 Q 173.12 66.777 171.02 66.777 L 171.02 66.777 L 171.02 66.777 Q 170.474 66.777 169.991 66.62 L 169.991 66.62 L 169.991 66.62 Q 169.508 66.462 169.12 66.179 L 169.12 66.179 L 169.12 66.179 Q 168.731 65.895 168.458 65.507 L 168.458 65.507 L 168.458 65.507 Q 168.185 65.118 168.059 64.677 L 168.059 64.677 L 167.954 64.677 L 167.954 70.725 L 164.846 70.725 L 164.846 70.725 Z  M 169.991 64.257 L 169.991 64.257 L 169.991 64.257 Q 170.873 64.257 171.451 63.638 L 171.451 63.638 L 171.451 63.638 Q 172.028 63.018 172.028 61.968 L 172.028 61.968 L 172.028 60.057 L 172.028 60.057 Q 172.028 59.007 171.451 58.388 L 171.451 58.388 L 171.451 58.388 Q 170.873 57.768 169.991 57.768 L 169.991 57.768 L 169.991 57.768 Q 169.109 57.768 168.532 58.199 L 168.532 58.199 L 168.532 58.199 Q 167.954 58.629 167.954 59.385 L 167.954 59.385 L 167.954 62.64 L 167.954 62.64 Q 167.954 63.396 168.532 63.827 L 168.532 63.827 L 168.532 63.827 Q 169.109 64.257 169.991 64.257 Z  M 181.319 66.777 L 181.319 66.777 L 181.319 66.777 Q 180.101 66.777 179.146 66.378 L 179.146 66.378 L 179.146 66.378 Q 178.19 65.979 177.529 65.223 L 177.529 65.223 L 177.529 65.223 Q 176.867 64.467 176.51 63.396 L 176.51 63.396 L 176.51 63.396 Q 176.153 62.325 176.153 61.002 L 176.153 61.002 L 176.153 61.002 Q 176.153 59.679 176.51 58.608 L 176.51 58.608 L 176.51 58.608 Q 176.867 57.537 177.529 56.792 L 177.529 56.792 L 177.529 56.792 Q 178.19 56.046 179.146 55.647 L 179.146 55.647 L 179.146 55.647 Q 180.101 55.248 181.319 55.248 L 181.319 55.248 L 181.319 55.248 Q 182.537 55.248 183.493 55.647 L 183.493 55.647 L 183.493 55.647 Q 184.448 56.046 185.11 56.792 L 185.11 56.792 L 185.11 56.792 Q 185.771 57.537 186.128 58.608 L 186.128 58.608 L 186.128 58.608 Q 186.485 59.679 186.485 61.002 L 186.485 61.002 L 186.485 61.002 Q 186.485 62.325 186.128 63.396 L 186.128 63.396 L 186.128 63.396 Q 185.771 64.467 185.11 65.223 L 185.11 65.223 L 185.11 65.223 Q 184.448 65.979 183.493 66.378 L 183.493 66.378 L 183.493 66.378 Q 182.537 66.777 181.319 66.777 Z  M 181.319 64.32 L 181.319 64.32 L 181.319 64.32 Q 182.243 64.32 182.747 63.753 L 182.747 63.753 L 182.747 63.753 Q 183.251 63.186 183.251 62.136 L 183.251 62.136 L 183.251 59.889 L 183.251 59.889 Q 183.251 58.839 182.747 58.272 L 182.747 58.272 L 182.747 58.272 Q 182.243 57.705 181.319 57.705 L 181.319 57.705 L 181.319 57.705 Q 180.395 57.705 179.891 58.272 L 179.891 58.272 L 179.891 58.272 Q 179.387 58.839 179.387 59.889 L 179.387 59.889 L 179.387 62.136 L 179.387 62.136 Q 179.387 63.186 179.891 63.753 L 179.891 63.753 L 179.891 63.753 Q 180.395 64.32 181.319 64.32 Z  M 187.846 66.525 L 187.846 55.5 L 190.891 55.5 L 190.891 59.931 L 190.618 62.493 L 190.681 62.493 L 191.962 60.141 L 195.028 55.5 L 197.8 55.5 L 197.8 66.525 L 194.755 66.525 L 194.755 62.094 L 195.028 59.532 L 194.965 59.532 L 193.684 61.884 L 190.618 66.525 L 187.846 66.525 L 187.846 66.525 Z  M 192.844 54.366 L 192.844 54.366 L 192.844 54.366 Q 191.458 54.366 190.597 53.757 L 190.597 53.757 L 190.597 53.757 Q 189.736 53.148 189.253 52.014 L 189.253 52.014 L 188.812 50.943 L 191.227 50.04 L 191.899 52.161 L 191.899 52.161 Q 192.025 52.224 192.298 52.266 L 192.298 52.266 L 192.298 52.266 Q 192.571 52.308 192.844 52.308 L 192.844 52.308 L 192.844 52.308 Q 193.117 52.308 193.39 52.266 L 193.39 52.266 L 193.39 52.266 Q 193.663 52.224 193.789 52.161 L 193.789 52.161 L 194.461 50.04 L 196.876 50.943 L 196.435 52.014 L 196.435 52.014 Q 195.952 53.148 195.091 53.757 L 195.091 53.757 L 195.091 53.757 Q 194.23 54.366 192.844 54.366 Z  M 87.022 66.525 L 80.05 66.525 L 80.05 63.984 L 81.94 63.984 L 81.94 54.408 L 80.05 54.408 L 80.05 51.867 L 87.022 51.867 L 87.022 54.408 L 85.132 54.408 L 85.132 63.984 L 87.022 63.984 L 87.022 66.525 L 87.022 66.525 Z  M 97.173 66.525 L 93.162 59.595 L 91.755 56.655 L 91.692 56.655 L 91.692 66.525 L 88.689 66.525 L 88.689 51.867 L 92.175 51.867 L 96.186 58.797 L 97.593 61.737 L 97.656 61.737 L 97.656 51.867 L 100.659 51.867 L 100.659 66.525 L 97.173 66.525 L 97.173 66.525 Z  M 112.973 54.702 L 109.004 54.702 L 109.004 66.525 L 105.812 66.525 L 105.812 54.702 L 101.843 54.702 L 101.843 51.867 L 112.973 51.867 L 112.973 54.702 L 112.973 54.702 Z  M 124.132 66.525 L 114.157 66.525 L 114.157 51.867 L 124.132 51.867 L 124.132 54.702 L 117.349 54.702 L 117.349 57.684 L 123.166 57.684 L 123.166 60.519 L 117.349 60.519 L 117.349 63.69 L 124.132 63.69 L 124.132 66.525 L 124.132 66.525 Z  M 129.096 61.149 L 129.096 66.525 L 125.904 66.525 L 125.904 51.867 L 132.855 51.867 L 132.855 51.867 Q 133.863 51.867 134.682 52.203 L 134.682 52.203 L 134.682 52.203 Q 135.501 52.539 136.079 53.159 L 136.079 53.159 L 136.079 53.159 Q 136.656 53.778 136.971 54.639 L 136.971 54.639 L 136.971 54.639 Q 137.286 55.5 137.286 56.55 L 137.286 56.55 L 137.286 56.55 Q 137.286 58.041 136.625 59.154 L 136.625 59.154 L 136.625 59.154 Q 135.963 60.267 134.619 60.771 L 134.619 60.771 L 137.496 66.525 L 133.947 66.525 L 131.385 61.149 L 129.096 61.149 L 129.096 61.149 Z  M 129.096 58.461 L 132.456 58.461 L 132.456 58.461 Q 133.17 58.461 133.58 58.094 L 133.58 58.094 L 133.58 58.094 Q 133.989 57.726 133.989 57.012 L 133.989 57.012 L 133.989 56.088 L 133.989 56.088 Q 133.989 55.374 133.58 55.007 L 133.58 55.007 L 133.58 55.007 Q 133.17 54.639 132.456 54.639 L 132.456 54.639 L 129.096 54.639 L 129.096 58.461 L 129.096 58.461 Z " fill="rgb(255,255,255)"/></g></g></svg>